<?xml version="1.0" encoding="utf-8"?>
<!-- Generator: Adobe Illustrator 26.3.0, SVG Export Plug-In . SVG Version: 6.00 Build 0)  -->
<svg version="1.1" id="Capa_1" xmlns="http://www.w3.org/2000/svg" xmlns:xlink="http://www.w3.org/1999/xlink" x="0px" y="0px"
	 viewBox="0 0 215 46" style="enable-background:new 0 0 215 46;" xml:space="preserve">
<style type="text/css">
	.st0{fill:#FFFFFF;}
</style>
<g>
	<path class="st0" d="M104.2,6.8h0.8V4.7l4.6-2.3v8.4l6.5,3.8l0.3-10.8l-6.1-3.5l-6.2,3.3C104.1,3.6,104.1,6.8,104.2,6.8z"/>
	<g>
		<g>
			<g>
				<path class="st0" d="M79,25.1c0-0.4,0.1-0.8,0.4-1.1c0.2-0.3,0.6-0.4,1.1-0.4h4.6l0,2.2h-3.4c-0.1,0-0.2,0.1-0.2,0.2v7.1
					c0,0.2,0.1,0.2,0.2,0.2h1.1v-4.7h2.3v6.9h-4.2c-0.7,0-1.2-0.1-1.4-0.4c-0.3-0.3-0.4-0.8-0.4-1.4V25.1z"/>
			</g>
			<g>
				<path class="st0" d="M92.5,24.1c-0.2-0.2-0.6-0.4-1-0.4l-4.8,2.3v8c0,0.2,0,0.4,0.1,0.7c0.1,0.2,0.1,0.4,0.3,0.5
					c0.1,0.2,0.3,0.3,0.5,0.4c0.2,0.1,0.5,0.1,0.8,0.1h2.8c0.3,0,0.6,0,0.8-0.1c0.2-0.1,0.4-0.2,0.5-0.4c0.1-0.2,0.2-0.3,0.3-0.5
					c0.1-0.2,0.1-0.4,0.1-0.7v-8.7C92.8,24.7,92.7,24.4,92.5,24.1z M90.4,33.3c0,0.1,0,0.2,0,0.2c0,0-0.1,0.1-0.2,0.1h-0.9
					c-0.1,0-0.2,0-0.2-0.1c0,0,0-0.1,0-0.2V26c0-0.2,0.1-0.2,0.2-0.2h0.9c0.1,0,0.2,0.1,0.2,0.2V33.3z"/>
			</g>
			<g>
				<path class="st0" d="M94.5,23.7h2.3l1.2,4.8v-4.8h2.5v11.9H98l-1.3-5v5h-2.2V23.7z"/>
			</g>
			<g>
				<path class="st0" d="M105,33.4h2.2l-0.4,2.2h-5l2.7-9.7H102l0.4-2.2h5.2L105,33.4z"/>
			</g>
			<g>
				<path class="st0" d="M111,34.1l-0.2,1.5h-2.4l2.2-11.9h2.6l2.2,11.9h-2.4l-0.2-1.5H111z M111.2,32.2h1.1l-0.5-4.2L111.2,32.2z"
					/>
			</g>
			<g>
				<path class="st0" d="M116.6,23.7h2.5v9.7h2.4l-0.4,2.2h-4.4V23.7z"/>
			</g>
			<g>
				<path class="st0" d="M122.8,23.7h4.6l0.4,2.2h-2.6v2.8h2v2.1h-2v2.6h2.5l-0.4,2.2h-4.5V23.7z"/>
			</g>
			<g>
				<polygon class="st0" points="134.4,33.4 134,35.6 129,35.6 131.7,25.9 129.2,25.9 129.4,24.7 129.4,24.7 129.5,24.2 129.6,23.8 
					129.6,23.8 131.1,23.8 131.3,24 134.3,25.7 134.1,26.3 134.1,26.5 132.2,33.4 				"/>
			</g>
			<g>
				<polygon class="st0" points="134.9,23.3 134.4,25.1 131.4,23.4 131.2,23.3 				"/>
			</g>
		</g>
		<g>
			<g>
				<path class="st0" d="M79,25.1c0-0.4,0.1-0.8,0.4-1.1c0.2-0.3,0.6-0.4,1.1-0.4h4.6l0,2.2h-3.4c-0.1,0-0.2,0.1-0.2,0.2v7.1
					c0,0.2,0.1,0.2,0.2,0.2h1.1v-4.7h2.3v6.9h-4.2c-0.7,0-1.2-0.1-1.4-0.4c-0.3-0.3-0.4-0.8-0.4-1.4V25.1z"/>
				<path class="st0" d="M85.1,23.7l0,2.2h-3.4c-0.1,0-0.2,0.1-0.2,0.2v7.1c0,0.2,0.1,0.2,0.2,0.2h1.1v-4.7h2.3v6.9h-4.2
					c-0.7,0-1.2-0.1-1.4-0.4c-0.3-0.3-0.4-0.8-0.4-1.4v-8.6c0-0.4,0.1-0.8,0.4-1.1c0.2-0.3,0.6-0.4,1.1-0.4H85.1 M85.2,23.5h-0.2
					h-4.6c-0.5,0-0.9,0.2-1.2,0.4c-0.3,0.3-0.4,0.7-0.4,1.2v8.6c0,0.7,0.2,1.2,0.5,1.5c0.3,0.3,0.8,0.5,1.6,0.5h4.2h0.2v-0.2v-6.9
					v-0.2h-0.2h-2.3h-0.2v0.2v4.6h-0.9c0,0,0,0,0,0c0,0,0,0,0-0.1v-7.1c0-0.1,0-0.1,0-0.1c0,0,0,0,0,0h3.4h0.2l0-0.2l0-2.2
					L85.2,23.5L85.2,23.5z"/>
			</g>
			<g>
				<path class="st0" d="M92.5,24.1c-0.2-0.2-0.6-0.4-1-0.4l-4.8,2.3v8c0,0.2,0,0.4,0.1,0.7c0.1,0.2,0.1,0.4,0.3,0.5
					c0.1,0.2,0.3,0.3,0.5,0.4c0.2,0.1,0.5,0.1,0.8,0.1h2.8c0.3,0,0.6,0,0.8-0.1c0.2-0.1,0.4-0.2,0.5-0.4c0.1-0.2,0.2-0.3,0.3-0.5
					c0.1-0.2,0.1-0.4,0.1-0.7v-8.7C92.8,24.7,92.7,24.4,92.5,24.1z M90.4,33.3c0,0.1,0,0.2,0,0.2c0,0-0.1,0.1-0.2,0.1h-0.9
					c-0.1,0-0.2,0-0.2-0.1c0,0,0-0.1,0-0.2V26c0-0.2,0.1-0.2,0.2-0.2h0.9c0.1,0,0.2,0.1,0.2,0.2V33.3z"/>
				<path class="st0" d="M91.5,23.7c0.4,0,0.8,0.2,1,0.4c0.3,0.3,0.4,0.7,0.4,1.1v8.7c0,0.2,0,0.4-0.1,0.7c-0.1,0.2-0.1,0.4-0.3,0.5
					c-0.1,0.2-0.3,0.3-0.5,0.4c-0.2,0.1-0.5,0.1-0.8,0.1h-2.8c-0.3,0-0.6,0-0.8-0.1c-0.2-0.1-0.4-0.2-0.5-0.4
					c-0.1-0.2-0.2-0.3-0.3-0.5c-0.1-0.2-0.1-0.4-0.1-0.7v-8L91.5,23.7 M89.3,33.5h0.9c0.1,0,0.2,0,0.2-0.1c0,0,0-0.1,0-0.2V26
					c0-0.2-0.1-0.2-0.2-0.2h-0.9c-0.1,0-0.2,0.1-0.2,0.2v7.3c0,0.1,0,0.2,0,0.2C89.1,33.5,89.2,33.5,89.3,33.5 M91.4,23.5L91.4,23.5
					l-4.8,2.3l-0.1,0v0.1v8c0,0.2,0,0.5,0.1,0.7c0.1,0.2,0.2,0.4,0.3,0.6c0.1,0.2,0.3,0.3,0.6,0.4c0.2,0.1,0.5,0.2,0.9,0.2h2.8
					c0.3,0,0.6-0.1,0.9-0.2c0.2-0.1,0.4-0.2,0.6-0.4c0.1-0.2,0.3-0.4,0.3-0.6c0.1-0.2,0.1-0.4,0.1-0.7v-8.7c0-0.5-0.1-0.9-0.4-1.2
					C92.3,23.7,92,23.6,91.4,23.5L91.4,23.5L91.4,23.5z M89.2,33.3C89.2,33.3,89.2,33.3,89.2,33.3l0-7.4c0,0,0-0.1,0-0.1
					c0,0,0,0,0,0h0.9c0,0,0,0,0,0c0,0,0,0,0,0.1v7.3c0,0,0,0.1,0,0.1c0,0,0,0-0.1,0L89.2,33.3C89.3,33.4,89.2,33.4,89.2,33.3
					L89.2,33.3z"/>
			</g>
			<g>
				<path class="st0" d="M94.5,23.7h2.3l1.2,4.8v-4.8h2.5v11.9H98l-1.3-5v5h-2.2V23.7z"/>
				<path class="st0" d="M100.4,23.7v11.9H98l-1.3-5v5h-2.2V23.7h2.3l1.2,4.8v-4.8H100.4 M100.6,23.5h-0.2H98h-0.2v0.2v3.5l-0.9-3.6
					l0-0.1h-0.1h-2.3h-0.2v0.2v11.9v0.2h0.2h2.2h0.2v-0.2v-3.7l1,3.8l0,0.1H98h2.5h0.2v-0.2V23.7V23.5L100.6,23.5z"/>
			</g>
			<g>
				<path class="st0" d="M105,33.4h2.2l-0.4,2.2h-5l2.7-9.7H102l0.4-2.2h5.2L105,33.4z"/>
				<path class="st0" d="M107.5,23.7l-2.6,9.7h2.2l-0.4,2.2h-5l2.7-9.7H102l0.4-2.2H107.5 M107.7,23.5h-0.2h-5.2h-0.1l0,0.1
					l-0.4,2.2l0,0.2h0.2h2.3l-2.6,9.5l-0.1,0.2h0.2h5h0.1l0-0.1l0.4-2.2l0-0.2h-0.2h-2l2.5-9.5L107.7,23.5L107.7,23.5z"/>
			</g>
			<g>
				<path class="st0" d="M111,34.1l-0.2,1.5h-2.4l2.2-11.9h2.6l2.2,11.9h-2.4l-0.2-1.5H111z M111.2,32.2h1.1l-0.5-4.2L111.2,32.2z"
					/>
				<path class="st0" d="M113.1,23.7l2.2,11.9h-2.4l-0.2-1.5H111l-0.2,1.5h-2.4l2.2-11.9H113.1 M111.2,32.2h1.1l-0.5-4.2L111.2,32.2
					 M113.2,23.5h-0.1h-2.6h-0.1l0,0.1l-2.2,11.9l0,0.2h0.2h2.4h0.1l0-0.1l0.2-1.3h1.4l0.2,1.3l0,0.1h0.1h2.4h0.2l0-0.2l-2.2-11.9
					L113.2,23.5L113.2,23.5z M111.4,32.1l0.4-2.8l0.4,2.8H111.4L111.4,32.1z"/>
			</g>
			<g>
				<path class="st0" d="M116.6,23.7h2.5v9.7h2.4l-0.4,2.2h-4.4V23.7z"/>
				<path class="st0" d="M119,23.7v9.7h2.4l-0.4,2.2h-4.4V23.7H119 M119.2,23.5H119h-2.5h-0.2v0.2v11.9v0.2h0.2h4.4h0.1l0-0.1
					l0.4-2.2l0-0.2h-0.2h-2.2v-9.6V23.5L119.2,23.5z"/>
			</g>
			<g>
				<path class="st0" d="M122.8,23.7h4.6l0.4,2.2h-2.6v2.8h2v2.1h-2v2.6h2.5l-0.4,2.2h-4.5V23.7z"/>
				<path class="st0" d="M127.5,23.7l0.4,2.2h-2.6v2.8h2v2.1h-2v2.6h2.5l-0.4,2.2h-4.5V23.7H127.5 M127.6,23.5h-0.1h-4.6h-0.2v0.2
					v11.9v0.2h0.2h4.5h0.1l0-0.1l0.4-2.2l0-0.2h-0.2h-2.3v-2.3h1.8h0.2v-0.2v-2.1v-0.2h-0.2h-1.8V26h2.4h0.2l0-0.2l-0.4-2.2
					L127.6,23.5L127.6,23.5z"/>
			</g>
			<g>
				<polygon class="st0" points="134.4,33.4 134,35.6 129,35.6 131.7,25.9 129.2,25.9 129.4,24.7 129.4,24.7 129.5,24.2 129.6,23.8 
					129.6,23.8 131.1,23.8 131.3,24 134.3,25.7 134.1,26.3 134.1,26.5 132.2,33.4 				"/>
				<path class="st0" d="M131.1,23.8l0.2,0.1l2.9,1.7l-0.2,0.6l0,0.2l-1.9,6.9h2.2l-0.4,2.2h-5l2.7-9.7h-2.5l0.2-1.2l0,0l0.1-0.4
					l0.1-0.4l0,0H131.1 M131.1,23.7L131.1,23.7h-1.5h-0.1l0,0.1l0,0l-0.1,0.4l0,0.2l0,0l0,0.2l-0.2,1.2l0,0.2h0.2h2.3l-2.6,9.5
					l-0.1,0.2h0.2h5h0.1l0-0.1l0.4-2.2l0-0.2h-0.2h-2l1.8-6.7l0-0.2l0.2-0.6l0-0.1l-0.1-0.1l-2.9-1.7L131.1,23.7L131.1,23.7
					L131.1,23.7z"/>
			</g>
			<g>
				<polygon class="st0" points="134.9,23.3 134.4,25.1 131.4,23.4 131.2,23.3 				"/>
				<path class="st0" d="M134.9,23.3l-0.5,1.9l-2.9-1.7l-0.2-0.1H134.9 M135.1,23.1h-0.2h-3.7h-0.6l0.5,0.3l0.2,0.1l2.9,1.7l0.2,0.1
					l0.1-0.2l0.5-1.9L135.1,23.1L135.1,23.1z"/>
			</g>
		</g>
		<g>
			<g>
				<path class="st0" d="M85.2,28.6v7.2h-4.3c-0.7,0-1.3-0.2-1.6-0.5c-0.3-0.3-0.5-0.8-0.5-1.5v-8.6c0-0.5,0.1-0.9,0.4-1.2
					c0.3-0.3,0.7-0.4,1.2-0.4h4.8l0,0.2l0,2.2l0,0.2h-3.6c0,0,0,0,0,0c0,0,0,0,0,0.1v7.1c0,0,0,0.1,0,0.1c0,0,0,0,0,0h0.9v-4.7H85.2
					z"/>
			</g>
			<g>
				<path class="st0" d="M92.6,24c-0.2-0.3-0.6-0.4-1.1-0.5l0,0l0,0l-4.8,2.3l-0.1,0v8.1c0,0.2,0,0.5,0.1,0.7
					c0.1,0.2,0.2,0.4,0.3,0.6c0.1,0.2,0.3,0.3,0.6,0.4c0.2,0.1,0.5,0.2,0.9,0.2h2.8c0.3,0,0.6-0.1,0.9-0.2c0.2-0.1,0.4-0.2,0.6-0.4
					c0.1-0.2,0.3-0.4,0.3-0.6c0.1-0.2,0.1-0.4,0.1-0.7v-8.7C93,24.7,92.9,24.3,92.6,24z M89.2,33.3V26c0,0,0-0.1,0-0.1c0,0,0,0,0,0
					h0.9c0,0,0,0,0,0c0,0,0,0,0,0.1v7.3c0,0,0,0.1,0,0.1c0,0,0,0-0.1,0L89.2,33.3C89.3,33.4,89.2,33.4,89.2,33.3
					C89.2,33.3,89.2,33.3,89.2,33.3z"/>
			</g>
			<g>
				<polygon class="st0" points="100.6,23.5 100.6,35.8 97.9,35.8 97.8,35.6 96.9,31.9 96.9,35.8 94.3,35.8 94.3,23.5 96.9,23.5 
					96.9,23.6 97.8,27.2 97.8,23.5 				"/>
			</g>
			<g>
				<polygon class="st0" points="107.7,23.7 105.2,33.2 107.4,33.2 107.4,33.4 107,35.6 106.9,35.8 101.5,35.8 101.6,35.6 104.2,26 
					101.8,26 101.8,25.9 102.2,23.6 102.2,23.5 107.7,23.5 				"/>
			</g>
			<g>
				<path class="st0" d="M115.4,35.6l-2.2-11.9l0-0.1h-2.8l0,0.1l-2.2,11.9l0,0.2h2.7l0-0.1l0.2-1.3h1.4l0.2,1.3l0,0.1h2.7
					L115.4,35.6z M111.4,32.1l0.4-2.8l0.4,2.8H111.4z"/>
			</g>
			<g>
				<polygon class="st0" points="121.6,33.2 121.6,33.4 121.2,35.6 121.1,35.8 116.4,35.8 116.4,23.5 119.2,23.5 119.2,33.2 				"/>
			</g>
			<g>
				<polygon class="st0" points="128,33.2 127.9,33.4 127.5,35.6 127.5,35.8 122.7,35.8 122.7,23.5 127.6,23.5 127.6,23.6 128,25.9 
					128.1,26 125.4,26 125.4,28.6 127.4,28.6 127.4,30.9 125.4,30.9 125.4,33.2 				"/>
			</g>
			<g>
				<polygon class="st0" points="134.6,33.2 134.6,33.4 134.2,35.6 134.2,35.8 128.8,35.8 128.8,35.6 131.5,26 129,26 129,25.9 
					129.3,24.6 129.3,24.4 129.3,24.4 129.3,24.2 129.4,23.8 129.4,23.8 129.5,23.7 131.1,23.7 131.2,23.7 131.4,23.8 134.3,25.5 
					134.4,25.6 134.4,25.7 134.3,26.3 134.2,26.5 132.4,33.2 				"/>
			</g>
			<g>
				<polygon class="st0" points="135.1,23.1 135,23.3 134.5,25.2 134.5,25.4 134.3,25.3 131.4,23.5 131.1,23.4 130.6,23.1 				"/>
			</g>
		</g>
	</g>
	<g>
		<rect x="107.6" y="17.8" class="st0" width="1.7" height="1.7"/>
		<rect x="110" y="17.8" class="st0" width="1.7" height="1.7"/>
		<rect x="107.6" y="20.1" class="st0" width="1.7" height="1.7"/>
		<rect x="110" y="20.1" class="st0" width="1.7" height="1.7"/>
	</g>
	<g>
		<g>
			<path class="st0" d="M131.2,20.8c0.4-0.6,0-1.1-0.2-1.2c-0.2-0.1-0.2-0.2-0.2-0.2c0.1-0.6-0.3-0.6-0.5-0.6c-0.1,0-0.1,0-0.1,0
				c-1.1-0.5-1.7-0.5-1.7-0.5l1-1.6c0,0,0.1-0.2,0.4-0.2c0.2,0,0.1,0.5,0.3,0.5h0c0.2,0,0-0.7,0-0.7c0,0,0.1,0,0.1,0
				c0.3,0,0.7-0.2,0.3-0.4c-0.5-0.2-0.5-0.4-0.5-0.4c0.4,0,0.4-0.5,0.1-0.7c-0.3-0.2-0.3-0.3-0.3-0.3c0.1-0.8-0.1-1.2-0.1-1.2
				c-1.3-3.8-4.6-6.5-4.6-6.7c-0.1-0.2,0.1-0.3,0.1-0.3c0.4,0,0.3-1,0.3-1s0.1-0.9-1-1.4c-0.3-0.1-0.5-0.2-0.7-0.2
				c-0.7,0-1.1,0.6-1.3,0.9C122.5,5,122.4,5,122.3,5c0,0,0,0,0,0s0,0,0,0c0,0-0.5,0-0.7,0.4c-0.2,0.4,0.3,0.6,0.4,0.6
				c0.2,0.1,0.1,0.3,0,0.3c-0.2,0-0.1,0.3,0.1,0.3c0.2,0,0.1,0.2,0.1,0.3c-0.1,0.6,0.2,1,0.2,1c-0.1,0-0.3,0.3-0.5,0.8
				c-0.2,0.5-0.6,0.7-0.6,0.7c-1.3,0.6-2.7,2.6-2.7,2.6L117,12l-0.9-0.7V9.8c0.1,0.1,0.5,0.4,0.7,0.4c0,0,0,0,0,0
				c0-0.2-0.4-0.5-0.8-0.7c0,0-0.1,0-0.2,0c-0.4,0-1,0.3-1.3,0.5c-0.4,0.3,0,0.4,0,0.4s0.6-0.2,0.8-0.2c0.2,0,0.2,0.3,0.2,0.3
				s0.1,1.4,0.1,1.9c0,0.4,0.1,0.4,0.2,0.4c0,0,0.1,0,0.1,0l0.3,1.9l0.4,0c0,0,0-0.2,0.1-0.3c0.1-0.1,0.5-0.2,0.5-0.2
				s0.1-0.1,0.2-0.1c0.1,0,0.2,0.1,0.2,0.3c0.1,0.5,0.5,0.5,0.5,0.5c0.2-0.1-0.2-0.4,0.1-0.7c0.1-0.2,0.5-0.8,0.5-0.8
				s0.5,0.1,1.3,0.1c0.3,0,0.6,0,1-0.1c0.7-0.1,1.1-0.3,1.1-0.3l1.5-1c0,0,0.5,1,1.2,1.4c0.8,0.4,0.6,0.5,0.6,0.6
				c0,0.1-0.6,0.4-0.6,0.7c-0.1,0.3-0.7,1.2-1.1,1.7c-0.8,1.1-0.2,2.4-0.2,2.4l7.4,4.2l0.1-0.4c0.5-0.3,0.2-1.1,0.2-1.5
				C131,20.9,131.2,20.8,131.2,20.8z M116.9,13.3l0-0.1c0.1,0,0.1,0,0.2,0C117,13.2,117,13.2,116.9,13.3z M127.6,17.9l0.7-0.8
				c0.1-0.1,0.1-0.1,0.2-0.1c0,0,0.1,0,0.1,0c-0.2,0.5-0.4,0.8-0.5,0.9L127.6,17.9z"/>
		</g>
	</g>
	<polygon class="st0" points="136.1,26.4 136,26.8 134.2,26 131.2,24.6 129.6,23.9 129.1,23.7 128.8,23.6 109.4,14.9 90.8,23.5 
		85.7,25.9 80.6,28.3 85.7,25.2 88.5,23.5 109.6,10.9 131.1,23.5 131.4,23.6 134.3,25.4 	"/>
	<g>
		<path class="st0" d="M80.7,44l-0.1-0.1l0.9-4.2l0.2-0.1h1.2c0.3,0,0.5,0,0.7,0.1c0.3,0.1,0.5,0.2,0.6,0.5c0.1,0.2,0.2,0.5,0.1,0.8
			c-0.1,0.3-0.2,0.5-0.4,0.8c-0.2,0.2-0.5,0.4-0.8,0.5c0.2,0.2,0.5,0.7,0.8,1.7L83.7,44h-0.6l-0.1-0.1c-0.2-0.7-0.4-1.2-0.5-1.5
			c-0.1-0.1-0.2-0.2-0.3-0.2h-0.3l-0.4,1.7L81.2,44H80.7z M81.9,41.6h0.6c0.2,0,0.4,0,0.5-0.1c0.3-0.1,0.4-0.3,0.5-0.6
			c0.1-0.3,0-0.5-0.2-0.6c-0.1-0.1-0.2-0.1-0.4-0.1h-0.6L81.9,41.6z"/>
		<path class="st0" d="M85.7,44.1c-0.4,0-0.7-0.2-1-0.5c-0.2-0.3-0.3-0.7-0.2-1.1c0.1-0.4,0.3-0.8,0.6-1c0.3-0.3,0.7-0.4,1.1-0.4
			c0.4,0,0.8,0.1,1,0.4c0.2,0.3,0.3,0.7,0.2,1.1c-0.1,0.4-0.3,0.8-0.6,1C86.5,44,86.1,44.1,85.7,44.1z M85.8,43.4
			c0.4,0,0.7-0.3,0.8-0.8c0-0.2,0-0.3,0-0.4c0-0.1,0-0.2-0.1-0.3c-0.1-0.1-0.2-0.1-0.4-0.1c-0.4,0-0.7,0.3-0.8,0.8
			C85.2,43.2,85.4,43.4,85.8,43.4z"/>
		<path class="st0" d="M89.2,44.1c-0.4,0-0.7-0.2-1-0.5C88,43.3,87.9,43,88,42.6c0.1-0.4,0.3-0.8,0.6-1c0.3-0.3,0.7-0.4,1.1-0.4
			c0.4,0,0.8,0.1,1,0.4c0.2,0.3,0.3,0.7,0.2,1.1c-0.1,0.4-0.3,0.8-0.6,1C90,44,89.6,44.1,89.2,44.1z M89.2,43.4
			c0.4,0,0.7-0.3,0.8-0.8c0-0.2,0-0.3,0-0.4c0-0.1,0-0.2-0.1-0.3c-0.1-0.1-0.2-0.1-0.4-0.1c-0.4,0-0.7,0.3-0.8,0.8
			C88.7,43.2,88.8,43.4,89.2,43.4z"/>
		<path class="st0" d="M91.6,41.8l-0.1-0.1l0.1-0.4l0.2-0.1h0.3l0.1-0.7c0.1-0.3,0.1-0.6,0.2-0.7c0.1-0.2,0.2-0.4,0.5-0.5
			c0.2-0.1,0.5-0.2,0.8-0.2c0.1,0,0.3,0,0.5,0l0.1,0.1l-0.1,0.4l-0.2,0.1c-0.1,0-0.3,0-0.4,0c-0.2,0-0.3,0.1-0.4,0.2
			c0,0.1-0.1,0.3-0.1,0.6l-0.1,0.6h1.7l0.1,0.1l-0.5,2.6L93.9,44h-0.5l-0.1-0.1l0.4-2.1h-1.1l-0.4,2.1L92.1,44h-0.5l-0.1-0.1
			l0.4-2.1H91.6z M94.1,40.2c0-0.1,0.1-0.2,0.2-0.3c0.1-0.1,0.2-0.1,0.3-0.1s0.2,0,0.3,0.1c0.1,0.1,0.1,0.2,0.1,0.3
			c0,0.1-0.1,0.2-0.2,0.3c-0.1,0.1-0.2,0.1-0.3,0.1c-0.1,0-0.2,0-0.3-0.1C94.1,40.4,94.1,40.3,94.1,40.2z"/>
		<path class="st0" d="M95.5,41.3l0.2-0.1h0.4l0.1,0.1l0,0.2c0.3-0.3,0.6-0.4,0.9-0.4c0.3,0,0.5,0.1,0.6,0.3
			c0.1,0.2,0.2,0.4,0.2,0.7c0,0.1,0,0.3-0.1,0.5l-0.3,1.2L97.3,44h-0.5l-0.1-0.1l0.3-1.3c0-0.2,0.1-0.3,0.1-0.4
			c0-0.3-0.1-0.5-0.3-0.5c-0.2,0-0.4,0.1-0.6,0.3l-0.4,1.9L95.6,44h-0.5L95,43.9L95.5,41.3z"/>
		<path class="st0" d="M98.6,43.6c-0.2-0.3-0.3-0.7-0.2-1.1c0.1-0.4,0.3-0.8,0.6-1c0.3-0.3,0.6-0.4,1-0.4c0.4,0,0.6,0.1,0.8,0.4
			l0.1-0.2l0.2-0.1h0.4l0.1,0.1l-0.6,2.9c-0.1,0.4-0.3,0.8-0.6,1.1c-0.3,0.3-0.7,0.4-1.1,0.4c-0.4,0-0.7-0.1-0.9-0.2l-0.1-0.2
			l0.1-0.4l0.2-0.1c0.2,0.1,0.5,0.1,0.8,0.1c0.3,0,0.5-0.1,0.6-0.2c0.2-0.2,0.3-0.4,0.3-0.6l0.1-0.4c-0.2,0.2-0.4,0.3-0.7,0.3
			C99.1,44.1,98.8,43.9,98.6,43.6z M99.2,42.6c-0.1,0.6,0,0.8,0.5,0.8c0.2,0,0.4-0.1,0.6-0.3l0.2-1.1c-0.1-0.2-0.3-0.3-0.5-0.3
			C99.6,41.8,99.4,42.1,99.2,42.6z"/>
		<path class="st0" d="M104.6,44.1c-0.4,0-0.7-0.1-1-0.4c-0.3-0.3-0.4-0.6-0.3-1c0-0.2,0.1-0.4,0.2-0.5c0.1-0.2,0.2-0.3,0.4-0.4
			c0.1-0.1,0.3-0.2,0.4-0.3c0.1-0.1,0.2-0.1,0.4-0.2c0-0.1-0.1-0.1-0.1-0.1c0,0,0-0.1-0.1-0.1c0-0.1,0-0.1-0.1-0.2
			c0-0.1,0-0.1,0-0.2c0-0.1,0-0.2,0-0.2c0.1-0.3,0.2-0.5,0.4-0.7c0.2-0.2,0.5-0.3,0.9-0.3c0.2,0,0.3,0,0.4,0l0.1,0.1l-0.1,0.4
			l-0.2,0.1c-0.1,0-0.2,0-0.3,0c-0.3,0-0.4,0.1-0.5,0.3c0,0.1,0.1,0.3,0.2,0.7l0.6,1.4c0.2-0.2,0.4-0.5,0.6-0.8h-0.3l-0.1-0.1
			l0.1-0.4l0.2-0.1h1.3l0.1,0.1l-0.1,0.4l-0.2,0.1h-0.3c-0.3,0.6-0.7,1.1-1.1,1.4l0.4,0.8l-0.1,0.2h-0.6l-0.1-0.1l-0.1-0.3
			C105.5,44,105.1,44.1,104.6,44.1z M104.7,43.4c0.3,0,0.6-0.1,0.8-0.4l-0.5-1.2l-0.1,0c0,0-0.1,0-0.1,0c0,0,0,0-0.1,0
			c0,0-0.1,0-0.1,0.1c0,0-0.1,0-0.1,0.1c0,0-0.1,0.1-0.1,0.1c0,0-0.1,0.1-0.1,0.1c0,0-0.1,0.1-0.1,0.1c0,0,0,0.1-0.1,0.1
			c0,0.1,0,0.1,0,0.2c0,0.2,0,0.4,0.1,0.5C104.4,43.4,104.5,43.4,104.7,43.4z"/>
		<path class="st0" d="M110.4,39.7l0.2-0.1h2.3l0.1,0.1l-0.2,0.4l-0.2,0.1h-1.6l-0.2,1.2h1.5l0.1,0.1l-0.1,0.4l-0.2,0.1h-1.5
			l-0.3,1.4h1.7l0.1,0.1l-0.1,0.4l-0.2,0.1h-2.3l-0.1-0.1L110.4,39.7z"/>
		<path class="st0" d="M112.6,43.9l1.2-1.3l-0.5-1.2l0.1-0.2h0.6l0.1,0.1l0.3,0.6l0.5-0.6l0.2-0.1h0.6l0.1,0.2l-1,1.2l0.6,1.3
			l-0.1,0.2h-0.6l-0.1-0.1l-0.4-0.8l-0.7,0.8l-0.2,0.1h-0.6L112.6,43.9z"/>
		<path class="st0" d="M116.3,41.3l0.2-0.1h0.2l0.4-0.9l0.2-0.1h0.3l0.1,0.1l-0.2,0.8h0.5l0.1,0.1l-0.2,0.4l-0.2,0.1h-0.5l-0.2,0.8
			c-0.1,0.3-0.1,0.5-0.1,0.5c0,0.2,0.1,0.2,0.3,0.2c0.1,0,0.3,0,0.4-0.1l0.1,0.1l-0.1,0.4l-0.1,0.2c-0.2,0-0.3,0.1-0.4,0.1
			c-0.3,0-0.5-0.1-0.7-0.2c-0.2-0.1-0.3-0.3-0.3-0.4c0-0.2,0-0.4,0.1-0.7l0.2-0.9h-0.2l-0.1-0.1L116.3,41.3z"/>
		<path class="st0" d="M119.7,44.1c-0.5,0-0.9-0.1-1.1-0.4c-0.2-0.3-0.3-0.6-0.2-1.1c0.1-0.4,0.3-0.8,0.6-1.1
			c0.3-0.3,0.7-0.4,1.1-0.4c0.4,0,0.8,0.1,1,0.4c0.2,0.3,0.2,0.7,0.1,1.1l-0.2,0.1h-1.9c0,0.2,0,0.4,0.1,0.5
			c0.1,0.1,0.3,0.2,0.5,0.2c0.3,0,0.6,0,0.9-0.1l0.1,0.1l-0.1,0.3l-0.2,0.2C120.2,44.1,119.9,44.1,119.7,44.1z M119.2,42.3h1.2
			l0-0.1c0-0.2,0-0.3-0.1-0.4c-0.1-0.1-0.2-0.2-0.4-0.2c-0.2,0-0.3,0.1-0.4,0.2C119.4,42,119.3,42.1,119.2,42.3z"/>
		<path class="st0" d="M122.2,41.3l0.2-0.1h0.4l0.1,0.1l0,0.2c0.2-0.3,0.5-0.4,0.8-0.4c0.2,0,0.4,0.1,0.5,0.2l0,0.2l-0.4,0.4h-0.2
			c-0.1-0.1-0.2-0.1-0.3-0.1c-0.1,0-0.2,0-0.4,0.1c-0.1,0.1-0.2,0.2-0.2,0.4l-0.4,1.6l-0.2,0.1h-0.5l-0.1-0.1L122.2,41.3z"/>
		<path class="st0" d="M124.6,41.3l0.2-0.1h0.5l0.1,0.1l-0.6,2.6l-0.2,0.1h-0.5l-0.1-0.1L124.6,41.3z M125.5,40.5
			c-0.1,0.1-0.2,0.1-0.3,0.1c-0.1,0-0.2,0-0.3-0.1c-0.1-0.1-0.1-0.2-0.1-0.3c0-0.1,0.1-0.2,0.2-0.3c0.1-0.1,0.2-0.1,0.3-0.1
			c0.1,0,0.2,0,0.3,0.1c0.1,0.1,0.1,0.2,0.1,0.3C125.7,40.3,125.6,40.4,125.5,40.5z"/>
		<path class="st0" d="M127,44.1c-0.4,0-0.7-0.2-1-0.5c-0.2-0.3-0.3-0.7-0.2-1.1c0.1-0.4,0.3-0.8,0.6-1c0.3-0.3,0.7-0.4,1.1-0.4
			c0.4,0,0.8,0.1,1,0.4c0.2,0.3,0.3,0.7,0.2,1.1c-0.1,0.4-0.3,0.8-0.6,1C127.8,44,127.4,44.1,127,44.1z M127.1,43.4
			c0.4,0,0.7-0.3,0.8-0.8c0-0.2,0-0.3,0-0.4c0-0.1,0-0.2-0.1-0.3c-0.1-0.1-0.2-0.1-0.4-0.1c-0.4,0-0.7,0.3-0.8,0.8
			C126.5,43.2,126.6,43.4,127.1,43.4z"/>
		<path class="st0" d="M129.7,41.3l0.2-0.1h0.4l0.1,0.1l0,0.2c0.2-0.3,0.5-0.4,0.8-0.4c0.2,0,0.4,0.1,0.5,0.2l0,0.2l-0.4,0.4h-0.2
			c-0.1-0.1-0.2-0.1-0.3-0.1c-0.1,0-0.2,0-0.4,0.1c-0.1,0.1-0.2,0.2-0.2,0.4l-0.4,1.6l-0.2,0.1h-0.5l-0.1-0.1L129.7,41.3z"/>
		<path class="st0" d="M133.2,43.9c-0.2,0.2-0.5,0.2-0.8,0.2c-0.3,0-0.6-0.1-0.8-0.2l-0.1-0.2l0.1-0.4l0.2-0.1
			c0.2,0.1,0.5,0.2,0.7,0.2c0.3,0,0.4-0.1,0.4-0.3c0-0.1,0-0.2,0-0.2c0,0-0.1-0.1-0.3-0.2l-0.2-0.1c0,0-0.1,0-0.1-0.1
			c0,0-0.1,0-0.1-0.1c0,0-0.1-0.1-0.1-0.1c0,0-0.1-0.1-0.1-0.1c0-0.1,0-0.1,0-0.2c0-0.1,0-0.1,0-0.2c0.1-0.3,0.2-0.5,0.4-0.6
			c0.2-0.1,0.5-0.2,0.7-0.2c0.3,0,0.6,0.1,0.8,0.2l0,0.2l-0.3,0.3l-0.2,0c-0.1-0.1-0.2-0.1-0.4-0.1c-0.2,0-0.3,0.1-0.3,0.2
			c0,0.1,0,0.1,0,0.1c0,0,0.1,0.1,0.2,0.1l0.3,0.1c0.1,0.1,0.2,0.1,0.3,0.2c0.1,0,0.1,0.1,0.2,0.3c0.1,0.1,0.1,0.3,0,0.4
			C133.6,43.5,133.4,43.7,133.2,43.9z"/>
	</g>
</g>
</svg>
