<?xml version="1.0" encoding="utf-8"?>
<!-- Generator: Adobe Illustrator 28.3.0, SVG Export Plug-In . SVG Version: 6.00 Build 0)  -->
<svg version="1.1" id="Layer_1" xmlns="http://www.w3.org/2000/svg" xmlns:xlink="http://www.w3.org/1999/xlink" x="0px" y="0px"
	 viewBox="0 0 173 62.2" style="enable-background:new 0 0 173 62.2;" xml:space="preserve">
<style type="text/css">
	.st0{fill:#FFFFFF;}
	.st1{fill:#231F20;}
</style>
<g>
	<g>
		<g>
			<g>
				<path class="st0" d="M17.3,59.3c-2.3,0-4-0.6-5-1.7s-1.5-2.7-1.5-4.8V30.7c0-1.5,0.4-2.9,1.3-3.8c1.1-1.1,2.3-1.7,4-1.7h11.8
					c1.1,0,1.7,0.8,1.7,1.7v5.7c0,0.4-0.2,0.8-0.4,1.3c-0.4,0.4-0.8,0.4-1.3,0.4h-7.6v16l0,0V39.9c0-1.1,0.8-1.7,1.7-1.7h5.9
					c1.1,0,1.7,0.8,1.7,1.7v17.7c0,1.1-0.8,1.7-1.7,1.7C27.8,59.3,17.3,59.3,17.3,59.3z"/>
				<path class="st1" d="M28.1,26.9v5.7h-8.8c-0.4,0-0.6,0.2-0.6,0.6v18.3c0,0.4,0.2,0.6,0.6,0.6h2.9V39.9h5.9v17.7H17.3
					c-1.7,0-2.9-0.4-3.8-1.1c-0.6-0.6-1.1-1.9-1.1-3.6V30.7c0-1.1,0.2-2.1,0.8-2.7c0.6-0.6,1.5-1.1,2.7-1.1H28.1 M28.1,23.5H16.3
					c-2.7,0-4.4,1.3-5.3,2.1c-0.8,0.8-1.9,2.5-1.9,5v22.1c0,2.5,0.6,4.6,2.1,6.1c1.5,1.5,3.6,2.1,6.3,2.1h10.7
					c1.9,0,3.6-1.5,3.6-3.6V39.7c0-1.9-1.5-3.6-3.6-3.6h-5.9l0,0v-0.2h5.9c0.8,0,1.9-0.4,2.5-1.1c0.6-0.6,1.1-1.5,1.1-2.5v-5.7
					C31.4,25,30,23.5,28.1,23.5L28.1,23.5z"/>
			</g>
			<g>
				<path class="st0" d="M36.7,59.3c-1.1,0-2.1-0.2-2.7-0.4c-0.8-0.4-1.5-0.8-1.9-1.5c-0.4-0.6-0.8-1.3-1.1-2.1
					c-0.2-0.6-0.2-1.5-0.2-2.1V32.8c0-0.6,0.4-1.3,1.1-1.7l12.4-5.9c0.2-0.2,0.4-0.2,0.8-0.2c0,0,0,0,0.2,0c1.7,0.2,2.7,0.6,3.8,1.7
					c1.1,1.1,1.5,2.5,1.5,4v22.3c0,0.8,0,1.5-0.2,2.1c-0.2,0.8-0.6,1.5-1.1,2.1c-0.4,0.6-1.3,1.1-1.9,1.5C46.6,59,45.7,59,44.7,59
					h-8V59.3z M40,50.4V34l0,0V50.4L40,50.4z"/>
				<path class="st1" d="M44.7,26.9c1.1,0,1.9,0.4,2.5,1.1c0.6,0.6,1.1,1.7,1.1,2.9v22.3c0,0.6,0,1.1-0.2,1.7
					c-0.2,0.4-0.4,1.1-0.6,1.5c-0.4,0.4-0.8,0.6-1.3,1.1c-0.6,0.2-1.3,0.4-2.1,0.4h-7.1c-0.8,0-1.5-0.2-2.1-0.4
					c-0.6-0.2-1.1-0.6-1.3-1.1c-0.4-0.4-0.6-0.8-0.6-1.5c-0.2-0.4-0.2-1.1-0.2-1.7V32.8L44.7,26.9 M39,52.1h2.3c0.2,0,0.4,0,0.4-0.2
					c0,0,0.2-0.2,0.2-0.4V32.8c0-0.4-0.2-0.6-0.6-0.6H39c-0.4,0-0.6,0.2-0.6,0.6v18.7c0,0.2,0,0.4,0.2,0.4
					C38.6,52.1,38.6,52.1,39,52.1 M44.7,23.5c-0.4,0-1.1,0.2-1.5,0.4l-12.4,5.9c-1.3,0.6-2.1,1.9-2.1,3.2v20.4
					c0,0.8,0.2,1.7,0.4,2.5c0.2,1.1,0.8,1.9,1.5,2.7c0.6,0.8,1.5,1.5,2.7,1.9c1.1,0.4,2.1,0.6,3.6,0.6H44c1.3,0,2.5-0.2,3.4-0.6
					c1.1-0.4,1.9-1.1,2.7-1.9c0.6-0.8,1.3-1.7,1.5-2.7c0.2-0.8,0.4-1.7,0.4-2.5V30.9c0-2.5-1.1-4.2-1.9-5.3
					c-1.3-1.3-2.7-2.1-4.8-2.1C44.9,23.5,44.7,23.5,44.7,23.5L44.7,23.5z"/>
			</g>
			<g>
				<path class="st0" d="M61.3,59.3c-0.6,0-1.5-0.4-1.7-1.1c-0.2,0.6-0.8,1.1-1.7,1.1h-5.7c-1.1,0-1.7-0.8-1.7-1.7V26.9
					c0-1.1,0.8-1.7,1.7-1.7h5.7c0.6,0,1.3,0.4,1.5,1.1c0.2-0.6,0.8-1.1,1.5-1.1h6.3c1.1,0,1.7,0.8,1.7,1.7v30.7
					c0,1.1-0.8,1.7-1.7,1.7C67.2,59.3,61.3,59.3,61.3,59.3z"/>
				<path class="st1" d="M67.6,26.9v30.7h-6.3l-3.4-12.8v12.8h-5.7V26.9h5.7l3.2,12.2V26.9H67.6 M67.6,23.5h-6.3
					c-0.6,0-1.1,0.2-1.5,0.4c-0.4-0.2-1.1-0.4-1.5-0.4h-5.7c-1.9,0-3.6,1.5-3.6,3.6v30.7c0,1.9,1.5,3.6,3.6,3.6h5.7
					c0.6,0,1.1-0.2,1.7-0.4c0.4,0.2,1.1,0.4,1.7,0.4H68c1.9,0,3.6-1.5,3.6-3.6V26.9C71,25,69.5,23.5,67.6,23.5L67.6,23.5z"/>
			</g>
			<g>
				<path class="st0" d="M71,59.3c-0.6,0-1.1-0.2-1.5-0.6c-0.4-0.4-0.4-1.1-0.2-1.5l6.3-22.7h-4c-0.4,0-1.1-0.2-1.3-0.6
					c-0.2-0.4-0.8-1.1-0.6-1.7l1.1-5.7c0.2-0.8,0.8-1.5,1.7-1.5h13.2c0.6,0,1.1,0.2,1.5,0.6c0.4,0.4,0.4,1.1,0.2,1.5l-6.1,22.7h3.6
					c0.4,0,1.1,0.2,1.3,0.6c0.4,0.4,0.4,0.8,0.4,1.5l-1.1,5.7c-0.2,0.8-0.8,1.5-1.7,1.5H71V59.3z"/>
				<path class="st1" d="M85.7,26.9l-6.5,25h5.7l-1.1,5.7h-13l6.9-25h-6.3l1.1-5.7H85.7 M84.8,51.9L84.8,51.9 M85.7,23.5H72.4
					c-1.7,0-3.2,1.3-3.4,2.9L68,32.1c-0.2,1.1,0,2.1,0.8,2.9c0.6,0.8,1.7,1.3,2.7,1.3h1.9l-5.7,20.6c-0.2,1.1,0,2.1,0.6,2.9
					c0.6,0.8,1.7,1.5,2.7,1.5h13c1.7,0,3.2-1.3,3.4-2.9l1.1-5.5c0-0.2,0-0.6,0-0.8c0-1.9-1.5-3.6-3.6-3.6l0,0h-1.3l5.5-20.6
					c0.2-1.1,0-2.1-0.6-2.9C87.8,23.9,86.7,23.5,85.7,23.5L85.7,23.5z M85.7,30.4L85.7,30.4L85.7,30.4L85.7,30.4z"/>
			</g>
			<g>
				<path class="st0" d="M99.1,59.3c-0.8,0-1.7-0.6-1.7-1.5L97,55.5H96l-0.4,2.3c-0.2,0.8-0.8,1.5-1.7,1.5h-6.3
					c-0.4,0-1.1-0.2-1.3-0.6c-0.2-0.4-0.4-0.8-0.4-1.5l5.5-30.7c0.2-0.8,0.8-1.5,1.7-1.5h6.5c0.8,0,1.5,0.6,1.7,1.5l5.5,30.7
					c0,0.4,0,1.1-0.4,1.5s-0.8,0.6-1.3,0.6H99.1z"/>
				<path class="st1" d="M100,26.9l5.5,30.7h-6.3l-0.4-3.8h-4.2l-0.6,3.8h-6.3L93,26.9L100,26.9 M95.1,48.9h2.7L96.4,38L95.1,48.9
					 M100,23.5h-6.5c-1.7,0-3.2,1.3-3.4,2.9l-5.5,30.7c-0.2,1.1,0,2.1,0.8,2.9c0.6,0.8,1.7,1.3,2.7,1.3h6.3c1.1,0,1.9-0.4,2.5-1.1
					c0.6,0.6,1.5,1.1,2.5,1.1h6.3c1.1,0,2.1-0.4,2.7-1.3c0.6-0.8,0.8-1.9,0.8-2.9L104,26.5C102.9,24.6,101.6,23.5,100,23.5L100,23.5
					z"/>
			</g>
			<g>
				<path class="st0" d="M108.8,59.3c-1.1,0-1.7-0.8-1.7-1.7V26.9c0-1.1,0.8-1.7,1.7-1.7h6.3c1.1,0,1.7,0.8,1.7,1.7v23.3h4.4
					c0.4,0,1.1,0.2,1.3,0.6c0.4,0.4,0.4,0.8,0.4,1.5l-1.1,5.7c-0.2,0.8-0.8,1.5-1.7,1.5h-11.4V59.3z"/>
				<path class="st1" d="M115.1,26.9v25h6.1l-1.1,5.7h-11.4V26.9H115.1 M121.2,51.9L121.2,51.9 M115.1,23.5h-6.3
					c-1.9,0-3.6,1.5-3.6,3.6v30.7c0,1.9,1.5,3.6,3.6,3.6h11.4c1.7,0,3.2-1.3,3.4-2.9l1.1-5.5c0-0.2,0-0.6,0-0.8
					c0-1.9-1.5-3.6-3.6-3.6l0,0h-2.5V26.9C118.7,25,117,23.5,115.1,23.5L115.1,23.5z"/>
			</g>
			<g>
				<path class="st0" d="M124.8,59.3c-1.1,0-1.7-0.8-1.7-1.7V26.9c0-1.1,0.8-1.7,1.7-1.7h12c0.8,0,1.5,0.6,1.7,1.5l1.1,5.7
					c0,0.4,0,1.1-0.4,1.5c-0.4,0.4-0.8,0.6-1.3,0.6H133v3.8h3.4c1.1,0,1.7,0.8,1.7,1.7v5.5c0,1.1-0.8,1.7-1.7,1.7H133v3.4h4.6
					c0.4,0,1.1,0.2,1.3,0.6c0.4,0.4,0.4,0.8,0.4,1.5l-1.1,5.7c-0.2,0.8-0.8,1.5-1.7,1.5h-11.8V59.3z"/>
				<path class="st1" d="M136.8,26.9l1.1,5.7h-6.7v7.1h5v5.5h-5v6.7h6.5l-1.1,5.7h-11.8V26.9H136.8 M137.4,51.9L137.4,51.9
					 M136.8,23.5h-12c-1.9,0-3.6,1.5-3.6,3.6v30.7c0,1.9,1.5,3.6,3.6,3.6h11.8c1.7,0,3.2-1.3,3.4-2.9l1.1-5.5c0-0.2,0-0.6,0-0.8
					c0-1.9-1.5-3.6-3.6-3.6l0,0l0,0c1.3-0.4,2.3-1.7,2.3-3.4v-5.5c0-1.9-1.5-3.6-3.6-3.6h-1.7v-0.2h3.2c1.1,0,2.1-0.4,2.7-1.3
					c0.6-0.8,0.8-1.9,0.8-2.9l-1.1-5.7C139.7,24.6,138.4,23.5,136.8,23.5L136.8,23.5z"/>
			</g>
			<g>
				<path class="st0" d="M140.8,59.3c-0.6,0-1.1-0.2-1.5-0.6s-0.4-1.1-0.2-1.5l6.3-22.7h-4c-0.4,0-1.1-0.2-1.3-0.6
					c-0.4-0.4-0.4-0.8-0.4-1.5l0.6-3.2c0-0.2,0-0.2,0-0.4l0.4-1.7c0.2-0.8,0.8-1.5,1.7-1.5h3.8c0.2,0,0.6,0,0.8,0.2l8.2,4.8
					c0.6,0.4,1.1,1.3,0.8,1.9l-0.6,2.1l-4.2,15.8h3.6c0.4,0,1.1,0.2,1.3,0.6c0.4,0.4,0.4,0.8,0.4,1.5l-1.1,5.7
					c-0.2,0.8-0.8,1.5-1.7,1.5h-13V59.3z"/>
				<path class="st1" d="M146,27.1l0.6,0.4l7.6,4.4l-0.4,1.7l-0.2,0.4l-4.8,17.9h5.7l-1.1,5.7h-13l6.9-25H141l0.6-3.2l0,0l0.2-1.1
					l0.2-1.1l0,0h4 M146,23.7h-3.8c-1.7,0-3.2,1.3-3.4,2.7v0.2l-0.2,1.1l-0.2,0.6c0,0.2,0,0.2-0.2,0.4l-0.6,3.2
					c-0.2,1.1,0,2.1,0.8,2.9c0.6,0.8,1.7,1.3,2.7,1.3h1.9l-5.7,20.6c-0.2,1.1,0,2.1,0.6,2.9s1.7,1.5,2.7,1.5h13
					c1.7,0,3.2-1.3,3.4-2.9l1.1-5.7c0.2-1.1,0-2.1-0.8-2.9c-0.6-0.8-1.7-1.3-2.7-1.3h-1.3l3.6-13.5l0.2-0.4l0.4-1.7
					c0.4-1.5-0.2-3.2-1.7-4l-7.6-4.4l-0.6-0.4C147.3,23.7,146.6,23.7,146,23.7L146,23.7z"/>
			</g>
			<g>
				<path class="st0" d="M154.4,32.5c-0.2,0-0.6,0-0.8-0.2l-8.2-4.8c-0.6-0.4-1.1-1.3-0.8-1.9c0.2-0.8,0.8-1.3,1.7-1.3h9.5
					c0.6,0,1.1,0.2,1.5,0.6s0.4,1.1,0.2,1.5l-1.3,4.8c-0.2,0.6-0.4,1.1-1.1,1.3C155.1,32.5,154.8,32.5,154.4,32.5z"/>
				<path class="st1" d="M155.7,26l-1.3,4.8l-7.6-4.4l-0.6-0.4H155.7 M155.7,22.5h-9.5c-1.5,0-2.9,1.1-3.4,2.5
					c-0.4,1.5,0.2,3.2,1.7,4l0.6,0.4l7.6,4.4c0.6,0.4,1.1,0.4,1.7,0.4c0.4,0,0.8,0,1.3-0.2c1.1-0.4,1.7-1.3,2.1-2.3l1.3-4.8
					c0.2-1.1,0-2.1-0.6-2.9C157.8,23.1,156.9,22.5,155.7,22.5L155.7,22.5z M155.7,29.4L155.7,29.4L155.7,29.4L155.7,29.4z"/>
			</g>
		</g>
		<g>
			<g>
				<rect x="88.1" y="13.4" class="st0" width="3.4" height="3.4"/>
			</g>
			<g>
				<rect x="92.8" y="13.4" class="st0" width="3.4" height="3.4"/>
			</g>
			<g>
				<rect x="88.1" y="17.7" class="st0" width="3.4" height="3.4"/>
			</g>
			<g>
				<rect x="92.8" y="17.7" class="st0" width="3.4" height="3.4"/>
			</g>
		</g>
		<g>
			<polygon class="st0" points="163.4,32.1 162.9,32.9 158,31 149.7,28.3 145.4,26.7 144.1,26.4 143.4,26.1 90.3,7.8 39.4,25.9 
				25.5,30.9 11.6,36 25.5,29.5 33.3,25.9 90.7,-0.6 149.7,25.9 150.4,26.2 158.4,29.8 			"/>
		</g>
	</g>
</g>
<g>
	<g>
		<path class="st0" d="M9.2,75.2L9,74.7l2.5-11.9l0.5-0.5h3.5c0.7,0,1.4,0,1.9,0.2c0.7,0.2,1.4,0.7,1.6,1.4c0.5,0.7,0.5,1.4,0.2,2.3
			c-0.2,0.7-0.5,1.4-1.2,2.1c-0.5,0.7-1.4,1.2-2.3,1.4c0.7,0.5,1.4,2.1,2.1,4.9l-0.2,0.5h-1.9L15.2,75c-0.5-1.9-0.9-3.3-1.4-4
			c-0.2-0.5-0.5-0.7-0.9-0.7H12L11,75l-0.2,0.2H9.2z M12.7,68.2h1.6c0.5,0,0.9,0,1.4-0.2c0.7-0.2,1.2-0.9,1.4-1.6s0-1.4-0.7-1.6
			c-0.2-0.2-0.7-0.2-1.2-0.2h-1.9L12.7,68.2z"/>
	</g>
	<g>
		<path class="st0" d="M23.3,75.4c-1.2,0-2.1-0.5-2.8-1.2c-0.7-0.9-0.9-1.9-0.7-3c0.2-1.2,0.9-2.1,1.6-3c0.9-0.7,1.9-1.2,3-1.2
			c1.2,0,2.1,0.5,2.8,1.2c0.7,0.9,0.9,1.9,0.7,3c-0.2,1.2-0.9,2.3-1.6,3C25.6,75.2,24.5,75.4,23.3,75.4z M23.5,73.6
			c1.2,0,2.1-0.7,2.3-2.3c0-0.5,0-0.9,0-1.2c0-0.5,0-0.7-0.5-0.9c-0.2-0.2-0.7-0.2-1.2-0.2c-1.2,0-1.9,0.7-2.3,2.3
			C21.9,72.9,22.4,73.6,23.5,73.6z"/>
	</g>
	<g>
		<path class="st0" d="M33,75.4c-1.2,0-2.1-0.5-2.8-1.2c-0.7-0.9-0.9-1.9-0.7-3c0.2-1.2,0.9-2.1,1.6-3c0.9-0.7,1.9-1.2,3-1.2
			c1.2,0,2.1,0.5,2.8,1.2c0.7,0.9,0.9,1.9,0.7,3c-0.2,1.2-0.9,2.3-1.6,3C35.3,75.2,34.2,75.4,33,75.4z M33.3,73.6
			c1.2,0,2.1-0.7,2.3-2.3c0-0.5,0-0.9,0-1.2c0-0.5,0-0.7-0.5-0.9c-0.2-0.2-0.7-0.2-1.2-0.2c-1.2,0-1.9,0.7-2.3,2.3
			C31.6,72.9,32.1,73.6,33.3,73.6z"/>
	</g>
	<g>
		<path class="st0" d="M40,68.9l-0.2-0.5l0.2-1.2l0.5-0.5h0.9l0.5-1.9c0.2-0.9,0.5-1.6,0.5-1.9c0.2-0.5,0.7-0.9,1.2-1.4
			c0.7-0.2,1.4-0.5,2.1-0.5c0.2,0,0.7,0,1.4,0.2l0.2,0.5l-0.2,1.2l-0.5,0.5c-0.5,0-0.7-0.2-1.2-0.2s-0.9,0.2-1.2,0.7
			c-0.2,0.2-0.2,0.9-0.5,1.6l-0.2,1.6h4.6l0.2,0.5L46.7,75l-0.2,0.2h-1.4l-0.2-0.5l1.2-5.8h-3l-1.2,5.8l-0.5,0.5H40l-0.2-0.5
			l1.2-5.8H40z M46.9,64.3c0-0.2,0.2-0.5,0.5-0.7c0.2-0.2,0.5-0.2,0.9-0.2s0.5,0,0.7,0.2c0.2,0.2,0.2,0.5,0.2,0.7S49,65,48.8,65
			c-0.2,0.2-0.5,0.2-0.9,0.2c-0.2,0-0.5,0-0.7-0.2C46.9,65,46.9,64.7,46.9,64.3z"/>
	</g>
	<g>
		<path class="st0" d="M51.1,67.5l0.5-0.5h1.2l0.2,0.2V68c0.9-0.7,1.6-1.2,2.5-1.2c0.7,0,1.4,0.2,1.9,0.7c0.5,0.5,0.5,1.2,0.5,2.1
			c0,0.2-0.2,0.7-0.2,1.4l-0.7,3.5l-0.9,0.7h-1.4l-0.2-0.5l0.7-3.5c0.2-0.5,0.2-0.9,0.2-1.2c0-0.9-0.2-1.2-0.9-1.2
			c-0.5,0-1.2,0.2-1.6,0.9l-1.2,5.3h-0.5h-1.4l-0.2-0.5L51.1,67.5z"/>
	</g>
	<g>
		<path class="st0" d="M59.6,74c-0.7-0.9-0.7-1.9-0.5-3c0.2-1.2,0.7-2.1,1.6-3c0.9-0.7,1.9-1.2,2.8-1.2c0.9,0,1.9,0.5,2.3,1.2
			l0.2-0.7l0.5-0.5h1.2l0.2,0.5l-1.6,8.1c-0.2,1.2-0.9,2.3-1.9,3c-0.9,0.7-2.1,1.2-3.2,1.2c-0.9,0-1.9-0.2-2.5-0.5l-0.2-0.5l0.2-1.2
			l0.5-0.2c0.7,0.2,1.4,0.5,2.3,0.5c0.7,0,1.4-0.2,1.9-0.7c0.5-0.5,0.7-0.9,0.9-1.6l0.2-1.2c-0.7,0.5-1.2,0.9-2.1,0.9
			C61,75.4,60.3,75,59.6,74z M61.5,71.2c-0.2,1.6,0,2.3,1.4,2.3c0.7,0,1.2-0.2,1.9-0.9l0.7-3c-0.2-0.5-0.9-0.9-1.4-0.9
			C62.6,68.9,61.7,69.6,61.5,71.2z"/>
	</g>
	<g>
		<path class="st0" d="M76.5,75.7c-1.2,0-2.1-0.5-2.8-1.2c-0.7-0.7-0.9-1.6-0.9-2.8c0.2-0.5,0.2-1.2,0.7-1.6
			c0.2-0.5,0.7-0.9,1.2-1.2c0.5-0.2,0.7-0.7,1.2-0.9c0.5-0.2,0.7-0.5,0.9-0.5c0-0.2-0.2-0.2-0.2-0.5c0,0,0-0.2-0.2-0.5
			c0-0.2-0.2-0.5-0.2-0.5c0-0.2,0-0.2,0-0.5s0-0.5,0-0.7c0.2-0.7,0.5-1.4,1.2-1.9c0.7-0.5,1.4-0.7,2.5-0.7c0.5,0,0.9,0,1.2,0
			l0.2,0.5L80.9,64l-0.5,0.2c-0.5,0-0.7,0-0.9,0c-0.7,0-1.2,0.2-1.4,0.9c0,0.2,0.2,0.9,0.7,1.9l1.9,4c0.7-0.7,1.2-1.4,1.6-2.3h-0.7
			l-0.2-0.5l0.2-1.2l0.5-0.5h3.7l0.2,0.5l-0.2,1.2l-0.5,0.5h-0.7c-0.9,1.6-2.1,3-3,4.2l1.2,2.3l-0.2,0.5h-1.9l-0.5-0.5l-0.5-0.7
			C79.1,75.2,77.9,75.7,76.5,75.7z M76.8,73.6c0.9,0,1.6-0.2,2.3-0.9l-1.6-3.3h-0.2c-0.2,0-0.2,0-0.2,0h-0.2c-0.2,0-0.2,0-0.2,0.2
			c0,0-0.2,0-0.2,0.2c-0.2,0-0.2,0.2-0.2,0.2l-0.2,0.2l-0.2,0.2c0,0,0,0.2-0.2,0.5c0,0.2,0,0.2,0,0.5c-0.2,0.7,0,1.2,0.2,1.6
			C75.8,73.6,76.3,73.6,76.8,73.6z"/>
	</g>
	<g>
		<path class="st0" d="M93,62.9l0.5-0.5h6.5l0.2,0.5L99.7,64l-0.5,0.2h-4.4l-0.7,3.3h4.2l0.2,0.5l-0.2,1.2l-0.5,0.5h-4.2l-0.9,4h4.6
			l0.2,0.5l-0.2,1.2v0h-6.5l-0.2-0.5L93,62.9z"/>
	</g>
	<g>
		<path class="st0" d="M99.2,74.7l3.2-3.7l-1.4-3.3l0.2-0.5h1.6l0.5,0.2l0.7,1.9l1.4-1.9l0.5-0.2h1.6l0.2,0.5L105,71l1.6,3.7l0,0.5
			H105l-0.5-0.2l-0.9-2.3l-1.9,2.3l-0.7,0.2h-1.6L99.2,74.7z"/>
	</g>
	<g>
		<path class="st0" d="M109.6,67.5l0.5-0.5h0.5l1.2-2.6l0.5-0.2h0.9l0.2,0.5l-0.5,2.6h1.4l0.2,0.5l-0.5,1.2l-0.5,0.2h-1.2l-0.5,2.3
			c-0.2,0.7-0.2,1.4-0.2,1.6c0,0.5,0.2,0.7,0.9,0.7c0.2,0,0.7,0,1.2-0.2l0.5,0.2L114,75h-0.7c-0.5,0.2-0.9,0.2-1.2,0.2
			c-0.9,0-1.6-0.2-2.1-0.5c-0.5-0.2-0.7-0.7-0.7-1.2c0-0.5,0-1.2,0.2-2.1l0.5-2.6h-0.5l-0.2-0.5L109.6,67.5z"/>
	</g>
	<g>
		<path class="st0" d="M119.1,75.4c-1.4,0-2.3-0.5-3-1.2s-0.9-1.9-0.7-3c0.2-1.2,0.9-2.3,1.6-3c0.9-0.7,1.9-1.2,3-1.2
			s2.1,0.5,2.8,1.2c0.5,0.9,0.7,1.9,0.5,3.3l-0.5,0.2h-5.3c0,0.7,0,1.2,0.2,1.4c0.2,0.2,0.7,0.5,1.4,0.5c0.7,0,1.6-0.2,2.5-0.5
			l0.2,0.2l-0.2,0.9l-0.2,0.9C120.7,75.4,119.8,75.4,119.1,75.4z M117.9,70.5h3.5v-0.2c0-0.5,0-0.9-0.2-1.2
			c-0.2-0.2-0.7-0.5-0.9-0.5c-0.5,0-0.9,0.2-1.2,0.5C118.4,69.6,117.9,70.1,117.9,70.5z"/>
	</g>
	<g>
		<path class="st0" d="M126,67.5l0.5-0.5h1.2l0.2,0.2V68c0.5-0.7,1.4-1.2,2.3-1.2c0.7,0,1.2,0.2,1.4,0.5v0.5l-1.2,0.9H130
			c-0.2-0.2-0.5-0.2-0.7-0.2c-0.5,0-0.7,0.2-0.9,0.5s-0.5,0.7-0.7,1.2l-0.9,4.6l-0.5,0.5h-1.4l-0.2-0.5L126,67.5z"/>
	</g>
	<g>
		<path class="st0" d="M133,67.5l0.5-0.5h1.4l0.2,0.5l-1.6,7.2l-0.2,0.5h-1.4l-0.2-0.5L133,67.5z M135.5,65.2
			c-0.2,0.2-0.7,0.5-0.9,0.5c-0.2,0-0.7-0.2-0.7-0.5c-0.2-0.2-0.2-0.5-0.2-0.9c0-0.2,0.2-0.7,0.5-0.9c0.2-0.2,0.7-0.5,0.9-0.5
			s0.7,0.2,0.7,0.5c0.2,0.2,0.2,0.5,0.2,0.9C136,64.7,135.8,65,135.5,65.2z"/>
	</g>
	<g>
		<path class="st0" d="M139.7,75.4c-1.2,0-2.1-0.5-2.8-1.2c-0.7-0.9-0.9-1.9-0.7-3c0.2-1.2,0.9-2.1,1.6-3c0.9-0.7,1.9-1.2,3-1.2
			s2.1,0.5,2.8,1.2c0.7,0.9,0.9,1.9,0.7,3c-0.2,1.2-0.9,2.3-1.6,3C142,75.2,140.8,75.4,139.7,75.4z M139.9,73.6
			c1.2,0,2.1-0.7,2.3-2.3c0-0.5,0-0.9,0-1.2c0-0.5,0-0.7-0.5-0.9c-0.2-0.2-0.7-0.2-1.2-0.2c-1.2,0-1.9,0.7-2.3,2.3
			C138.3,72.9,138.8,73.6,139.9,73.6z"/>
	</g>
	<g>
		<path class="st0" d="M147.3,67.5l0.5-0.5h1.2l0.2,0.2V68c0.5-0.7,1.4-1.2,2.3-1.2c0.7,0,1.2,0.2,1.4,0.5v0.5l-1.2,0.9h-0.5
			c-0.2-0.2-0.5-0.2-0.7-0.2c-0.5,0-0.7,0.2-0.9,0.5c-0.2,0.2-0.5,0.7-0.7,1.2l-0.9,4.6l-0.5,0.5h-1.4l-0.2-0.5L147.3,67.5z"/>
	</g>
	<g>
		<path class="st0" d="M157.3,74.7c-0.7,0.5-1.4,0.7-2.3,0.7s-1.6-0.2-2.3-0.5l-0.2-0.5l0.2-1.2l0.5-0.2c0.7,0.2,1.4,0.5,2.1,0.5
			c0.7,0,1.2-0.2,1.2-0.7c0-0.2,0-0.5,0-0.5c-0.2-0.2-0.5-0.2-0.7-0.5l-0.7-0.2c-0.2,0-0.2-0.2-0.5-0.2c0,0-0.2-0.2-0.5-0.2
			s-0.2-0.2-0.2-0.2s-0.2-0.2-0.2-0.5c0-0.2-0.2-0.2,0-0.5c0-0.2,0-0.5,0-0.7c0.2-0.7,0.5-1.4,1.2-1.6c0.7-0.5,1.4-0.7,2.1-0.7
			c0.9,0,1.6,0.2,2.3,0.7v0.5l-0.7,0.7H158c-0.2-0.2-0.7-0.2-1.2-0.2c-0.5,0-0.7,0.2-0.9,0.7c0,0.2,0,0.2,0,0.5c0,0,0.2,0.2,0.5,0.2
			l0.9,0.5c0.2,0.2,0.7,0.2,0.7,0.5c0.2,0.2,0.5,0.5,0.5,0.7c0.2,0.5,0.2,0.7,0,1.2C158.2,73.8,158,74.5,157.3,74.7z"/>
	</g>
</g>
</svg>
