<?xml version="1.0" encoding="utf-8"?>
<!-- Generator: Adobe Illustrator 26.3.0, SVG Export Plug-In . SVG Version: 6.00 Build 0)  -->
<svg version="1.1" id="Capa_1" xmlns="http://www.w3.org/2000/svg" xmlns:xlink="http://www.w3.org/1999/xlink" x="0px" y="0px"
	 viewBox="0 0 173 51" style="enable-background:new 0 0 173 51;" xml:space="preserve">
<style type="text/css">
	.st0{fill:#FFFFFF;}
</style>
<g>
	<path class="st0" d="M83.2,9.3H84V7.2l4.6-2.3v8.4l6.5,3.8l0.3-10.8l-6.1-3.5l-6.2,3.3C83.1,6.1,83.1,9.3,83.2,9.3z"/>
	<g>
		<g>
			<g>
				<path class="st0" d="M58,27.6c0-0.4,0.1-0.8,0.4-1.1c0.2-0.3,0.6-0.4,1.1-0.4h4.6l0,2.2h-3.4c-0.1,0-0.2,0.1-0.2,0.2v7.1
					c0,0.2,0.1,0.2,0.2,0.2h1.1v-4.7h2.3v6.9h-4.2c-0.7,0-1.2-0.1-1.4-0.4c-0.3-0.3-0.4-0.8-0.4-1.4V27.6z"/>
			</g>
			<g>
				<path class="st0" d="M71.5,26.6c-0.2-0.2-0.6-0.4-1-0.4l-4.8,2.3v8c0,0.2,0,0.4,0.1,0.7c0.1,0.2,0.1,0.4,0.3,0.5
					c0.1,0.2,0.3,0.3,0.5,0.4c0.2,0.1,0.5,0.1,0.8,0.1h2.8c0.3,0,0.6,0,0.8-0.1c0.2-0.1,0.4-0.2,0.5-0.4c0.1-0.2,0.2-0.3,0.3-0.5
					c0.1-0.2,0.1-0.4,0.1-0.7v-8.7C71.8,27.2,71.7,26.9,71.5,26.6z M69.4,35.8c0,0.1,0,0.2,0,0.2c0,0-0.1,0.1-0.2,0.1h-0.9
					c-0.1,0-0.2,0-0.2-0.1c0,0,0-0.1,0-0.2v-7.3c0-0.2,0.1-0.2,0.2-0.2h0.9c0.1,0,0.2,0.1,0.2,0.2V35.8z"/>
			</g>
			<g>
				<path class="st0" d="M73.5,26.2h2.3L77,31v-4.8h2.5v11.9H77l-1.3-5v5h-2.2V26.2z"/>
			</g>
			<g>
				<path class="st0" d="M84,35.9h2.2l-0.4,2.2h-5l2.7-9.7H81l0.4-2.2h5.2L84,35.9z"/>
			</g>
			<g>
				<path class="st0" d="M90,36.6l-0.2,1.5h-2.4l2.2-11.9h2.6l2.2,11.9h-2.4l-0.2-1.5H90z M90.2,34.7h1.1l-0.5-4.2L90.2,34.7z"/>
			</g>
			<g>
				<path class="st0" d="M95.6,26.2H98v9.7h2.4l-0.4,2.2h-4.4V26.2z"/>
			</g>
			<g>
				<path class="st0" d="M101.8,26.2h4.6l0.4,2.2h-2.6v2.8h2v2.1h-2v2.6h2.5l-0.4,2.2h-4.5V26.2z"/>
			</g>
			<g>
				<polygon class="st0" points="113.4,35.9 113,38.1 108,38.1 110.7,28.4 108.2,28.4 108.4,27.2 108.4,27.2 108.5,26.7 108.6,26.3 
					108.6,26.3 110.1,26.3 110.3,26.5 113.3,28.2 113.1,28.8 113.1,29 111.2,35.9 				"/>
			</g>
			<g>
				<polygon class="st0" points="113.9,25.8 113.4,27.6 110.4,25.9 110.2,25.8 				"/>
			</g>
		</g>
		<g>
			<g>
				<path class="st0" d="M58,27.6c0-0.4,0.1-0.8,0.4-1.1c0.2-0.3,0.6-0.4,1.1-0.4h4.6l0,2.2h-3.4c-0.1,0-0.2,0.1-0.2,0.2v7.1
					c0,0.2,0.1,0.2,0.2,0.2h1.1v-4.7h2.3v6.9h-4.2c-0.7,0-1.2-0.1-1.4-0.4c-0.3-0.3-0.4-0.8-0.4-1.4V27.6z"/>
				<path class="st0" d="M64.1,26.2l0,2.2h-3.4c-0.1,0-0.2,0.1-0.2,0.2v7.1c0,0.2,0.1,0.2,0.2,0.2h1.1v-4.7h2.3v6.9h-4.2
					c-0.7,0-1.2-0.1-1.4-0.4c-0.3-0.3-0.4-0.8-0.4-1.4v-8.6c0-0.4,0.1-0.8,0.4-1.1c0.2-0.3,0.6-0.4,1.1-0.4H64.1 M64.2,26h-0.2h-4.6
					c-0.5,0-0.9,0.2-1.2,0.4c-0.3,0.3-0.4,0.7-0.4,1.2v8.6c0,0.7,0.2,1.2,0.5,1.5c0.3,0.3,0.8,0.5,1.6,0.5h4.2h0.2v-0.2v-6.9v-0.2
					h-0.2h-2.3h-0.2v0.2v4.6h-0.9c0,0,0,0,0,0c0,0,0,0,0-0.1v-7.1c0-0.1,0-0.1,0-0.1c0,0,0,0,0,0h3.4h0.2l0-0.2l0-2.2L64.2,26
					L64.2,26z"/>
			</g>
			<g>
				<path class="st0" d="M71.5,26.6c-0.2-0.2-0.6-0.4-1-0.4l-4.8,2.3v8c0,0.2,0,0.4,0.1,0.7c0.1,0.2,0.1,0.4,0.3,0.5
					c0.1,0.2,0.3,0.3,0.5,0.4c0.2,0.1,0.5,0.1,0.8,0.1h2.8c0.3,0,0.6,0,0.8-0.1c0.2-0.1,0.4-0.2,0.5-0.4c0.1-0.2,0.2-0.3,0.3-0.5
					c0.1-0.2,0.1-0.4,0.1-0.7v-8.7C71.8,27.2,71.7,26.9,71.5,26.6z M69.4,35.8c0,0.1,0,0.2,0,0.2c0,0-0.1,0.1-0.2,0.1h-0.9
					c-0.1,0-0.2,0-0.2-0.1c0,0,0-0.1,0-0.2v-7.3c0-0.2,0.1-0.2,0.2-0.2h0.9c0.1,0,0.2,0.1,0.2,0.2V35.8z"/>
				<path class="st0" d="M70.5,26.2c0.4,0,0.8,0.2,1,0.4c0.3,0.3,0.4,0.7,0.4,1.1v8.7c0,0.2,0,0.4-0.1,0.7c-0.1,0.2-0.1,0.4-0.3,0.5
					c-0.1,0.2-0.3,0.3-0.5,0.4c-0.2,0.1-0.5,0.1-0.8,0.1h-2.8c-0.3,0-0.6,0-0.8-0.1c-0.2-0.1-0.4-0.2-0.5-0.4
					c-0.1-0.2-0.2-0.3-0.3-0.5c-0.1-0.2-0.1-0.4-0.1-0.7v-8L70.5,26.2 M68.3,36h0.9c0.1,0,0.2,0,0.2-0.1c0,0,0-0.1,0-0.2v-7.3
					c0-0.2-0.1-0.2-0.2-0.2h-0.9c-0.1,0-0.2,0.1-0.2,0.2v7.3c0,0.1,0,0.2,0,0.2C68.1,36,68.2,36,68.3,36 M70.4,26L70.4,26l-4.8,2.3
					l-0.1,0v0.1v8c0,0.2,0,0.5,0.1,0.7c0.1,0.2,0.2,0.4,0.3,0.6c0.1,0.2,0.3,0.3,0.6,0.4c0.2,0.1,0.5,0.2,0.9,0.2h2.8
					c0.3,0,0.6-0.1,0.9-0.2c0.2-0.1,0.4-0.2,0.6-0.4c0.1-0.2,0.3-0.4,0.3-0.6c0.1-0.2,0.1-0.4,0.1-0.7v-8.7c0-0.5-0.1-0.9-0.4-1.2
					C71.3,26.2,71,26.1,70.4,26L70.4,26L70.4,26z M68.2,35.8C68.2,35.8,68.2,35.8,68.2,35.8l0-7.4c0,0,0-0.1,0-0.1c0,0,0,0,0,0h0.9
					c0,0,0,0,0,0c0,0,0,0,0,0.1v7.3c0,0,0,0.1,0,0.1c0,0,0,0-0.1,0L68.2,35.8C68.3,35.9,68.2,35.9,68.2,35.8L68.2,35.8z"/>
			</g>
			<g>
				<path class="st0" d="M73.5,26.2h2.3L77,31v-4.8h2.5v11.9H77l-1.3-5v5h-2.2V26.2z"/>
				<path class="st0" d="M79.4,26.2v11.9H77l-1.3-5v5h-2.2V26.2h2.3L77,31v-4.8H79.4 M79.6,26h-0.2H77h-0.2v0.2v3.5l-0.9-3.6l0-0.1
					h-0.1h-2.3h-0.2v0.2v11.9v0.2h0.2h2.2h0.2v-0.2v-3.7l1,3.8l0,0.1H77h2.5h0.2v-0.2V26.2V26L79.6,26z"/>
			</g>
			<g>
				<path class="st0" d="M84,35.9h2.2l-0.4,2.2h-5l2.7-9.7H81l0.4-2.2h5.2L84,35.9z"/>
				<path class="st0" d="M86.5,26.2L84,35.9h2.2l-0.4,2.2h-5l2.7-9.7H81l0.4-2.2H86.5 M86.7,26h-0.2h-5.2h-0.1l0,0.1l-0.4,2.2l0,0.2
					H81h2.3l-2.6,9.5l-0.1,0.2h0.2h5h0.1l0-0.1l0.4-2.2l0-0.2h-0.2h-2l2.5-9.5L86.7,26L86.7,26z"/>
			</g>
			<g>
				<path class="st0" d="M90,36.6l-0.2,1.5h-2.4l2.2-11.9h2.6l2.2,11.9h-2.4l-0.2-1.5H90z M90.2,34.7h1.1l-0.5-4.2L90.2,34.7z"/>
				<path class="st0" d="M92.1,26.2l2.2,11.9h-2.4l-0.2-1.5H90l-0.2,1.5h-2.4l2.2-11.9H92.1 M90.2,34.7h1.1l-0.5-4.2L90.2,34.7
					 M92.2,26h-0.1h-2.6h-0.1l0,0.1l-2.2,11.9l0,0.2h0.2h2.4h0.1l0-0.1l0.2-1.3h1.4l0.2,1.3l0,0.1h0.1h2.4h0.2l0-0.2l-2.2-11.9
					L92.2,26L92.2,26z M90.4,34.6l0.4-2.8l0.4,2.8H90.4L90.4,34.6z"/>
			</g>
			<g>
				<path class="st0" d="M95.6,26.2H98v9.7h2.4l-0.4,2.2h-4.4V26.2z"/>
				<path class="st0" d="M98,26.2v9.7h2.4l-0.4,2.2h-4.4V26.2H98 M98.2,26H98h-2.5h-0.2v0.2v11.9v0.2h0.2h4.4h0.1l0-0.1l0.4-2.2
					l0-0.2h-0.2h-2.2v-9.6V26L98.2,26z"/>
			</g>
			<g>
				<path class="st0" d="M101.8,26.2h4.6l0.4,2.2h-2.6v2.8h2v2.1h-2v2.6h2.5l-0.4,2.2h-4.5V26.2z"/>
				<path class="st0" d="M106.5,26.2l0.4,2.2h-2.6v2.8h2v2.1h-2v2.6h2.5l-0.4,2.2h-4.5V26.2H106.5 M106.6,26h-0.1h-4.6h-0.2v0.2
					v11.9v0.2h0.2h4.5h0.1l0-0.1l0.4-2.2l0-0.2h-0.2h-2.3v-2.3h1.8h0.2v-0.2v-2.1v-0.2h-0.2h-1.8v-2.5h2.4h0.2l0-0.2l-0.4-2.2
					L106.6,26L106.6,26z"/>
			</g>
			<g>
				<polygon class="st0" points="113.4,35.9 113,38.1 108,38.1 110.7,28.4 108.2,28.4 108.4,27.2 108.4,27.2 108.5,26.7 108.6,26.3 
					108.6,26.3 110.1,26.3 110.3,26.5 113.3,28.2 113.1,28.8 113.1,29 111.2,35.9 				"/>
				<path class="st0" d="M110.1,26.3l0.2,0.1l2.9,1.7l-0.2,0.6l0,0.2l-1.9,6.9h2.2l-0.4,2.2h-5l2.7-9.7h-2.5l0.2-1.2l0,0l0.1-0.4
					l0.1-0.4l0,0H110.1 M110.1,26.2L110.1,26.2h-1.5h-0.1l0,0.1l0,0l-0.1,0.4l0,0.2l0,0l0,0.2l-0.2,1.2l0,0.2h0.2h2.3l-2.6,9.5
					l-0.1,0.2h0.2h5h0.1l0-0.1l0.4-2.2l0-0.2h-0.2h-2l1.8-6.7l0-0.2l0.2-0.6l0-0.1l-0.1-0.1l-2.9-1.7L110.1,26.2L110.1,26.2
					L110.1,26.2z"/>
			</g>
			<g>
				<polygon class="st0" points="113.9,25.8 113.4,27.6 110.4,25.9 110.2,25.8 				"/>
				<path class="st0" d="M113.9,25.8l-0.5,1.9l-2.9-1.7l-0.2-0.1H113.9 M114.1,25.6h-0.2h-3.7h-0.6l0.5,0.3l0.2,0.1l2.9,1.7l0.2,0.1
					l0.1-0.2l0.5-1.9L114.1,25.6L114.1,25.6z"/>
			</g>
		</g>
		<g>
			<g>
				<path class="st0" d="M64.2,31.1v7.2h-4.3c-0.7,0-1.3-0.2-1.6-0.5c-0.3-0.3-0.5-0.8-0.5-1.5v-8.6c0-0.5,0.1-0.9,0.4-1.2
					c0.3-0.3,0.7-0.4,1.2-0.4h4.8l0,0.2l0,2.2l0,0.2h-3.6c0,0,0,0,0,0c0,0,0,0,0,0.1v7.1c0,0,0,0.1,0,0.1c0,0,0,0,0,0h0.9v-4.7H64.2
					z"/>
			</g>
			<g>
				<path class="st0" d="M71.6,26.5c-0.2-0.3-0.6-0.4-1.1-0.5l0,0l0,0l-4.8,2.3l-0.1,0v8.1c0,0.2,0,0.5,0.1,0.7
					c0.1,0.2,0.2,0.4,0.3,0.6c0.1,0.2,0.3,0.3,0.6,0.4c0.2,0.1,0.5,0.2,0.9,0.2h2.8c0.3,0,0.6-0.1,0.9-0.2c0.2-0.1,0.4-0.2,0.6-0.4
					c0.1-0.2,0.3-0.4,0.3-0.6c0.1-0.2,0.1-0.4,0.1-0.7v-8.7C72,27.2,71.9,26.8,71.6,26.5z M68.2,35.8v-7.3c0,0,0-0.1,0-0.1
					c0,0,0,0,0,0h0.9c0,0,0,0,0,0c0,0,0,0,0,0.1v7.3c0,0,0,0.1,0,0.1c0,0,0,0-0.1,0L68.2,35.8C68.3,35.9,68.2,35.9,68.2,35.8
					C68.2,35.8,68.2,35.8,68.2,35.8z"/>
			</g>
			<g>
				<polygon class="st0" points="79.6,26 79.6,38.3 76.9,38.3 76.8,38.1 75.9,34.4 75.9,38.3 73.3,38.3 73.3,26 75.9,26 75.9,26.1 
					76.8,29.7 76.8,26 				"/>
			</g>
			<g>
				<polygon class="st0" points="86.7,26.2 84.2,35.7 86.4,35.7 86.4,35.9 86,38.1 85.9,38.3 80.5,38.3 80.6,38.1 83.2,28.5 
					80.8,28.5 80.8,28.4 81.2,26.1 81.2,26 86.7,26 				"/>
			</g>
			<g>
				<path class="st0" d="M94.4,38.1l-2.2-11.9l0-0.1h-2.8l0,0.1l-2.2,11.9l0,0.2h2.7l0-0.1l0.2-1.3h1.4l0.2,1.3l0,0.1h2.7L94.4,38.1
					z M90.4,34.6l0.4-2.8l0.4,2.8H90.4z"/>
			</g>
			<g>
				<polygon class="st0" points="100.6,35.7 100.6,35.9 100.2,38.1 100.1,38.3 95.4,38.3 95.4,26 98.2,26 98.2,35.7 				"/>
			</g>
			<g>
				<polygon class="st0" points="107,35.7 106.9,35.9 106.5,38.1 106.5,38.3 101.7,38.3 101.7,26 106.6,26 106.6,26.1 107,28.4 
					107.1,28.5 104.4,28.5 104.4,31.1 106.4,31.1 106.4,33.4 104.4,33.4 104.4,35.7 				"/>
			</g>
			<g>
				<polygon class="st0" points="113.6,35.7 113.6,35.9 113.2,38.1 113.2,38.3 107.8,38.3 107.8,38.1 110.5,28.5 108,28.5 108,28.4 
					108.3,27.1 108.3,26.9 108.3,26.9 108.3,26.7 108.4,26.3 108.4,26.3 108.5,26.2 110.1,26.2 110.2,26.2 110.4,26.3 113.3,28 
					113.4,28.1 113.4,28.2 113.3,28.8 113.2,29 111.4,35.7 				"/>
			</g>
			<g>
				<polygon class="st0" points="114.1,25.6 114,25.8 113.5,27.7 113.5,27.9 113.3,27.8 110.4,26 110.1,25.9 109.6,25.6 				"/>
			</g>
		</g>
	</g>
	<g>
		<rect x="86.6" y="20.3" class="st0" width="1.7" height="1.7"/>
		<rect x="89" y="20.3" class="st0" width="1.7" height="1.7"/>
		<rect x="86.6" y="22.6" class="st0" width="1.7" height="1.7"/>
		<rect x="89" y="22.6" class="st0" width="1.7" height="1.7"/>
	</g>
	<g>
		<g>
			<path class="st0" d="M110.2,23.3c0.4-0.6,0-1.1-0.2-1.2c-0.2-0.1-0.2-0.2-0.2-0.2c0.1-0.6-0.3-0.6-0.5-0.6c-0.1,0-0.1,0-0.1,0
				c-1.1-0.5-1.7-0.5-1.7-0.5l1-1.6c0,0,0.1-0.2,0.4-0.2c0.2,0,0.1,0.5,0.3,0.5h0c0.2,0,0-0.7,0-0.7c0,0,0.1,0,0.1,0
				c0.3,0,0.7-0.2,0.3-0.4c-0.5-0.2-0.5-0.4-0.5-0.4c0.4,0,0.4-0.5,0.1-0.7c-0.3-0.2-0.3-0.3-0.3-0.3c0.1-0.8-0.1-1.2-0.1-1.2
				c-1.3-3.8-4.6-6.5-4.6-6.7c-0.1-0.2,0.1-0.3,0.1-0.3c0.4,0,0.3-1,0.3-1s0.1-0.9-1-1.4c-0.3-0.1-0.5-0.2-0.7-0.2
				c-0.7,0-1.1,0.6-1.3,0.9c-0.2,0.3-0.3,0.3-0.3,0.3c0,0,0,0,0,0s0,0,0,0c0,0-0.5,0-0.7,0.4c-0.2,0.4,0.3,0.6,0.4,0.6
				c0.2,0.1,0.1,0.3,0,0.3c-0.2,0-0.1,0.3,0.1,0.3c0.2,0,0.1,0.2,0.1,0.3c-0.1,0.6,0.2,1,0.2,1c-0.1,0-0.3,0.3-0.5,0.8
				c-0.2,0.5-0.6,0.7-0.6,0.7c-1.3,0.6-2.7,2.6-2.7,2.6L96,14.5l-0.9-0.7v-1.6c0.1,0.1,0.5,0.4,0.7,0.4c0,0,0,0,0,0
				c0-0.2-0.4-0.5-0.8-0.7c0,0-0.1,0-0.2,0c-0.4,0-1,0.3-1.3,0.5c-0.4,0.3,0,0.4,0,0.4s0.6-0.2,0.8-0.2c0.2,0,0.2,0.3,0.2,0.3
				s0.1,1.4,0.1,1.9c0,0.4,0.1,0.4,0.2,0.4c0,0,0.1,0,0.1,0l0.3,1.9l0.4,0c0,0,0-0.2,0.1-0.3c0.1-0.1,0.5-0.2,0.5-0.2
				s0.1-0.1,0.2-0.1c0.1,0,0.2,0.1,0.2,0.3c0.1,0.5,0.5,0.5,0.5,0.5c0.2-0.1-0.2-0.4,0.1-0.7c0.1-0.2,0.5-0.8,0.5-0.8S98,16,98.9,16
				c0.3,0,0.6,0,1-0.1c0.7-0.1,1.1-0.3,1.1-0.3l1.5-1c0,0,0.5,1,1.2,1.4c0.8,0.4,0.6,0.5,0.6,0.6c0,0.1-0.6,0.4-0.6,0.7
				c-0.1,0.3-0.7,1.2-1.1,1.7c-0.8,1.1-0.2,2.4-0.2,2.4l7.4,4.2l0.1-0.4c0.5-0.3,0.2-1.1,0.2-1.5C110,23.4,110.2,23.3,110.2,23.3z
				 M95.9,15.8l0-0.1c0.1,0,0.1,0,0.2,0C96,15.7,96,15.7,95.9,15.8z M106.6,20.4l0.7-0.8c0.1-0.1,0.1-0.1,0.2-0.1c0,0,0.1,0,0.1,0
				c-0.2,0.5-0.4,0.8-0.5,0.9L106.6,20.4z"/>
		</g>
	</g>
	<polygon class="st0" points="115.1,28.9 115,29.3 113.2,28.5 110.2,27.1 108.6,26.4 108.1,26.2 107.8,26.1 88.4,17.4 69.8,26 
		64.7,28.4 59.6,30.8 64.7,27.7 67.5,26 88.6,13.4 110.1,26 110.4,26.1 113.3,27.9 	"/>
	<g>
		<path class="st0" d="M59.7,46.5l-0.1-0.1l0.9-4.2l0.2-0.1h1.2c0.3,0,0.5,0,0.7,0.1c0.3,0.1,0.5,0.2,0.6,0.5
			c0.1,0.2,0.2,0.5,0.1,0.8c-0.1,0.3-0.2,0.5-0.4,0.8c-0.2,0.2-0.5,0.4-0.8,0.5c0.2,0.2,0.5,0.7,0.8,1.7l-0.1,0.2h-0.6l-0.1-0.1
			c-0.2-0.7-0.4-1.2-0.5-1.5c-0.1-0.1-0.2-0.2-0.3-0.2h-0.3l-0.4,1.7l-0.2,0.1H59.7z M60.9,44.1h0.6c0.2,0,0.4,0,0.5-0.1
			c0.3-0.1,0.4-0.3,0.5-0.6c0.1-0.3,0-0.5-0.2-0.6c-0.1-0.1-0.2-0.1-0.4-0.1h-0.6L60.9,44.1z"/>
		<path class="st0" d="M64.7,46.6c-0.4,0-0.7-0.2-1-0.5c-0.2-0.3-0.3-0.7-0.2-1.1c0.1-0.4,0.3-0.8,0.6-1c0.3-0.3,0.7-0.4,1.1-0.4
			c0.4,0,0.8,0.1,1,0.4c0.2,0.3,0.3,0.7,0.2,1.1c-0.1,0.4-0.3,0.8-0.6,1C65.5,46.5,65.1,46.6,64.7,46.6z M64.8,45.9
			c0.4,0,0.7-0.3,0.8-0.8c0-0.2,0-0.3,0-0.4c0-0.1,0-0.2-0.1-0.3c-0.1-0.1-0.2-0.1-0.4-0.1c-0.4,0-0.7,0.3-0.8,0.8
			C64.2,45.7,64.4,45.9,64.8,45.9z"/>
		<path class="st0" d="M68.2,46.6c-0.4,0-0.7-0.2-1-0.5c-0.2-0.3-0.3-0.7-0.2-1.1c0.1-0.4,0.3-0.8,0.6-1c0.3-0.3,0.7-0.4,1.1-0.4
			c0.4,0,0.8,0.1,1,0.4c0.2,0.3,0.3,0.7,0.2,1.1c-0.1,0.4-0.3,0.8-0.6,1C69,46.5,68.6,46.6,68.2,46.6z M68.2,45.9
			c0.4,0,0.7-0.3,0.8-0.8c0-0.2,0-0.3,0-0.4c0-0.1,0-0.2-0.1-0.3c-0.1-0.1-0.2-0.1-0.4-0.1c-0.4,0-0.7,0.3-0.8,0.8
			C67.7,45.7,67.8,45.9,68.2,45.9z"/>
		<path class="st0" d="M70.6,44.3l-0.1-0.1l0.1-0.4l0.2-0.1h0.3l0.1-0.7c0.1-0.3,0.1-0.6,0.2-0.7c0.1-0.2,0.2-0.4,0.5-0.5
			c0.2-0.1,0.5-0.2,0.8-0.2c0.1,0,0.3,0,0.5,0l0.1,0.1l-0.1,0.4l-0.2,0.1c-0.1,0-0.3,0-0.4,0c-0.2,0-0.3,0.1-0.4,0.2
			c0,0.1-0.1,0.3-0.1,0.6l-0.1,0.6h1.7l0.1,0.1l-0.5,2.6l-0.2,0.1h-0.5l-0.1-0.1l0.4-2.1h-1.1l-0.4,2.1l-0.2,0.1h-0.5l-0.1-0.1
			l0.4-2.1H70.6z M73.1,42.7c0-0.1,0.1-0.2,0.2-0.3c0.1-0.1,0.2-0.1,0.3-0.1s0.2,0,0.3,0.1c0.1,0.1,0.1,0.2,0.1,0.3
			c0,0.1-0.1,0.2-0.2,0.3c-0.1,0.1-0.2,0.1-0.3,0.1c-0.1,0-0.2,0-0.3-0.1C73.1,42.9,73.1,42.8,73.1,42.7z"/>
		<path class="st0" d="M74.5,43.8l0.2-0.1h0.4l0.1,0.1l0,0.2c0.3-0.3,0.6-0.4,0.9-0.4c0.3,0,0.5,0.1,0.6,0.3
			c0.1,0.2,0.2,0.4,0.2,0.7c0,0.1,0,0.3-0.1,0.5l-0.3,1.2l-0.2,0.1h-0.5l-0.1-0.1l0.3-1.3c0-0.2,0.1-0.3,0.1-0.4
			c0-0.3-0.1-0.5-0.3-0.5c-0.2,0-0.4,0.1-0.6,0.3l-0.4,1.9l-0.2,0.1h-0.5L74,46.4L74.5,43.8z"/>
		<path class="st0" d="M77.6,46.1c-0.2-0.3-0.3-0.7-0.2-1.1c0.1-0.4,0.3-0.8,0.6-1c0.3-0.3,0.6-0.4,1-0.4c0.4,0,0.6,0.1,0.8,0.4
			l0.1-0.2l0.2-0.1h0.4l0.1,0.1l-0.6,2.9c-0.1,0.4-0.3,0.8-0.6,1.1c-0.3,0.3-0.7,0.4-1.1,0.4c-0.4,0-0.7-0.1-0.9-0.2l-0.1-0.2
			l0.1-0.4l0.2-0.1c0.2,0.1,0.5,0.1,0.8,0.1c0.3,0,0.5-0.1,0.6-0.2c0.2-0.2,0.3-0.4,0.3-0.6l0.1-0.4c-0.2,0.2-0.4,0.3-0.7,0.3
			C78.1,46.6,77.8,46.4,77.6,46.1z M78.2,45.1c-0.1,0.6,0,0.8,0.5,0.8c0.2,0,0.4-0.1,0.6-0.3l0.2-1.1c-0.1-0.2-0.3-0.3-0.5-0.3
			C78.6,44.3,78.4,44.6,78.2,45.1z"/>
		<path class="st0" d="M83.6,46.6c-0.4,0-0.7-0.1-1-0.4c-0.3-0.3-0.4-0.6-0.3-1c0-0.2,0.1-0.4,0.2-0.5c0.1-0.2,0.2-0.3,0.4-0.4
			c0.1-0.1,0.3-0.2,0.4-0.3c0.1-0.1,0.2-0.1,0.4-0.2c0-0.1-0.1-0.1-0.1-0.1c0,0,0-0.1-0.1-0.1c0-0.1,0-0.1-0.1-0.2
			c0-0.1,0-0.1,0-0.2c0-0.1,0-0.2,0-0.2c0.1-0.3,0.2-0.5,0.4-0.7c0.2-0.2,0.5-0.3,0.9-0.3c0.2,0,0.3,0,0.4,0l0.1,0.1l-0.1,0.4
			l-0.2,0.1c-0.1,0-0.2,0-0.3,0c-0.3,0-0.4,0.1-0.5,0.3c0,0.1,0.1,0.3,0.2,0.7l0.6,1.4c0.2-0.2,0.4-0.5,0.6-0.8h-0.3L85.3,44
			l0.1-0.4l0.2-0.1h1.3l0.1,0.1L86.9,44l-0.2,0.1h-0.3c-0.3,0.6-0.7,1.1-1.1,1.4l0.4,0.8l-0.1,0.2h-0.6l-0.1-0.1l-0.1-0.3
			C84.5,46.5,84.1,46.6,83.6,46.6z M83.7,45.9c0.3,0,0.6-0.1,0.8-0.4L84,44.4l-0.1,0c0,0-0.1,0-0.1,0c0,0,0,0-0.1,0
			c0,0-0.1,0-0.1,0.1c0,0-0.1,0-0.1,0.1c0,0-0.1,0.1-0.1,0.1c0,0-0.1,0.1-0.1,0.1c0,0-0.1,0.1-0.1,0.1c0,0,0,0.1-0.1,0.1
			c0,0.1,0,0.1,0,0.2c0,0.2,0,0.4,0.1,0.5C83.4,45.9,83.5,45.9,83.7,45.9z"/>
		<path class="st0" d="M89.4,42.2l0.2-0.1h2.3l0.1,0.1l-0.2,0.4l-0.2,0.1h-1.6l-0.2,1.2h1.5l0.1,0.1l-0.1,0.4l-0.2,0.1h-1.5
			l-0.3,1.4h1.7l0.1,0.1l-0.1,0.4l-0.2,0.1h-2.3l-0.1-0.1L89.4,42.2z"/>
		<path class="st0" d="M91.6,46.4l1.2-1.3l-0.5-1.2l0.1-0.2H93l0.1,0.1l0.3,0.6l0.5-0.6l0.2-0.1h0.6l0.1,0.2l-1,1.2l0.6,1.3
			l-0.1,0.2h-0.6l-0.1-0.1l-0.4-0.8l-0.7,0.8l-0.2,0.1h-0.6L91.6,46.4z"/>
		<path class="st0" d="M95.3,43.8l0.2-0.1h0.2l0.4-0.9l0.2-0.1h0.3l0.1,0.1l-0.2,0.8H97l0.1,0.1l-0.2,0.4l-0.2,0.1h-0.5l-0.2,0.8
			C96,45.5,96,45.6,96,45.7c0,0.2,0.1,0.2,0.3,0.2c0.1,0,0.3,0,0.4-0.1l0.1,0.1l-0.1,0.4l-0.1,0.2c-0.2,0-0.3,0.1-0.4,0.1
			c-0.3,0-0.5-0.1-0.7-0.2c-0.2-0.1-0.3-0.3-0.3-0.4c0-0.2,0-0.4,0.1-0.7l0.2-0.9h-0.2l-0.1-0.1L95.3,43.8z"/>
		<path class="st0" d="M98.7,46.6c-0.5,0-0.9-0.1-1.1-0.4c-0.2-0.3-0.3-0.6-0.2-1.1c0.1-0.4,0.3-0.8,0.6-1.1
			c0.3-0.3,0.7-0.4,1.1-0.4c0.4,0,0.8,0.1,1,0.4c0.2,0.3,0.2,0.7,0.1,1.1l-0.2,0.1h-1.9c0,0.2,0,0.4,0.1,0.5
			c0.1,0.1,0.3,0.2,0.5,0.2c0.3,0,0.6,0,0.9-0.1l0.1,0.1l-0.1,0.3l-0.2,0.2C99.2,46.6,98.9,46.6,98.7,46.6z M98.2,44.8h1.2l0-0.1
			c0-0.2,0-0.3-0.1-0.4c-0.1-0.1-0.2-0.2-0.4-0.2c-0.2,0-0.3,0.1-0.4,0.2C98.4,44.5,98.3,44.6,98.2,44.8z"/>
		<path class="st0" d="M101.2,43.8l0.2-0.1h0.4l0.1,0.1l0,0.2c0.2-0.3,0.5-0.4,0.8-0.4c0.2,0,0.4,0.1,0.5,0.2l0,0.2l-0.4,0.4h-0.2
			c-0.1-0.1-0.2-0.1-0.3-0.1c-0.1,0-0.2,0-0.4,0.1c-0.1,0.1-0.2,0.2-0.2,0.4l-0.4,1.6l-0.2,0.1h-0.5l-0.1-0.1L101.2,43.8z"/>
		<path class="st0" d="M103.6,43.8l0.2-0.1h0.5l0.1,0.1l-0.6,2.6l-0.2,0.1h-0.5l-0.1-0.1L103.6,43.8z M104.5,43
			c-0.1,0.1-0.2,0.1-0.3,0.1c-0.1,0-0.2,0-0.3-0.1c-0.1-0.1-0.1-0.2-0.1-0.3c0-0.1,0.1-0.2,0.2-0.3c0.1-0.1,0.2-0.1,0.3-0.1
			c0.1,0,0.2,0,0.3,0.1c0.1,0.1,0.1,0.2,0.1,0.3C104.7,42.8,104.6,42.9,104.5,43z"/>
		<path class="st0" d="M106,46.6c-0.4,0-0.7-0.2-1-0.5c-0.2-0.3-0.3-0.7-0.2-1.1c0.1-0.4,0.3-0.8,0.6-1c0.3-0.3,0.7-0.4,1.1-0.4
			c0.4,0,0.8,0.1,1,0.4c0.2,0.3,0.3,0.7,0.2,1.1c-0.1,0.4-0.3,0.8-0.6,1C106.8,46.5,106.4,46.6,106,46.6z M106.1,45.9
			c0.4,0,0.7-0.3,0.8-0.8c0-0.2,0-0.3,0-0.4c0-0.1,0-0.2-0.1-0.3c-0.1-0.1-0.2-0.1-0.4-0.1c-0.4,0-0.7,0.3-0.8,0.8
			C105.5,45.7,105.6,45.9,106.1,45.9z"/>
		<path class="st0" d="M108.7,43.8l0.2-0.1h0.4l0.1,0.1l0,0.2c0.2-0.3,0.5-0.4,0.8-0.4c0.2,0,0.4,0.1,0.5,0.2l0,0.2l-0.4,0.4h-0.2
			c-0.1-0.1-0.2-0.1-0.3-0.1c-0.1,0-0.2,0-0.4,0.1c-0.1,0.1-0.2,0.2-0.2,0.4l-0.4,1.6l-0.2,0.1h-0.5l-0.1-0.1L108.7,43.8z"/>
		<path class="st0" d="M112.2,46.4c-0.2,0.2-0.5,0.2-0.8,0.2c-0.3,0-0.6-0.1-0.8-0.2l-0.1-0.2l0.1-0.4l0.2-0.1
			c0.2,0.1,0.5,0.2,0.7,0.2c0.3,0,0.4-0.1,0.4-0.3c0-0.1,0-0.2,0-0.2c0,0-0.1-0.1-0.3-0.2l-0.2-0.1c0,0-0.1,0-0.1-0.1
			c0,0-0.1,0-0.1-0.1c0,0-0.1-0.1-0.1-0.1c0,0-0.1-0.1-0.1-0.1c0-0.1,0-0.1,0-0.2c0-0.1,0-0.1,0-0.2c0.1-0.3,0.2-0.5,0.4-0.6
			c0.2-0.1,0.5-0.2,0.7-0.2c0.3,0,0.6,0.1,0.8,0.2l0,0.2l-0.3,0.3l-0.2,0c-0.1-0.1-0.2-0.1-0.4-0.1c-0.2,0-0.3,0.1-0.3,0.2
			c0,0.1,0,0.1,0,0.1c0,0,0.1,0.1,0.2,0.1l0.3,0.1c0.1,0.1,0.2,0.1,0.3,0.2c0.1,0,0.1,0.1,0.2,0.3c0.1,0.1,0.1,0.3,0,0.4
			C112.6,46,112.4,46.2,112.2,46.4z"/>
	</g>
</g>
</svg>
