<?xml version="1.0" encoding="utf-8"?>
<!-- Generator: Adobe Illustrator 26.3.0, SVG Export Plug-In . SVG Version: 6.00 Build 0)  -->
<svg version="1.1" id="Capa_1" xmlns="http://www.w3.org/2000/svg" xmlns:xlink="http://www.w3.org/1999/xlink" x="0px" y="0px"
	 viewBox="0 0 172 51" style="enable-background:new 0 0 172 51;" xml:space="preserve">
<style type="text/css">
	.st0{fill:#FFFFFF;}
	.st1{fill:#4A4A4A;}
	.st2{fill:#E72118;}
</style>
<g>
	<g>
		<g>
			<g>
				<path d="M94.9,6.3c0,0.6,0,1.3,0,1.9c0,0.4,0,0.8,0,1.2c0,0.4,0,0.8,0,1.2c0,0.2,0,0.4,0,0.5c0,0.1,0,0.1-0.1,0.1
					c-0.2-0.1-0.5,0-0.7,0c-0.4,0.1-0.8,0.3-1.2,0.6c-0.1,0-0.1,0.1-0.2,0.2c-0.2,0.3-0.2,0.6,0.1,0.8c0.1,0.1,0.2,0.2,0.4,0.2
					c0.1,0,0.2,0,0.3,0c0.1,0,0.2-0.1,0.3-0.1c0.1,0,0.1,0,0.1,0.1c0,0,0,0,0,0.1c0,0.2,0,0.5,0,0.7c0,0.3,0,0.6,0.1,0.9
					c0,0.2,0.1,0.4,0.2,0.5c0,0,0.1,0.1,0.1,0.1c0.1,0.3,0.1,0.7,0.2,1c0,0,0,0.1,0,0.1c0,0-0.1,0-0.1,0c-0.4-0.2-0.7-0.4-1.1-0.6
					c-1.4-0.8-2.8-1.6-4.2-2.5c-0.2-0.1-0.3-0.2-0.5-0.3c-0.1-0.1-0.1-0.1-0.1-0.2c0-0.3,0-0.6,0-0.9v-3c0-1.3,0-2.6,0-3.9
					c0-0.2,0-0.2-0.2-0.1C87,5.4,86,6,84.9,6.5c-0.3,0.1-0.6,0.3-0.9,0.5c-0.1,0.1-0.1,0.1-0.1,0.2c0,0.5,0,1,0,1.5v0.2
					c0,0.2,0,0.2-0.2,0.2c-0.2,0-0.3,0-0.5,0C83,9.2,83,9.1,83,9c0-0.2,0-0.4,0-0.6c0-0.8,0-1.5,0-2.3c0-0.1,0-0.2,0.2-0.3
					c1.4-0.7,2.7-1.4,4.1-2.2c0.6-0.3,1.1-0.6,1.7-0.9c0.1-0.1,0.2-0.1,0.3,0c1.3,0.7,2.5,1.4,3.8,2.2c0.6,0.4,1.3,0.7,1.9,1.1
					C94.9,6.1,95,6.2,94.9,6.3z"/>
			</g>
		</g>
		<g>
			<g>
				<path class="st0" d="M86.7,36.1c0,0.1,0,0.2,0,0.2c0,0,0,0,0,0v0c0,0,0,0,0,0c0,0,0,0,0,0c0,0,0,0.1,0,0.1c0,0-0.1,0-0.1,0
					c0,0,0,0,0,0c0,0,0,0,0,0s0,0,0,0c-0.1,0-0.1,0-0.2,0c0.1-0.1,0.1-0.1,0.2-0.1C86.6,36.2,86.6,36.2,86.7,36.1z"/>
			</g>
			<g>
				<path class="st0" d="M95.9,15.1c-0.2,0-0.4,0-0.6,0.1c-0.1,0-0.1,0-0.1,0.1c0,0.2,0.1,0.4,0.1,0.7c0.3-0.3,0.7-0.6,1.1-0.8
					C96.2,15,96.1,15.1,95.9,15.1z M94.8,6.1c-0.6-0.4-1.3-0.7-1.9-1.1c-1.3-0.7-2.5-1.4-3.8-2.2c-0.1-0.1-0.2-0.1-0.3,0
					c-0.6,0.3-1.1,0.6-1.7,0.9c-1.4,0.7-2.7,1.4-4.1,2.2c-0.1,0.1-0.2,0.1-0.2,0.3c0,0.8,0,1.5,0,2.3c0,0.2,0,0.4,0,0.6
					c0,0.1,0,0.1,0.2,0.2c0.2,0,0.3,0,0.5,0c0.2,0,0.2,0,0.2-0.2V8.7c0-0.5,0-1,0-1.5c0-0.1,0-0.2,0.1-0.2c0.3-0.1,0.6-0.3,0.9-0.5
					C86,6,87,5.4,88.1,4.9c0.2-0.1,0.2-0.1,0.2,0.1c0,1.3,0,2.6,0,3.9v3c0,0.3,0,0.6,0,0.9c0,0.1,0,0.2,0.1,0.2
					c0.2,0.1,0.3,0.2,0.5,0.3c1.4,0.8,2.8,1.6,4.2,2.5c0.4,0.2,0.7,0.4,1.1,0.6c0,0,0.1,0,0.1,0c0,0,0,0,0-0.1c0,0,0,0,0,0
					c-0.1-0.3-0.1-0.7-0.2-1c0-0.1,0-0.1-0.1-0.1c-0.1-0.1-0.2-0.3-0.2-0.5c0-0.3-0.1-0.6-0.1-0.9c0-0.2,0-0.5,0-0.7c0,0,0,0,0-0.1
					c0-0.1,0-0.1-0.1-0.1c-0.1,0-0.2,0.1-0.3,0.1c-0.1,0-0.2,0-0.3,0c-0.1,0-0.3-0.1-0.4-0.2c-0.2-0.2-0.3-0.6-0.1-0.8
					c0.1-0.1,0.1-0.1,0.2-0.2c0.4-0.3,0.8-0.4,1.2-0.6c0.2-0.1,0.5-0.1,0.7,0c0.1,0,0.1,0,0.1-0.1c0-0.2,0-0.4,0-0.5
					c0-0.4,0-0.8,0-1.2c0-0.4,0-0.8,0-1.2c0-0.6,0-1.3,0-1.9C94.9,6.2,94.9,6.1,94.8,6.1z M86.5,36.3c-0.1,0-0.1,0.1-0.2,0.1
					c0.1,0,0.1,0,0.2,0c0,0,0,0,0,0s0,0,0,0c0,0,0,0,0,0c0,0,0.1,0,0.1,0c0,0,0-0.1,0-0.1c0,0,0,0,0,0c0,0,0,0,0,0v0c0,0,0,0,0,0
					c0-0.1,0-0.2,0-0.2C86.6,36.2,86.6,36.2,86.5,36.3z"/>
			</g>
		</g>
		<g>
			<g>
				<path class="st0" d="M94.9,6.3c0,0.6,0,1.3,0,1.9c0,0.4,0,0.8,0,1.2c0,0.4,0,0.8,0,1.2c0,0.2,0,0.4,0,0.5c0,0.1,0,0.1-0.1,0.1
					c-0.2-0.1-0.5,0-0.7,0c-0.4,0.1-0.8,0.3-1.2,0.6c-0.1,0-0.1,0.1-0.2,0.2c-0.2,0.3-0.2,0.6,0.1,0.8c0.1,0.1,0.2,0.2,0.4,0.2
					c0.1,0,0.2,0,0.3,0c0.1,0,0.2-0.1,0.3-0.1c0.1,0,0.1,0,0.1,0.1c0,0,0,0,0,0.1c0,0.2,0,0.5,0,0.7c0,0.3,0,0.6,0.1,0.9
					c0,0.2,0.1,0.4,0.2,0.5c0,0,0.1,0.1,0.1,0.1c0.1,0.3,0.1,0.7,0.2,1c0,0,0,0.1,0,0.1c0,0-0.1,0-0.1,0c-0.4-0.2-0.7-0.4-1.1-0.6
					c-1.4-0.8-2.8-1.6-4.2-2.5c-0.2-0.1-0.3-0.2-0.5-0.3c-0.1-0.1-0.1-0.1-0.1-0.2c0-0.3,0-0.6,0-0.9v-3c0-1.3,0-2.6,0-3.9
					c0-0.2,0-0.2-0.2-0.1C87,5.4,86,6,84.9,6.5c-0.3,0.1-0.6,0.3-0.9,0.5c-0.1,0.1-0.1,0.1-0.1,0.2c0,0.5,0,1,0,1.5v0.2
					c0,0.2,0,0.2-0.2,0.2c-0.2,0-0.3,0-0.5,0C83,9.2,83,9.1,83,9c0-0.2,0-0.4,0-0.6c0-0.8,0-1.5,0-2.3c0-0.1,0-0.2,0.2-0.3
					c1.4-0.7,2.7-1.4,4.1-2.2c0.6-0.3,1.1-0.6,1.7-0.9c0.1-0.1,0.2-0.1,0.3,0c1.3,0.7,2.5,1.4,3.8,2.2c0.6,0.4,1.3,0.7,1.9,1.1
					C94.9,6.1,95,6.2,94.9,6.3z"/>
			</g>
		</g>
		<g>
			<g>
				<path class="st0" d="M86.5,36.3C86.5,36.3,86.5,36.3,86.5,36.3c0.1-0.1,0.2,0,0.2,0.1c0-0.1,0-0.2,0-0.2
					C86.6,36.2,86.6,36.2,86.5,36.3z M86.5,36.4c0,0,0.1,0,0.1,0c0,0,0-0.1,0-0.1C86.6,36.4,86.6,36.5,86.5,36.4z M86.5,36.3
					C86.5,36.3,86.5,36.3,86.5,36.3c0.1-0.1,0.2,0,0.2,0.1c0-0.1,0-0.2,0-0.2C86.6,36.2,86.6,36.2,86.5,36.3z M86.5,36.4
					c0,0,0.1,0,0.1,0c0,0,0-0.1,0-0.1C86.6,36.4,86.6,36.5,86.5,36.4z M86.5,36.3C86.5,36.3,86.5,36.3,86.5,36.3
					c0.1-0.1,0.2,0,0.2,0.1c0-0.1,0-0.2,0-0.2C86.6,36.2,86.6,36.2,86.5,36.3z M86.5,36.4c0,0,0.1,0,0.1,0c0,0,0-0.1,0-0.1
					C86.6,36.4,86.6,36.5,86.5,36.4z M86.5,36.3C86.5,36.3,86.5,36.3,86.5,36.3c0.1-0.1,0.2,0,0.2,0.1c0-0.1,0-0.2,0-0.2
					C86.6,36.2,86.6,36.2,86.5,36.3z M86.5,36.4c0,0,0.1,0,0.1,0c0,0,0-0.1,0-0.1C86.6,36.4,86.6,36.5,86.5,36.4z M86.5,36.3
					C86.5,36.3,86.5,36.3,86.5,36.3c0.1-0.1,0.2,0,0.2,0.1c0-0.1,0-0.2,0-0.2C86.6,36.2,86.6,36.2,86.5,36.3z M86.5,36.4
					c0,0,0.1,0,0.1,0c0,0,0-0.1,0-0.1C86.6,36.4,86.6,36.5,86.5,36.4z"/>
				<path class="st0" d="M86.5,36.4c0,0,0.1,0,0.1,0c0,0,0-0.1,0-0.1C86.6,36.4,86.6,36.5,86.5,36.4z M86.5,36.3
					C86.5,36.3,86.5,36.3,86.5,36.3c0.1-0.1,0.2,0,0.2,0.1c0-0.1,0-0.2,0-0.2C86.6,36.2,86.6,36.2,86.5,36.3z"/>
				<path class="st0" d="M86.5,36.3C86.5,36.3,86.5,36.3,86.5,36.3c0.1-0.1,0.2,0,0.2,0.1c0-0.1,0-0.2,0-0.2
					C86.6,36.2,86.6,36.2,86.5,36.3z M86.5,36.4c0,0,0.1,0,0.1,0c0,0,0-0.1,0-0.1C86.6,36.4,86.6,36.5,86.5,36.4z"/>
				<path class="st0" d="M116.5,32.9v-5.8c0-0.5,0-1.2-0.2-1.6c-0.3-0.8-1.1-2-2.6-2c-0.9,0-2-0.1-2.5,0h0c0,0,0,0,0,0c0,0,0,0,0,0
					c0,0,0,0,0,0c-0.1,0-0.2-0.1-0.2-0.2c0-0.2,0-0.1-0.1-0.3l0,0c0.2-0.5,0.3-0.5,0.2-1c-0.1-0.3-0.2-0.7-0.5-0.9c0,0,0-0.1,0-0.1
					c-0.1-0.3-0.2-0.5-0.4-0.7c-0.1-0.1-0.1-0.1-0.2-0.2c-0.1-0.1-0.1-0.2-0.1-0.3c0,0,0,0,0-0.1c0,0,0-0.1,0.1-0.1
					c0,0,0-0.1,0.1-0.1c0.3-0.3,0.5-0.7,0.5-1.1c0-0.3-0.1-0.6-0.3-0.9c0,0,0-0.1,0-0.1c0-0.2-0.1-0.5-0.2-0.7
					c-0.1-0.1-0.1-0.2-0.2-0.3c0,0-0.1-0.1-0.1-0.1c0-0.3-0.1-0.6-0.2-0.9c-0.1-0.4-0.3-0.8-0.5-1.2c-0.6-1.2-1.3-2.4-2.3-3.7
					c-0.5-0.6-1-1.1-1.4-1.5c0,0,0-0.1,0-0.1c0.1-0.3,0.1-0.6,0-1v0c0-0.7-0.2-1.3-0.7-1.8c-0.5-0.5-1.1-0.9-1.8-1
					c-0.2,0-0.4-0.1-0.6-0.1c-0.1,0-0.1,0-0.2,0c-0.7,0.1-1.3,0.4-1.8,1c-0.1,0.1-0.2,0.2-0.2,0.3c0,0-0.1,0.1-0.1,0.1
					c-0.4,0.2-0.8,0.5-1.1,0.9c-0.3,0.4-0.3,0.9-0.2,1.4c0.1,0.2,0.1,0.4,0.3,0.5c0,0,0,0.1,0,0.1c0,0.2,0.1,0.4,0.2,0.6l0,0
					c0,0.2,0,0.3,0,0.5c0,0,0,0.1,0,0.1c0,0.1-0.1,0.2-0.1,0.3l0,0.1c0,0,0,0,0,0c-0.7,0.4-1.3,0.9-1.7,1.3
					c-0.1,0.1-0.2,0.2-0.3,0.3c-0.1,0.1-0.3,0.1-0.4-0.1c0-0.3-0.2-0.5-0.4-0.8c0,0,0,0,0-0.1c0,0-0.1-0.1-0.1-0.2
					c0-0.1,0-0.2,0-0.2l0-0.1c0-0.2,0-0.4,0-0.6c0-0.2,0-0.4,0-0.6c0-0.3,0-0.5,0-0.7V8.7c0-0.1,0-0.3,0-0.4c0-0.3,0-0.7,0-1l0-0.1
					c0-0.3,0-0.5,0-0.8c0-0.6-0.3-1.2-0.9-1.5C95,4.6,94.5,4.3,94,4L93,3.4c-1.1-0.6-2.1-1.2-3.2-1.8c-0.5-0.3-1.1-0.3-1.6,0
					c-0.5,0.3-0.9,0.5-1.4,0.8l-1,0.5c-1.1,0.6-2.2,1.2-3.3,1.7c-0.6,0.3-0.9,0.8-0.9,1.5c0,0.4,0,0.9,0,1.3c0,0.3,0,0.7,0,1
					c0,0.2,0,0.4,0,0.6l0,0.1c0.1,0.8,0.7,1.4,1.5,1.4c0.1,0,0.2,0,0.2,0h0.3c1,0,1.6-0.6,1.6-1.6V8.7c0,0,0-0.4,0-0.7
					c0-0.1,0-0.2,0.1-0.2c0.1,0,0.1-0.1,0.2-0.1c0.3-0.1,0.7-0.4,1.1-0.5c0.1-0.1,0.3,0,0.3,0.2v4.9l-0.1,0.1
					c-0.8,0.5-2.3,1.4-3.7,2.2c-1.5,0.9-2.9,1.7-3.3,2l-1.4,0.8c-0.8,0.5-11.4,6.5-12.2,7c0,0-0.4-0.9-1.7-0.9c-4,0-3,0-6,0
					c-1.7,0-2.5,1.9-2.7,2.4c-0.2,0.4-0.3,0.9-0.3,1.4c0,1.1,0,2.2,0,3.3V33c0,1.7,0,4,0,5.1c0,0,0,0.1,0,0.1c0,3.1,1.3,6,3.3,8.1
					c2.1,2.1,4.9,3.3,8.1,3.3h38.1c3.2,0,6-1.3,8.1-3.3c2.1-2.1,3.3-4.9,3.3-8.1h0c0-0.1,0-0.1,0-0.2
					C116.5,36.9,116.5,34.6,116.5,32.9z M86.7,36.5c0,0-0.1,0-0.1,0c0.1,0,0.1,0,0.1-0.1C86.7,36.4,86.7,36.4,86.7,36.5z M86.7,36.3
					c0-0.1-0.1-0.1-0.2-0.1c0,0,0,0,0,0c0.1,0,0.1-0.1,0.2-0.2C86.7,36.2,86.7,36.3,86.7,36.3z"/>
			</g>
		</g>
	</g>
	<path class="st1" d="M82.9,9.3h0.8V7.1l4.5-2.3v8.3l6.4,3.8L95,6.3l-6-3.4l-6.1,3.2C82.9,6.1,82.9,9.3,82.9,9.3z"/>
	<g>
		<g>
			<g>
				<path class="st2" d="M58,27.4c0-0.4,0.1-0.8,0.4-1c0.2-0.3,0.6-0.4,1.1-0.4H64l0,2.2h-3.4c-0.1,0-0.2,0.1-0.2,0.2v7
					c0,0.2,0.1,0.2,0.2,0.2h1.1V31h2.3v6.8h-4.1c-0.7,0-1.2-0.1-1.4-0.4C58.1,37.1,58,36.6,58,36V27.4z"/>
			</g>
			<g>
				<path class="st2" d="M71.3,26.4c-0.2-0.2-0.5-0.4-1-0.4l-4.8,2.2v7.9c0,0.2,0,0.4,0.1,0.6c0.1,0.2,0.1,0.4,0.3,0.5
					c0.1,0.2,0.3,0.3,0.5,0.4c0.2,0.1,0.5,0.1,0.8,0.1H70c0.3,0,0.6,0,0.8-0.1c0.2-0.1,0.4-0.2,0.5-0.4c0.1-0.2,0.2-0.3,0.3-0.5
					c0.1-0.2,0.1-0.4,0.1-0.6v-8.6C71.7,27,71.5,26.7,71.3,26.4z M69.3,35.5c0,0.1,0,0.1,0,0.2c0,0-0.1,0.1-0.2,0.1h-0.9
					c-0.1,0-0.2,0-0.2-0.1c0,0,0-0.1,0-0.2v-7.2c0-0.2,0.1-0.2,0.2-0.2h0.9c0.1,0,0.2,0.1,0.2,0.2V35.5z"/>
			</g>
			<g>
				<path class="st2" d="M73.3,26h2.3l1.2,4.8V26h2.4v11.8h-2.4l-1.3-4.9v4.9h-2.2V26z"/>
			</g>
			<g>
				<path class="st2" d="M83.7,35.6h2.2l-0.4,2.2h-5l2.7-9.6h-2.5l0.4-2.2h5.1L83.7,35.6z"/>
			</g>
			<g>
				<path class="st2" d="M89.6,36.3l-0.2,1.5H87L89.2,26h2.5l2.1,11.8h-2.4l-0.2-1.5H89.6z M89.9,34.5H91l-0.5-4.2L89.9,34.5z"/>
			</g>
			<g>
				<path class="st2" d="M95.2,26h2.4v9.6h2.4l-0.4,2.2h-4.4V26z"/>
			</g>
			<g>
				<path class="st2" d="M101.4,26h4.6l0.4,2.2h-2.6V31h2v2h-2v2.6h2.5l-0.4,2.2h-4.5V26z"/>
			</g>
			<g>
				<polygon class="st2" points="112.9,35.6 112.5,37.8 107.5,37.8 110.1,28.2 107.7,28.2 107.9,27 107.9,27 108,26.5 108.1,26.2 
					108.1,26.1 109.6,26.1 109.8,26.3 112.7,28 112.6,28.6 112.5,28.8 110.7,35.6 				"/>
			</g>
			<g>
				<polygon class="st2" points="113.3,25.6 112.8,27.4 109.9,25.7 109.7,25.6 				"/>
			</g>
		</g>
		<g>
			<g>
				<g>
					<path class="st1" d="M60.7,40.2c-1,0-1.7-0.2-2.2-0.8c-0.5-0.5-0.7-1.2-0.7-2.1v-8.6c0-0.7,0.2-1.3,0.6-1.8
						c0.3-0.3,0.9-0.7,1.8-0.7h4.6c0.6,0,1.1,0.5,1.1,1.1l0,2.2c0,0.3-0.1,0.6-0.3,0.8c-0.2,0.2-0.5,0.3-0.8,0.3h-2.6v0.7
						c0.1,0,0.1,0,0.2,0h2.3c0.6,0,1.1,0.5,1.1,1.1v6.8c0,0.6-0.5,1.1-1.1,1.1H60.7z"/>
					<path class="st1" d="M60.7,40.4c-1,0-1.8-0.3-2.3-0.8c-0.5-0.5-0.7-1.3-0.7-2.3v-8.6c0-0.7,0.2-1.4,0.7-1.9
						c0.3-0.4,0.9-0.8,2-0.8H65c0.6,0,1.1,0.5,1.1,1.1l0,2.5c0,0.3-0.1,0.6-0.3,0.8c-0.2,0.2-0.5,0.3-0.8,0.3h-2.6v0.4H65
						c0.6,0,1.1,0.5,1.1,1.1v7.1c0,0.6-0.5,1.1-1.1,1.1H60.7z M60.1,38c0,0,0.2,0.1,0.7,0.1h3.1v-4.7h-0.2V37c0,0.6-0.5,1.1-1.1,1.1
						h-1.1c-0.7,0-1.3-0.6-1.3-1.3v-7c0-0.7,0.6-1.3,1.3-1.3h2.3l0-0.1h-3.5c-0.2,0-0.3,0-0.3,0c-0.1,0.1-0.1,0.2-0.1,0.3v8.6
						C59.9,37.8,60,38,60.1,38C60.1,38,60.1,38,60.1,38z"/>
				</g>
				<g>
					<path class="st1" d="M68.1,40.2c-0.5,0-0.9-0.1-1.2-0.2c-0.4-0.2-0.7-0.4-0.9-0.7c-0.2-0.3-0.4-0.6-0.5-0.9
						c-0.1-0.3-0.1-0.6-0.1-0.9v-7.9c0-0.4,0.2-0.8,0.6-1l4.8-2.2c0.1-0.1,0.3-0.1,0.5-0.1c0,0,0.1,0,0.1,0c0.7,0.1,1.3,0.3,1.7,0.7
						c0.4,0.5,0.7,1.1,0.7,1.8v8.6c0,0.3,0,0.6-0.1,0.9c-0.1,0.4-0.3,0.7-0.5,0.9c-0.2,0.3-0.5,0.5-0.9,0.7
						c-0.4,0.2-0.8,0.2-1.2,0.2H68.1z"/>
					<path class="st1" d="M68.1,40.4c-0.5,0-0.9-0.1-1.3-0.2c-0.4-0.2-0.7-0.4-1-0.7c-0.2-0.3-0.4-0.6-0.5-1c-0.1-0.3-0.1-0.6-0.1-1
						v-8c0-0.4,0.2-0.8,0.6-1l4.9-2.3c0.1-0.1,0.3-0.1,0.5-0.1c0,0,0.1,0,0.1,0l0,0c0.9,0.1,1.5,0.5,1.8,0.8c0.5,0.5,0.7,1.2,0.7,2
						v8.6c0,0.3,0,0.7-0.1,1c-0.1,0.4-0.3,0.7-0.5,1c-0.3,0.3-0.6,0.5-1,0.7c-0.4,0.2-0.8,0.2-1.3,0.2H68.1z M70.9,38.1
						c0.2,0,0.4,0,0.4-0.1c0.1,0,0.1-0.1,0.1-0.1c0,0,0-0.1,0.1-0.1c0-0.1,0-0.2,0-0.4v-8.6c0-0.2,0-0.3-0.1-0.4c0,0,0,0,0,0
						l-0.5,0.2c0.2,0.2,0.4,0.6,0.4,0.9v7.2c0,0.3-0.1,0.6-0.2,0.8c-0.1,0.1-0.3,0.3-0.6,0.4H70.9z M67.5,37.5c0,0.1,0,0.3,0,0.4
						c0,0.1,0,0.1,0.1,0.1c0,0,0.1,0.1,0.1,0.1c0,0,0.2,0.1,0.4,0.1h0.5c-0.3-0.1-0.5-0.3-0.6-0.4c-0.2-0.2-0.2-0.5-0.2-0.8v-6.7
						l-0.2,0.1V37.5z"/>
				</g>
				<g>
					<path class="st1" d="M77.7,40.2c-0.2,0-0.5-0.1-0.6-0.2c-0.2,0.1-0.4,0.2-0.6,0.2h-2.2c-0.6,0-1.1-0.5-1.1-1.1V27.3
						c0-0.6,0.5-1.1,1.1-1.1h2.3c0.2,0,0.4,0.1,0.6,0.2c0.2-0.1,0.4-0.2,0.6-0.2h2.4c0.6,0,1.1,0.5,1.1,1.1v11.8
						c0,0.6-0.5,1.1-1.1,1.1H77.7z"/>
					<path class="st1" d="M77.5,40.4c-0.2,0-0.3,0-0.5-0.1c-0.1,0.1-0.3,0.1-0.5,0.1h-2.5c-0.6,0-1.1-0.5-1.1-1.1V27.2
						c0-0.6,0.5-1.1,1.1-1.1h2.5c0.2,0,0.3,0,0.5,0.1c0.1-0.1,0.3-0.1,0.5-0.1h2.7c0.6,0,1.1,0.5,1.1,1.1v12.2
						c0,0.6-0.5,1.1-1.1,1.1H77.5z M79,38.1v-9.7h-0.3v3.7c0,0.5-0.4,1-0.9,1.1c0,0-0.1,0-0.1,0c-0.5,0-0.9-0.3-1-0.8l-1-3.9h-0.4
						v9.7h0.1v-3.9c0-0.5,0.4-1,0.9-1.1c0,0,0.1,0,0.1,0c0.5,0,0.9,0.3,1,0.8l1.1,4.1H79z"/>
				</g>
				<g>
					<path class="st1" d="M81.4,40.2c-0.3,0-0.6-0.2-0.9-0.4c-0.2-0.3-0.3-0.6-0.2-0.9l2.3-8.3h-1.1c-0.3,0-0.6-0.1-0.8-0.4
						c-0.2-0.2-0.3-0.6-0.2-0.9l0.4-2.2c0.1-0.5,0.5-0.9,1.1-0.9h5.1c0.3,0,0.6,0.2,0.8,0.4c0.2,0.3,0.3,0.6,0.2,0.9L86,35.9h0.8
						c0.3,0,0.6,0.1,0.8,0.4c0.2,0.2,0.3,0.6,0.2,0.9l-0.4,2.2c-0.1,0.5-0.5,0.9-1.1,0.9H81.4z"/>
					<path class="st1" d="M81.2,40.4c-0.3,0-0.6-0.2-0.9-0.4c-0.2-0.3-0.3-0.6-0.2-0.9l2.3-8.3h-1c-0.3,0-0.6-0.1-0.8-0.4
						c-0.2-0.2-0.3-0.6-0.2-0.9l0.5-2.5c0.1-0.5,0.5-0.9,1.1-0.9h5.5c0.3,0,0.6,0.2,0.8,0.4c0.2,0.3,0.3,0.6,0.2,0.9l-2.2,8.3H87
						c0.3,0,0.6,0.1,0.8,0.4c0.2,0.2,0.3,0.6,0.2,0.9l-0.5,2.5c-0.1,0.5-0.5,0.9-1.1,0.9H81.2z M85.5,38.1L85.5,38.1L84.6,38
						c-0.3,0-0.6-0.2-0.8-0.4c-0.2-0.3-0.3-0.6-0.2-0.9l2.2-8.3h-2.9l0,0.1h1.2c0.3,0,0.6,0.2,0.9,0.4c0.2,0.3,0.3,0.6,0.2,0.9
						l-2.3,8.3H85.5z"/>
				</g>
				<g>
					<path class="st1" d="M92.4,40.2c-0.5,0-0.9-0.3-1-0.8c-0.1,0.4-0.5,0.8-1,0.8H88c-0.3,0-0.6-0.1-0.8-0.4
						c-0.2-0.2-0.3-0.6-0.2-0.9L89,27.1c0.1-0.5,0.5-0.9,1.1-0.9h2.5c0.5,0,1,0.4,1.1,0.9L95.8,39c0.1,0.3,0,0.6-0.2,0.9
						c-0.2,0.2-0.5,0.4-0.8,0.4H92.4z"/>
					<path class="st1" d="M92.2,40.4c-0.4,0-0.7-0.2-0.9-0.5c-0.2,0.3-0.5,0.5-0.9,0.5h-2.7c-0.3,0-0.6-0.1-0.8-0.4
						c-0.2-0.2-0.3-0.6-0.2-0.9L88.9,27c0.1-0.5,0.5-0.9,1.1-0.9h2.8c0.5,0,1,0.4,1.1,0.9L96,39.1c0.1,0.3,0,0.6-0.2,0.9
						c-0.2,0.2-0.5,0.4-0.8,0.4H92.2z M93.5,38.1l-0.7-4l0.2,1.6c0,0.3-0.1,0.6-0.3,0.8c-0.1,0.1-0.1,0.1-0.2,0.2
						c0.4,0.1,0.6,0.5,0.7,0.9l0.1,0.6H93.5z M89.4,38.1l0.1-0.6c0.1-0.4,0.3-0.7,0.7-0.9c-0.1,0-0.1-0.1-0.2-0.2
						c-0.2-0.2-0.3-0.5-0.3-0.8L90,34l-0.7,4.1H89.4z M90.5,31c0.2-0.3,0.5-0.4,0.8-0.4c0,0,0,0,0,0c0.3,0,0.6,0.2,0.8,0.4l-0.5-2.5
						H91L90.5,31z"/>
				</g>
				<g>
					<path class="st1" d="M96.1,40.2c-0.6,0-1.1-0.5-1.1-1.1V27.3c0-0.6,0.5-1.1,1.1-1.1h2.4c0.6,0,1.1,0.5,1.1,1.1v8.6h1.3
						c0.3,0,0.6,0.1,0.8,0.4c0.2,0.2,0.3,0.6,0.2,0.9l-0.4,2.2c-0.1,0.5-0.5,0.9-1.1,0.9H96.1z"/>
					<path class="st1" d="M95.9,40.4c-0.6,0-1.1-0.5-1.1-1.1V27.2c0-0.6,0.5-1.1,1.1-1.1h2.7c0.6,0,1.1,0.5,1.1,1.1v8.6h1.3
						c0.3,0,0.6,0.1,0.8,0.4c0.2,0.2,0.3,0.6,0.2,0.9l-0.5,2.5c-0.1,0.5-0.5,0.9-1.1,0.9H95.9z M99.6,38.1L99.6,38.1L98.5,38
						c-0.6,0-1.1-0.5-1.1-1.1v-8.6h-0.3v9.7H99.6z"/>
				</g>
				<g>
					<path class="st1" d="M102.3,40.2c-0.6,0-1.1-0.5-1.1-1.1V27.3c0-0.6,0.5-1.1,1.1-1.1h4.6c0.5,0,1,0.4,1.1,0.9l0.4,2.2
						c0.1,0.3,0,0.6-0.2,0.9c-0.2,0.2-0.5,0.4-0.8,0.4h-1.5v0.7h0.9c0.6,0,1.1,0.5,1.1,1.1v2c0,0.6-0.5,1.1-1.1,1.1h-0.9v0.4h1.4
						c0.3,0,0.6,0.1,0.8,0.4c0.2,0.2,0.3,0.6,0.2,0.9l-0.4,2.2c-0.1,0.5-0.5,0.9-1.1,0.9H102.3z"/>
					<path class="st1" d="M102.1,40.4c-0.6,0-1.1-0.5-1.1-1.1V27.2c0-0.6,0.5-1.1,1.1-1.1h4.9c0.5,0,1,0.4,1.1,0.9l0.5,2.5
						c0.1,0.3,0,0.6-0.2,0.9c-0.2,0.2-0.5,0.4-0.8,0.4h-1.5v0.4h0.9c0.6,0,1.1,0.5,1.1,1.1v2.4c0,0.6-0.5,1.1-1.1,1.1h-0.9v0.1h1.4
						c0.3,0,0.6,0.1,0.8,0.4c0.2,0.2,0.3,0.6,0.2,0.9l-0.5,2.5c-0.1,0.5-0.5,0.9-1.1,0.9H102.1z M105.9,38.1L105.9,38.1l-1.2-0.1
						c-0.6,0-1.1-0.5-1.1-1.1v-2.6c0-0.5,0.3-0.9,0.8-1c-0.4-0.1-0.8-0.5-0.8-1v-2.8c0-0.6,0.5-1.1,1.1-1.1h1.3l0-0.1h-2.6v9.7
						H105.9z"/>
				</g>
				<g>
					<path class="st1" d="M108.4,40.2c-0.3,0-0.6-0.2-0.9-0.4c-0.2-0.3-0.3-0.6-0.2-0.9l2.3-8.3h-1.1c-0.3,0-0.6-0.1-0.8-0.4
						c-0.2-0.2-0.3-0.6-0.2-0.9l0.2-1.2c0-0.1,0-0.1,0-0.2l0.1-0.7c0.1-0.5,0.5-0.9,1-0.9h1.5c0.2,0,0.4,0.1,0.5,0.1l3.2,1.8
						c0.4,0.2,0.6,0.7,0.5,1.2l-0.2,0.8l-1.5,5.5h0.8c0.3,0,0.6,0.1,0.8,0.4c0.2,0.2,0.3,0.6,0.2,0.9l-0.4,2.2
						c-0.1,0.5-0.5,0.9-1.1,0.9H108.4z"/>
					<path class="st1" d="M108.2,40.4c-0.3,0-0.6-0.2-0.9-0.4c-0.2-0.3-0.3-0.6-0.2-0.9l2.3-8.3h-1c-0.3,0-0.6-0.1-0.8-0.4
						c-0.2-0.2-0.3-0.6-0.2-0.9l0.3-1.6c0-0.1,0-0.1,0-0.2l0.1-0.5l0-0.1c0.1-0.5,0.5-0.9,1-0.9h1.7c0.2,0,0.4,0.1,0.5,0.1l3.3,1.9
						c0.4,0.2,0.6,0.7,0.5,1.2l-0.2,0.9l-1.4,5.3h0.8c0.3,0,0.6,0.1,0.8,0.4c0.2,0.2,0.3,0.6,0.2,0.9l-0.5,2.5
						c-0.1,0.5-0.5,0.9-1.1,0.9H108.2z M112.5,38.1L112.5,38.1l-0.9-0.1c-0.3,0-0.6-0.2-0.8-0.4c-0.2-0.3-0.3-0.6-0.2-0.9l1.8-6.8
						l-0.3-0.2c0,0,0,0.1,0,0.1l-2.3,8.3H112.5z"/>
				</g>
				<g>
					<path class="st1" d="M113.7,29.9c-0.2,0-0.4,0-0.5-0.1l-3.2-1.8c-0.4-0.2-0.6-0.7-0.5-1.2c0.1-0.5,0.5-0.8,1-0.8h3.6
						c0.3,0,0.6,0.2,0.8,0.4c0.2,0.3,0.3,0.6,0.2,0.9l-0.5,1.8c-0.1,0.3-0.3,0.6-0.6,0.7C114,29.8,113.9,29.9,113.7,29.9z"/>
					<path class="st1" d="M113.8,30.1c-0.2,0-0.4,0-0.5-0.1l-3.8-2.2c-0.4-0.2-0.6-0.7-0.5-1.2c0.1-0.5,0.5-0.8,1-0.8h4.4
						c0.3,0,0.6,0.2,0.8,0.4c0.2,0.3,0.3,0.6,0.2,0.9l-0.6,2.2c-0.1,0.3-0.3,0.6-0.6,0.7C114.1,30.1,114,30.1,113.8,30.1z"/>
				</g>
			</g>
			<g>
				<g>
					<path class="st1" d="M60.6,40.1c-1,0-1.7-0.2-2.2-0.8c-0.5-0.5-0.7-1.2-0.7-2.1v-8.6c0-0.7,0.2-1.3,0.6-1.8
						c0.3-0.3,0.9-0.7,1.8-0.7h4.6c0.6,0,1.1,0.5,1.1,1.1l0,2.2c0,0.3-0.1,0.6-0.3,0.8c-0.2,0.2-0.5,0.3-0.8,0.3h-2.6v0.7
						c0.1,0,0.1,0,0.2,0h2.3c0.6,0,1.1,0.5,1.1,1.1V39c0,0.6-0.5,1.1-1.1,1.1H60.6z"/>
					<path class="st1" d="M60.6,40.2c-1,0-1.8-0.3-2.3-0.8c-0.5-0.5-0.7-1.3-0.7-2.3v-8.6c0-0.7,0.2-1.4,0.7-1.9
						c0.3-0.4,0.9-0.8,2-0.8h4.7c0.6,0,1.1,0.5,1.1,1.1l0,2.5c0,0.3-0.1,0.6-0.3,0.8c-0.2,0.2-0.5,0.3-0.8,0.3h-2.6V31h2.5
						c0.6,0,1.1,0.5,1.1,1.1v7.1c0,0.6-0.5,1.1-1.1,1.1H60.6z M59.9,37.8c0,0,0.2,0.1,0.7,0.1h3.1v-4.7h-0.2v3.6
						c0,0.6-0.5,1.1-1.1,1.1h-1.1c-0.7,0-1.3-0.6-1.3-1.3v-7c0-0.7,0.6-1.3,1.3-1.3h2.3l0-0.1h-3.5c-0.2,0-0.3,0-0.3,0
						c-0.1,0.1-0.1,0.2-0.1,0.3v8.6C59.8,37.7,59.9,37.8,59.9,37.8C59.9,37.8,59.9,37.8,59.9,37.8z"/>
				</g>
				<g>
					<path class="st1" d="M68,40.1c-0.5,0-0.9-0.1-1.2-0.2c-0.4-0.2-0.7-0.4-0.9-0.7c-0.2-0.3-0.4-0.6-0.5-0.9
						c-0.1-0.3-0.1-0.6-0.1-0.9v-7.9c0-0.4,0.2-0.8,0.6-1l4.8-2.2c0.1-0.1,0.3-0.1,0.5-0.1c0,0,0.1,0,0.1,0c0.7,0.1,1.3,0.3,1.7,0.7
						c0.4,0.5,0.7,1.1,0.7,1.8v8.6c0,0.3,0,0.6-0.1,0.9c-0.1,0.4-0.3,0.7-0.5,0.9c-0.2,0.3-0.5,0.5-0.9,0.7
						c-0.4,0.2-0.8,0.2-1.2,0.2H68z"/>
					<path class="st1" d="M68,40.2c-0.5,0-0.9-0.1-1.3-0.2c-0.4-0.2-0.7-0.4-1-0.7c-0.2-0.3-0.4-0.6-0.5-1c-0.1-0.3-0.1-0.6-0.1-1
						v-8c0-0.4,0.2-0.8,0.6-1l4.9-2.3c0.1-0.1,0.3-0.1,0.5-0.1c0,0,0.1,0,0.1,0l0,0c0.9,0.1,1.5,0.5,1.8,0.8c0.5,0.5,0.7,1.2,0.7,2
						v8.6c0,0.3,0,0.7-0.1,1c-0.1,0.4-0.3,0.7-0.5,1c-0.3,0.3-0.6,0.5-1,0.7c-0.4,0.2-0.8,0.2-1.3,0.2H68z M70.8,37.9
						c0.2,0,0.4,0,0.4-0.1c0.1,0,0.1-0.1,0.1-0.1c0,0,0-0.1,0.1-0.1c0-0.1,0-0.2,0-0.4v-8.6c0-0.2,0-0.3-0.1-0.4c0,0,0,0,0,0
						l-0.5,0.2c0.2,0.2,0.4,0.6,0.4,0.9v7.2c0,0.3-0.1,0.6-0.2,0.8c-0.1,0.1-0.3,0.3-0.6,0.4H70.8z M67.4,37.3c0,0.1,0,0.3,0,0.4
						c0,0.1,0,0.1,0.1,0.1c0,0,0.1,0.1,0.1,0.1c0,0,0.2,0.1,0.4,0.1h0.5c-0.3-0.1-0.5-0.3-0.6-0.4c-0.2-0.2-0.2-0.5-0.2-0.8V30
						l-0.2,0.1V37.3z"/>
				</g>
				<g>
					<path class="st1" d="M77.6,40.1c-0.2,0-0.5-0.1-0.6-0.2c-0.2,0.1-0.4,0.2-0.6,0.2h-2.2c-0.6,0-1.1-0.5-1.1-1.1V27.2
						c0-0.6,0.5-1.1,1.1-1.1h2.3c0.2,0,0.4,0.1,0.6,0.2c0.2-0.1,0.4-0.2,0.6-0.2H80c0.6,0,1.1,0.5,1.1,1.1V39c0,0.6-0.5,1.1-1.1,1.1
						H77.6z"/>
					<path class="st1" d="M77.4,40.2c-0.2,0-0.3,0-0.5-0.1c-0.1,0.1-0.3,0.1-0.5,0.1h-2.5c-0.6,0-1.1-0.5-1.1-1.1V27
						c0-0.6,0.5-1.1,1.1-1.1h2.5c0.2,0,0.3,0,0.5,0.1c0.1-0.1,0.3-0.1,0.5-0.1h2.7c0.6,0,1.1,0.5,1.1,1.1v12.2
						c0,0.6-0.5,1.1-1.1,1.1H77.4z M78.9,37.9v-9.7h-0.3v3.7c0,0.5-0.4,1-0.9,1.1c0,0-0.1,0-0.1,0c-0.5,0-0.9-0.3-1-0.8l-1-3.9h-0.4
						v9.7h0.1v-3.9c0-0.5,0.4-1,0.9-1.1c0,0,0.1,0,0.1,0c0.5,0,0.9,0.3,1,0.8l1.1,4.1H78.9z"/>
				</g>
				<g>
					<path class="st1" d="M81.3,40.1c-0.3,0-0.6-0.2-0.9-0.4c-0.2-0.3-0.3-0.6-0.2-0.9l2.3-8.3h-1.1c-0.3,0-0.6-0.1-0.8-0.4
						c-0.2-0.2-0.3-0.6-0.2-0.9l0.4-2.2c0.1-0.5,0.5-0.9,1.1-0.9H87c0.3,0,0.6,0.2,0.8,0.4c0.2,0.3,0.3,0.6,0.2,0.9l-2.2,8.3h0.8
						c0.3,0,0.6,0.1,0.8,0.4c0.2,0.2,0.3,0.6,0.2,0.9l-0.4,2.2c-0.1,0.5-0.5,0.9-1.1,0.9H81.3z"/>
					<path class="st1" d="M81.1,40.2c-0.3,0-0.6-0.2-0.9-0.4c-0.2-0.3-0.3-0.6-0.2-0.9l2.3-8.3h-1c-0.3,0-0.6-0.1-0.8-0.4
						c-0.2-0.2-0.3-0.6-0.2-0.9l0.5-2.5c0.1-0.5,0.5-0.9,1.1-0.9h5.5c0.3,0,0.6,0.2,0.8,0.4c0.2,0.3,0.3,0.6,0.2,0.9l-2.2,8.3h0.8
						c0.3,0,0.6,0.1,0.8,0.4c0.2,0.2,0.3,0.6,0.2,0.9l-0.5,2.5c-0.1,0.5-0.5,0.9-1.1,0.9H81.1z M85.4,37.9L85.4,37.9l-0.9-0.1
						c-0.3,0-0.6-0.2-0.8-0.4c-0.2-0.3-0.3-0.6-0.2-0.9l2.2-8.3h-2.9l0,0.1H84c0.3,0,0.6,0.2,0.9,0.4c0.2,0.3,0.3,0.6,0.2,0.9
						l-2.3,8.3H85.4z"/>
				</g>
				<g>
					<path class="st1" d="M92.3,40.1c-0.5,0-0.9-0.3-1-0.8c-0.1,0.4-0.5,0.8-1,0.8h-2.4c-0.3,0-0.6-0.1-0.8-0.4
						c-0.2-0.2-0.3-0.6-0.2-0.9L88.9,27c0.1-0.5,0.5-0.9,1.1-0.9h2.5c0.5,0,1,0.4,1.1,0.9l2.1,11.8c0.1,0.3,0,0.6-0.2,0.9
						c-0.2,0.2-0.5,0.4-0.8,0.4H92.3z"/>
					<path class="st1" d="M92.1,40.2c-0.4,0-0.7-0.2-0.9-0.5c-0.2,0.3-0.5,0.5-0.9,0.5h-2.7c-0.3,0-0.6-0.1-0.8-0.4
						c-0.2-0.2-0.3-0.6-0.2-0.9l2.2-12.2c0.1-0.5,0.5-0.9,1.1-0.9h2.8c0.5,0,1,0.4,1.1,0.9L95.9,39c0.1,0.3,0,0.6-0.2,0.9
						c-0.2,0.2-0.5,0.4-0.8,0.4H92.1z M93.4,37.9l-0.7-4l0.2,1.6c0,0.3-0.1,0.6-0.3,0.8c-0.1,0.1-0.1,0.1-0.2,0.2
						c0.4,0.1,0.6,0.5,0.7,0.9l0.1,0.6H93.4z M89.3,37.9l0.1-0.6c0.1-0.4,0.3-0.7,0.7-0.9c-0.1,0-0.1-0.1-0.2-0.2
						c-0.2-0.2-0.3-0.5-0.3-0.8l0.2-1.7l-0.7,4.1H89.3z M90.4,30.8c0.2-0.3,0.5-0.4,0.8-0.4c0,0,0,0,0,0c0.3,0,0.6,0.2,0.8,0.4
						l-0.5-2.5h-0.7L90.4,30.8z"/>
				</g>
				<g>
					<path class="st1" d="M96,40.1c-0.6,0-1.1-0.5-1.1-1.1V27.2c0-0.6,0.5-1.1,1.1-1.1h2.4c0.6,0,1.1,0.5,1.1,1.1v8.6h1.3
						c0.3,0,0.6,0.1,0.8,0.4c0.2,0.2,0.3,0.6,0.2,0.9l-0.4,2.2c-0.1,0.5-0.5,0.9-1.1,0.9H96z"/>
					<path class="st1" d="M95.8,40.2c-0.6,0-1.1-0.5-1.1-1.1V27c0-0.6,0.5-1.1,1.1-1.1h2.7c0.6,0,1.1,0.5,1.1,1.1v8.6h1.3
						c0.3,0,0.6,0.1,0.8,0.4c0.2,0.2,0.3,0.6,0.2,0.9l-0.5,2.5c-0.1,0.5-0.5,0.9-1.1,0.9H95.8z M99.5,37.9L99.5,37.9l-1.1-0.1
						c-0.6,0-1.1-0.5-1.1-1.1v-8.6H97v9.7H99.5z"/>
				</g>
				<g>
					<path class="st1" d="M102.2,40.1c-0.6,0-1.1-0.5-1.1-1.1V27.2c0-0.6,0.5-1.1,1.1-1.1h4.6c0.5,0,1,0.4,1.1,0.9l0.4,2.2
						c0.1,0.3,0,0.6-0.2,0.9c-0.2,0.2-0.5,0.4-0.8,0.4h-1.5v0.7h0.9c0.6,0,1.1,0.5,1.1,1.1v2c0,0.6-0.5,1.1-1.1,1.1h-0.9v0.4h1.4
						c0.3,0,0.6,0.1,0.8,0.4c0.2,0.2,0.3,0.6,0.2,0.9l-0.4,2.2c-0.1,0.5-0.5,0.9-1.1,0.9H102.2z"/>
					<path class="st1" d="M102,40.2c-0.6,0-1.1-0.5-1.1-1.1V27c0-0.6,0.5-1.1,1.1-1.1h4.9c0.5,0,1,0.4,1.1,0.9l0.5,2.5
						c0.1,0.3,0,0.6-0.2,0.9c-0.2,0.2-0.5,0.4-0.8,0.4h-1.5V31h0.9c0.6,0,1.1,0.5,1.1,1.1v2.4c0,0.6-0.5,1.1-1.1,1.1h-0.9v0.1h1.4
						c0.3,0,0.6,0.1,0.8,0.4c0.2,0.2,0.3,0.6,0.2,0.9l-0.5,2.5c-0.1,0.5-0.5,0.9-1.1,0.9H102z M105.8,37.9L105.8,37.9l-1.2-0.1
						c-0.6,0-1.1-0.5-1.1-1.1v-2.6c0-0.5,0.3-0.9,0.8-1c-0.4-0.1-0.8-0.5-0.8-1v-2.8c0-0.6,0.5-1.1,1.1-1.1h1.3l0-0.1h-2.6v9.7
						H105.8z"/>
				</g>
				<g>
					<path class="st1" d="M108.3,40.1c-0.3,0-0.6-0.2-0.9-0.4c-0.2-0.3-0.3-0.6-0.2-0.9l2.3-8.3h-1.1c-0.3,0-0.6-0.1-0.8-0.4
						c-0.2-0.2-0.3-0.6-0.2-0.9l0.2-1.2c0-0.1,0-0.1,0-0.2l0.1-0.7c0.1-0.5,0.5-0.9,1-0.9h1.5c0.2,0,0.4,0.1,0.5,0.1l3.2,1.8
						c0.4,0.2,0.6,0.7,0.5,1.2l-0.2,0.8l-1.5,5.5h0.8c0.3,0,0.6,0.1,0.8,0.4c0.2,0.2,0.3,0.6,0.2,0.9l-0.4,2.2
						c-0.1,0.5-0.5,0.9-1.1,0.9H108.3z"/>
					<path class="st1" d="M108.1,40.2c-0.3,0-0.6-0.2-0.9-0.4c-0.2-0.3-0.3-0.6-0.2-0.9l2.3-8.3h-1c-0.3,0-0.6-0.1-0.8-0.4
						c-0.2-0.2-0.3-0.6-0.2-0.9l0.3-1.6c0-0.1,0-0.1,0-0.2l0.1-0.5l0-0.1c0.1-0.5,0.5-0.9,1-0.9h1.7c0.2,0,0.4,0.1,0.5,0.1l3.3,1.9
						c0.4,0.2,0.6,0.7,0.5,1.2l-0.2,0.9l-1.4,5.3h0.8c0.3,0,0.6,0.1,0.8,0.4c0.2,0.2,0.3,0.6,0.2,0.9l-0.5,2.5
						c-0.1,0.5-0.5,0.9-1.1,0.9H108.1z M112.4,37.9L112.4,37.9l-0.9-0.1c-0.3,0-0.6-0.2-0.8-0.4c-0.2-0.3-0.3-0.6-0.2-0.9l1.8-6.8
						l-0.3-0.2c0,0,0,0.1,0,0.1l-2.3,8.3H112.4z"/>
				</g>
				<g>
					<path class="st1" d="M113.6,29.7c-0.2,0-0.4,0-0.5-0.1l-3.2-1.8c-0.4-0.2-0.6-0.7-0.5-1.2c0.1-0.5,0.5-0.8,1-0.8h3.6
						c0.3,0,0.6,0.2,0.8,0.4s0.3,0.6,0.2,0.9l-0.5,1.8c-0.1,0.3-0.3,0.6-0.6,0.7C113.9,29.7,113.8,29.7,113.6,29.7z"/>
					<path class="st1" d="M113.7,29.9c-0.2,0-0.4,0-0.5-0.1l-3.8-2.2c-0.4-0.2-0.6-0.7-0.5-1.2c0.1-0.5,0.5-0.8,1-0.8h4.4
						c0.3,0,0.6,0.2,0.8,0.4c0.2,0.3,0.3,0.6,0.2,0.9l-0.6,2.2c-0.1,0.3-0.3,0.6-0.6,0.7C114,29.9,113.9,29.9,113.7,29.9z"/>
				</g>
			</g>
			<g>
				<g>
					<path class="st1" d="M60.5,39.9c-1,0-1.7-0.2-2.2-0.8c-0.5-0.5-0.7-1.2-0.7-2.1v-8.6c0-0.7,0.2-1.3,0.6-1.8
						c0.3-0.3,0.9-0.7,1.8-0.7h4.6c0.6,0,1.1,0.5,1.1,1.1l0,2.2c0,0.3-0.1,0.6-0.3,0.8c-0.2,0.2-0.5,0.3-0.8,0.3h-2.6V31
						c0.1,0,0.1,0,0.2,0h2.3c0.6,0,1.1,0.5,1.1,1.1v6.8c0,0.6-0.5,1.1-1.1,1.1H60.5z"/>
					<path class="st1" d="M60.5,40.1c-1,0-1.8-0.3-2.3-0.8c-0.5-0.5-0.7-1.3-0.7-2.3v-8.6c0-0.7,0.2-1.4,0.7-1.9
						c0.3-0.4,0.9-0.8,2-0.8h4.7c0.6,0,1.1,0.5,1.1,1.1l0,2.5c0,0.3-0.1,0.6-0.3,0.8c-0.2,0.2-0.5,0.3-0.8,0.3h-2.6v0.4h2.5
						c0.6,0,1.1,0.5,1.1,1.1V39c0,0.6-0.5,1.1-1.1,1.1H60.5z M59.8,37.7c0,0,0.2,0.1,0.7,0.1h3.1v-4.7h-0.2v3.6
						c0,0.6-0.5,1.1-1.1,1.1h-1.1c-0.7,0-1.3-0.6-1.3-1.3v-7c0-0.7,0.6-1.3,1.3-1.3h2.3l0-0.1h-3.5c-0.2,0-0.3,0-0.3,0
						c-0.1,0.1-0.1,0.2-0.1,0.3V37C59.7,37.5,59.8,37.7,59.8,37.7C59.8,37.7,59.8,37.7,59.8,37.7z"/>
				</g>
				<g>
					<path class="st1" d="M67.9,39.9c-0.5,0-0.9-0.1-1.2-0.2c-0.4-0.2-0.7-0.4-0.9-0.7c-0.2-0.3-0.4-0.6-0.5-0.9
						c-0.1-0.3-0.1-0.6-0.1-0.9v-7.9c0-0.4,0.2-0.8,0.6-1l4.8-2.2c0.1-0.1,0.3-0.1,0.5-0.1c0,0,0.1,0,0.1,0c0.7,0.1,1.3,0.3,1.7,0.7
						c0.4,0.5,0.7,1.1,0.7,1.8v8.6c0,0.3,0,0.6-0.1,0.9c-0.1,0.4-0.3,0.7-0.5,0.9c-0.2,0.3-0.5,0.5-0.9,0.7
						c-0.4,0.2-0.8,0.2-1.2,0.2H67.9z"/>
					<path class="st1" d="M67.9,40.1c-0.5,0-0.9-0.1-1.3-0.2c-0.4-0.2-0.7-0.4-1-0.7c-0.2-0.3-0.4-0.6-0.5-1c-0.1-0.3-0.1-0.6-0.1-1
						v-8c0-0.4,0.2-0.8,0.6-1l4.9-2.3c0.1-0.1,0.3-0.1,0.5-0.1c0,0,0.1,0,0.1,0l0,0c0.9,0.1,1.5,0.5,1.8,0.8c0.5,0.5,0.7,1.2,0.7,2
						v8.6c0,0.3,0,0.7-0.1,1c-0.1,0.4-0.3,0.7-0.5,1c-0.3,0.3-0.6,0.5-1,0.7c-0.4,0.2-0.8,0.2-1.3,0.2H67.9z M70.7,37.8
						c0.2,0,0.4,0,0.4-0.1c0.1,0,0.1-0.1,0.1-0.1c0,0,0-0.1,0.1-0.1c0-0.1,0-0.2,0-0.4v-8.6c0-0.2,0-0.3-0.1-0.4c0,0,0,0,0,0
						l-0.5,0.2c0.2,0.2,0.4,0.6,0.4,0.9v7.2c0,0.3-0.1,0.6-0.2,0.8c-0.1,0.1-0.3,0.3-0.6,0.4H70.7z M67.3,37.2c0,0.1,0,0.3,0,0.4
						c0,0.1,0,0.1,0.1,0.1c0,0,0.1,0.1,0.1,0.1c0,0,0.2,0.1,0.4,0.1h0.5c-0.3-0.1-0.5-0.3-0.6-0.4c-0.2-0.2-0.2-0.5-0.2-0.8v-6.7
						l-0.2,0.1V37.2z"/>
				</g>
				<g>
					<path class="st1" d="M77.4,39.9c-0.2,0-0.5-0.1-0.6-0.2c-0.2,0.1-0.4,0.2-0.6,0.2H74c-0.6,0-1.1-0.5-1.1-1.1V27
						c0-0.6,0.5-1.1,1.1-1.1h2.3c0.2,0,0.4,0.1,0.6,0.2c0.2-0.1,0.4-0.2,0.6-0.2h2.4c0.6,0,1.1,0.5,1.1,1.1v11.8
						c0,0.6-0.5,1.1-1.1,1.1H77.4z"/>
					<path class="st1" d="M77.3,40.1c-0.2,0-0.3,0-0.5-0.1c-0.1,0.1-0.3,0.1-0.5,0.1h-2.5c-0.6,0-1.1-0.5-1.1-1.1V26.8
						c0-0.6,0.5-1.1,1.1-1.1h2.5c0.2,0,0.3,0,0.5,0.1c0.1-0.1,0.3-0.1,0.5-0.1H80c0.6,0,1.1,0.5,1.1,1.1V39c0,0.6-0.5,1.1-1.1,1.1
						H77.3z M78.8,37.8v-9.7h-0.3v3.7c0,0.5-0.4,1-0.9,1.1c0,0-0.1,0-0.1,0c-0.5,0-0.9-0.3-1-0.8l-1-3.9H75v9.7h0.1v-3.9
						c0-0.5,0.4-1,0.9-1.1c0,0,0.1,0,0.1,0c0.5,0,0.9,0.3,1,0.8l1.1,4.1H78.8z"/>
				</g>
				<g>
					<path class="st1" d="M81.2,39.9c-0.3,0-0.6-0.2-0.9-0.4c-0.2-0.3-0.3-0.6-0.2-0.9l2.3-8.3h-1.1c-0.3,0-0.6-0.1-0.8-0.4
						c-0.2-0.2-0.3-0.6-0.2-0.9l0.4-2.2c0.1-0.5,0.5-0.9,1.1-0.9h5.1c0.3,0,0.6,0.2,0.8,0.4c0.2,0.3,0.3,0.6,0.2,0.9l-2.2,8.3h0.8
						c0.3,0,0.6,0.1,0.8,0.4c0.2,0.2,0.3,0.6,0.2,0.9L87.2,39c-0.1,0.5-0.5,0.9-1.1,0.9H81.2z"/>
					<path class="st1" d="M81,40.1c-0.3,0-0.6-0.2-0.9-0.4c-0.2-0.3-0.3-0.6-0.2-0.9l2.3-8.3h-1c-0.3,0-0.6-0.1-0.8-0.4
						c-0.2-0.2-0.3-0.6-0.2-0.9l0.5-2.5c0.1-0.5,0.5-0.9,1.1-0.9h5.5c0.3,0,0.6,0.2,0.8,0.4c0.2,0.3,0.3,0.6,0.2,0.9L86,35.4h0.8
						c0.3,0,0.6,0.1,0.8,0.4c0.2,0.2,0.3,0.6,0.2,0.9l-0.5,2.5c-0.1,0.5-0.5,0.9-1.1,0.9H81z M85.3,37.8L85.3,37.8l-0.9-0.1
						c-0.3,0-0.6-0.2-0.8-0.4c-0.2-0.3-0.3-0.6-0.2-0.9l2.2-8.3h-2.9l0,0.1h1.2c0.3,0,0.6,0.2,0.9,0.4c0.2,0.3,0.3,0.6,0.2,0.9
						l-2.3,8.3H85.3z"/>
				</g>
				<g>
					<path class="st1" d="M92.2,39.9c-0.5,0-0.9-0.3-1-0.8c-0.1,0.4-0.5,0.8-1,0.8h-2.4c-0.3,0-0.6-0.1-0.8-0.4
						c-0.2-0.2-0.3-0.6-0.2-0.9l2.1-11.8c0.1-0.5,0.5-0.9,1.1-0.9h2.5c0.5,0,1,0.4,1.1,0.9l2.1,11.8c0.1,0.3,0,0.6-0.2,0.9
						c-0.2,0.2-0.5,0.4-0.8,0.4H92.2z"/>
					<path class="st1" d="M92,40.1c-0.4,0-0.7-0.2-0.9-0.5c-0.2,0.3-0.5,0.5-0.9,0.5h-2.7c-0.3,0-0.6-0.1-0.8-0.4
						c-0.2-0.2-0.3-0.6-0.2-0.9l2.2-12.2c0.1-0.5,0.5-0.9,1.1-0.9h2.8c0.5,0,1,0.4,1.1,0.9l2.2,12.2c0.1,0.3,0,0.6-0.2,0.9
						c-0.2,0.2-0.5,0.4-0.8,0.4H92z M93.3,37.8l-0.7-4l0.2,1.6c0,0.3-0.1,0.6-0.3,0.8c-0.1,0.1-0.1,0.1-0.2,0.2
						c0.4,0.1,0.6,0.5,0.7,0.9l0.1,0.6H93.3z M89.2,37.8l0.1-0.6c0.1-0.4,0.3-0.7,0.7-0.9c-0.1,0-0.1-0.1-0.2-0.2
						c-0.2-0.2-0.3-0.5-0.3-0.8l0.2-1.7L89,37.8H89.2z M90.3,30.6c0.2-0.3,0.5-0.4,0.8-0.4c0,0,0,0,0,0c0.3,0,0.6,0.2,0.8,0.4
						l-0.5-2.5h-0.7L90.3,30.6z"/>
				</g>
				<g>
					<path class="st1" d="M95.8,39.9c-0.6,0-1.1-0.5-1.1-1.1V27c0-0.6,0.5-1.1,1.1-1.1h2.4c0.6,0,1.1,0.5,1.1,1.1v8.6h1.3
						c0.3,0,0.6,0.1,0.8,0.4c0.2,0.2,0.3,0.6,0.2,0.9l-0.4,2.2c-0.1,0.5-0.5,0.9-1.1,0.9H95.8z"/>
					<path class="st1" d="M95.7,40.1c-0.6,0-1.1-0.5-1.1-1.1V26.8c0-0.6,0.5-1.1,1.1-1.1h2.7c0.6,0,1.1,0.5,1.1,1.1v8.6h1.3
						c0.3,0,0.6,0.1,0.8,0.4c0.2,0.2,0.3,0.6,0.2,0.9l-0.5,2.5c-0.1,0.5-0.5,0.9-1.1,0.9H95.7z M99.4,37.8L99.4,37.8l-1.1-0.1
						c-0.6,0-1.1-0.5-1.1-1.1v-8.6h-0.3v9.7H99.4z"/>
				</g>
				<g>
					<path class="st1" d="M102,39.9c-0.6,0-1.1-0.5-1.1-1.1V27c0-0.6,0.5-1.1,1.1-1.1h4.6c0.5,0,1,0.4,1.1,0.9l0.4,2.2
						c0.1,0.3,0,0.6-0.2,0.9c-0.2,0.2-0.5,0.4-0.8,0.4h-1.5v0.7h0.9c0.6,0,1.1,0.5,1.1,1.1v2c0,0.6-0.5,1.1-1.1,1.1h-0.9v0.4h1.4
						c0.3,0,0.6,0.1,0.8,0.4c0.2,0.2,0.3,0.6,0.2,0.9l-0.4,2.2c-0.1,0.5-0.5,0.9-1.1,0.9H102z"/>
					<path class="st1" d="M101.9,40.1c-0.6,0-1.1-0.5-1.1-1.1V26.8c0-0.6,0.5-1.1,1.1-1.1h4.9c0.5,0,1,0.4,1.1,0.9l0.5,2.5
						c0.1,0.3,0,0.6-0.2,0.9c-0.2,0.2-0.5,0.4-0.8,0.4h-1.5v0.4h0.9c0.6,0,1.1,0.5,1.1,1.1v2.4c0,0.6-0.5,1.1-1.1,1.1h-0.9v0.1h1.4
						c0.3,0,0.6,0.1,0.8,0.4c0.2,0.2,0.3,0.6,0.2,0.9l-0.5,2.5c-0.1,0.5-0.5,0.9-1.1,0.9H101.9z M105.7,37.8L105.7,37.8l-1.2-0.1
						c-0.6,0-1.1-0.5-1.1-1.1V34c0-0.5,0.3-0.9,0.8-1c-0.4-0.1-0.8-0.5-0.8-1v-2.8c0-0.6,0.5-1.1,1.1-1.1h1.3l0-0.1h-2.6v9.7H105.7z
						"/>
				</g>
				<g>
					<path class="st1" d="M108.2,39.9c-0.3,0-0.6-0.2-0.9-0.4c-0.2-0.3-0.3-0.6-0.2-0.9l2.3-8.3h-1.1c-0.3,0-0.6-0.1-0.8-0.4
						c-0.2-0.2-0.3-0.6-0.2-0.9l0.2-1.2c0-0.1,0-0.1,0-0.2l0.1-0.7c0.1-0.5,0.5-0.9,1-0.9h1.5c0.2,0,0.4,0.1,0.5,0.1l3.2,1.8
						c0.4,0.2,0.6,0.7,0.5,1.2l-0.2,0.8l-1.5,5.5h0.8c0.3,0,0.6,0.1,0.8,0.4c0.2,0.2,0.3,0.6,0.2,0.9l-0.4,2.2
						c-0.1,0.5-0.5,0.9-1.1,0.9H108.2z"/>
					<path class="st1" d="M108,40.1c-0.3,0-0.6-0.2-0.9-0.4c-0.2-0.3-0.3-0.6-0.2-0.9l2.3-8.3h-1c-0.3,0-0.6-0.1-0.8-0.4
						c-0.2-0.2-0.3-0.6-0.2-0.9l0.3-1.6c0-0.1,0-0.1,0-0.2l0.1-0.5l0-0.1c0.1-0.5,0.5-0.9,1-0.9h1.7c0.2,0,0.4,0.1,0.5,0.1l3.3,1.9
						c0.4,0.2,0.6,0.7,0.5,1.2l-0.2,0.9l-1.4,5.3h0.8c0.3,0,0.6,0.1,0.8,0.4c0.2,0.2,0.3,0.6,0.2,0.9l-0.5,2.5
						c-0.1,0.5-0.5,0.9-1.1,0.9H108z M112.3,37.8L112.3,37.8l-0.9-0.1c-0.3,0-0.6-0.2-0.8-0.4c-0.2-0.3-0.3-0.6-0.2-0.9l1.8-6.8
						l-0.3-0.2c0,0,0,0.1,0,0.1l-2.3,8.3H112.3z"/>
				</g>
				<g>
					<path class="st1" d="M113.5,29.5c-0.2,0-0.4,0-0.5-0.1l-3.2-1.8c-0.4-0.2-0.6-0.7-0.5-1.2c0.1-0.5,0.5-0.8,1-0.8h3.6
						c0.3,0,0.6,0.2,0.8,0.4s0.3,0.6,0.2,0.9l-0.5,1.8c-0.1,0.3-0.3,0.6-0.6,0.7C113.8,29.5,113.7,29.5,113.5,29.5z"/>
					<path class="st1" d="M113.6,29.8c-0.2,0-0.4,0-0.5-0.1l-3.8-2.2c-0.4-0.2-0.6-0.7-0.5-1.2c0.1-0.5,0.5-0.8,1-0.8h4.4
						c0.3,0,0.6,0.2,0.8,0.4c0.2,0.3,0.3,0.6,0.2,0.9l-0.6,2.2c-0.1,0.3-0.3,0.6-0.6,0.7C113.9,29.7,113.8,29.8,113.6,29.8z"/>
				</g>
			</g>
			<g>
				<g>
					<path class="st1" d="M60.4,39.7c-1,0-1.7-0.2-2.2-0.8c-0.5-0.5-0.7-1.2-0.7-2.1v-8.6c0-0.7,0.2-1.3,0.6-1.8
						c0.3-0.3,0.9-0.7,1.8-0.7h4.6c0.6,0,1.1,0.5,1.1,1.1l0,2.2c0,0.3-0.1,0.6-0.3,0.8c-0.2,0.2-0.5,0.3-0.8,0.3H62v0.7
						c0.1,0,0.1,0,0.2,0h2.3c0.6,0,1.1,0.5,1.1,1.1v6.8c0,0.6-0.5,1.1-1.1,1.1H60.4z"/>
					<path class="st1" d="M60.4,39.9c-1,0-1.8-0.3-2.3-0.8c-0.5-0.5-0.7-1.3-0.7-2.3v-8.6c0-0.7,0.2-1.4,0.7-1.9
						c0.3-0.4,0.9-0.8,2-0.8h4.7c0.6,0,1.1,0.5,1.1,1.1l0,2.5c0,0.3-0.1,0.6-0.3,0.8c-0.2,0.2-0.5,0.3-0.8,0.3h-2.6v0.4h2.5
						c0.6,0,1.1,0.5,1.1,1.1v7.1c0,0.6-0.5,1.1-1.1,1.1H60.4z M59.7,37.5c0,0,0.2,0.1,0.7,0.1h3.1v-4.7h-0.2v3.6
						c0,0.6-0.5,1.1-1.1,1.1h-1.1c-0.7,0-1.3-0.6-1.3-1.3v-7c0-0.7,0.6-1.3,1.3-1.3h2.3l0-0.1h-3.5c-0.2,0-0.3,0-0.3,0
						c-0.1,0.1-0.1,0.2-0.1,0.3v8.6C59.6,37.3,59.7,37.5,59.7,37.5C59.7,37.5,59.7,37.5,59.7,37.5z"/>
				</g>
				<g>
					<path class="st1" d="M67.8,39.7c-0.5,0-0.9-0.1-1.2-0.2c-0.4-0.2-0.7-0.4-0.9-0.7c-0.2-0.3-0.4-0.6-0.5-0.9
						C65.1,37.6,65,37.3,65,37v-7.9c0-0.4,0.2-0.8,0.6-1l4.8-2.2c0.1-0.1,0.3-0.1,0.5-0.1c0,0,0.1,0,0.1,0c0.7,0.1,1.3,0.3,1.7,0.7
						c0.4,0.5,0.7,1.1,0.7,1.8V37c0,0.3,0,0.6-0.1,0.9c-0.1,0.4-0.3,0.7-0.5,0.9c-0.2,0.3-0.5,0.5-0.9,0.7c-0.4,0.2-0.8,0.2-1.2,0.2
						H67.8z"/>
					<path class="st1" d="M67.8,39.9c-0.5,0-0.9-0.1-1.3-0.2c-0.4-0.2-0.7-0.4-1-0.7c-0.2-0.3-0.4-0.6-0.5-1c-0.1-0.3-0.1-0.6-0.1-1
						v-8c0-0.4,0.2-0.8,0.6-1l4.9-2.3c0.1-0.1,0.3-0.1,0.5-0.1c0,0,0.1,0,0.1,0l0,0c0.9,0.1,1.5,0.5,1.8,0.8c0.5,0.5,0.7,1.2,0.7,2
						V37c0,0.3,0,0.7-0.1,1c-0.1,0.4-0.3,0.7-0.5,1c-0.3,0.3-0.6,0.5-1,0.7c-0.4,0.2-0.8,0.2-1.3,0.2H67.8z M70.5,37.6
						c0.2,0,0.4,0,0.4-0.1c0.1,0,0.1-0.1,0.1-0.1c0,0,0-0.1,0.1-0.1c0-0.1,0-0.2,0-0.4v-8.6c0-0.2,0-0.3-0.1-0.4c0,0,0,0,0,0
						l-0.5,0.2c0.2,0.2,0.4,0.6,0.4,0.9v7.2c0,0.3-0.1,0.6-0.2,0.8c-0.1,0.1-0.3,0.3-0.6,0.4H70.5z M67.2,37c0,0.1,0,0.3,0,0.4
						c0,0.1,0,0.1,0.1,0.1c0,0,0.1,0.1,0.1,0.1c0,0,0.2,0.1,0.4,0.1h0.5c-0.3-0.1-0.5-0.3-0.6-0.4c-0.2-0.2-0.2-0.5-0.2-0.8v-6.7
						l-0.2,0.1V37z"/>
				</g>
				<g>
					<path class="st1" d="M77.3,39.7c-0.2,0-0.5-0.1-0.6-0.2c-0.2,0.1-0.4,0.2-0.6,0.2h-2.2c-0.6,0-1.1-0.5-1.1-1.1V26.8
						c0-0.6,0.5-1.1,1.1-1.1h2.3c0.2,0,0.4,0.1,0.6,0.2c0.2-0.1,0.4-0.2,0.6-0.2h2.4c0.6,0,1.1,0.5,1.1,1.1v11.8
						c0,0.6-0.5,1.1-1.1,1.1H77.3z"/>
					<path class="st1" d="M77.2,39.9c-0.2,0-0.3,0-0.5-0.1c-0.1,0.1-0.3,0.1-0.5,0.1h-2.5c-0.6,0-1.1-0.5-1.1-1.1V26.7
						c0-0.6,0.5-1.1,1.1-1.1h2.5c0.2,0,0.3,0,0.5,0.1c0.1-0.1,0.3-0.1,0.5-0.1h2.7c0.6,0,1.1,0.5,1.1,1.1v12.2
						c0,0.6-0.5,1.1-1.1,1.1H77.2z M78.7,37.6v-9.7h-0.3v3.7c0,0.5-0.4,1-0.9,1.1c0,0-0.1,0-0.1,0c-0.5,0-0.9-0.3-1-0.8l-1-3.9h-0.4
						v9.7H75v-3.9c0-0.5,0.4-1,0.9-1.1c0,0,0.1,0,0.1,0c0.5,0,0.9,0.3,1,0.8l1.1,4.1H78.7z"/>
				</g>
				<g>
					<path class="st1" d="M81.1,39.7c-0.3,0-0.6-0.2-0.9-0.4C80,39,79.9,38.7,80,38.4l2.3-8.3h-1.1c-0.3,0-0.6-0.1-0.8-0.4
						c-0.2-0.2-0.3-0.6-0.2-0.9l0.4-2.2c0.1-0.5,0.5-0.9,1.1-0.9h5.1c0.3,0,0.6,0.2,0.8,0.4c0.2,0.3,0.3,0.6,0.2,0.9l-2.2,8.3h0.8
						c0.3,0,0.6,0.1,0.8,0.4c0.2,0.2,0.3,0.6,0.2,0.9l-0.4,2.2c-0.1,0.5-0.5,0.9-1.1,0.9H81.1z"/>
					<path class="st1" d="M80.9,39.9c-0.3,0-0.6-0.2-0.9-0.4c-0.2-0.3-0.3-0.6-0.2-0.9l2.3-8.3h-1c-0.3,0-0.6-0.1-0.8-0.4
						C80,29.6,80,29.3,80,29l0.5-2.5c0.1-0.5,0.5-0.9,1.1-0.9H87c0.3,0,0.6,0.2,0.8,0.4c0.2,0.3,0.3,0.6,0.2,0.9l-2.2,8.3h0.8
						c0.3,0,0.6,0.1,0.8,0.4c0.2,0.2,0.3,0.6,0.2,0.9L87.2,39c-0.1,0.5-0.5,0.9-1.1,0.9H80.9z M85.2,37.6L85.2,37.6l-0.9-0.1
						c-0.3,0-0.6-0.2-0.8-0.4c-0.2-0.3-0.3-0.6-0.2-0.9l2.2-8.3h-2.9l0,0.1h1.2c0.3,0,0.6,0.2,0.9,0.4c0.2,0.3,0.3,0.6,0.2,0.9
						l-2.3,8.3H85.2z"/>
				</g>
				<g>
					<path class="st1" d="M92,39.7c-0.5,0-0.9-0.3-1-0.8c-0.1,0.4-0.5,0.8-1,0.8h-2.4c-0.3,0-0.6-0.1-0.8-0.4
						c-0.2-0.2-0.3-0.6-0.2-0.9l2.1-11.8c0.1-0.5,0.5-0.9,1.1-0.9h2.5c0.5,0,1,0.4,1.1,0.9l2.1,11.8c0.1,0.3,0,0.6-0.2,0.9
						c-0.2,0.2-0.5,0.4-0.8,0.4H92z"/>
					<path class="st1" d="M91.9,39.9c-0.4,0-0.7-0.2-0.9-0.5c-0.2,0.3-0.5,0.5-0.9,0.5h-2.7c-0.3,0-0.6-0.1-0.8-0.4
						c-0.2-0.2-0.3-0.6-0.2-0.9l2.2-12.2c0.1-0.5,0.5-0.9,1.1-0.9h2.8c0.5,0,1,0.4,1.1,0.9l2.2,12.2c0.1,0.3,0,0.6-0.2,0.9
						c-0.2,0.2-0.5,0.4-0.8,0.4H91.9z M93.1,37.6l-0.7-4l0.2,1.6c0,0.3-0.1,0.6-0.3,0.8c-0.1,0.1-0.1,0.1-0.2,0.2
						c0.4,0.1,0.6,0.5,0.7,0.9l0.1,0.6H93.1z M89.1,37.6l0.1-0.6c0.1-0.4,0.3-0.7,0.7-0.9c-0.1,0-0.1-0.1-0.2-0.2
						c-0.2-0.2-0.3-0.5-0.3-0.8l0.2-1.7l-0.7,4.1H89.1z M90.2,30.5c0.2-0.3,0.5-0.4,0.8-0.4c0,0,0,0,0,0c0.3,0,0.6,0.2,0.8,0.4
						l-0.5-2.5h-0.7L90.2,30.5z"/>
				</g>
				<g>
					<path class="st1" d="M95.7,39.7c-0.6,0-1.1-0.5-1.1-1.1V26.8c0-0.6,0.5-1.1,1.1-1.1h2.4c0.6,0,1.1,0.5,1.1,1.1v8.6h1.3
						c0.3,0,0.6,0.1,0.8,0.4c0.2,0.2,0.3,0.6,0.2,0.9l-0.4,2.2c-0.1,0.5-0.5,0.9-1.1,0.9H95.7z"/>
					<path class="st1" d="M95.6,39.9c-0.6,0-1.1-0.5-1.1-1.1V26.7c0-0.6,0.5-1.1,1.1-1.1h2.7c0.6,0,1.1,0.5,1.1,1.1v8.6h1.3
						c0.3,0,0.6,0.1,0.8,0.4c0.2,0.2,0.3,0.6,0.2,0.9l-0.5,2.5c-0.1,0.5-0.5,0.9-1.1,0.9H95.6z M99.2,37.6L99.2,37.6l-1.1-0.1
						c-0.6,0-1.1-0.5-1.1-1.1v-8.6h-0.3v9.7H99.2z"/>
				</g>
				<g>
					<path class="st1" d="M101.9,39.7c-0.6,0-1.1-0.5-1.1-1.1V26.8c0-0.6,0.5-1.1,1.1-1.1h4.6c0.5,0,1,0.4,1.1,0.9l0.4,2.2
						c0.1,0.3,0,0.6-0.2,0.9c-0.2,0.2-0.5,0.4-0.8,0.4h-1.5v0.7h0.9c0.6,0,1.1,0.5,1.1,1.1v2c0,0.6-0.5,1.1-1.1,1.1h-0.9v0.4h1.4
						c0.3,0,0.6,0.1,0.8,0.4c0.2,0.2,0.3,0.6,0.2,0.9l-0.4,2.2c-0.1,0.5-0.5,0.9-1.1,0.9H101.9z"/>
					<path class="st1" d="M101.8,39.9c-0.6,0-1.1-0.5-1.1-1.1V26.7c0-0.6,0.5-1.1,1.1-1.1h4.9c0.5,0,1,0.4,1.1,0.9l0.5,2.5
						c0.1,0.3,0,0.6-0.2,0.9c-0.2,0.2-0.5,0.4-0.8,0.4h-1.5v0.4h0.9c0.6,0,1.1,0.5,1.1,1.1V34c0,0.6-0.5,1.1-1.1,1.1h-0.9v0.1h1.4
						c0.3,0,0.6,0.1,0.8,0.4c0.2,0.2,0.3,0.6,0.2,0.9l-0.5,2.5c-0.1,0.5-0.5,0.9-1.1,0.9H101.8z M105.5,37.6L105.5,37.6l-1.2-0.1
						c-0.6,0-1.1-0.5-1.1-1.1v-2.6c0-0.5,0.3-0.9,0.8-1c-0.4-0.1-0.8-0.5-0.8-1V29c0-0.6,0.5-1.1,1.1-1.1h1.3l0-0.1H103v9.7H105.5z"
						/>
				</g>
				<g>
					<path class="st1" d="M108.1,39.7c-0.3,0-0.6-0.2-0.9-0.4c-0.2-0.3-0.3-0.6-0.2-0.9l2.3-8.3h-1.1c-0.3,0-0.6-0.1-0.8-0.4
						c-0.2-0.2-0.3-0.6-0.2-0.9l0.2-1.2c0-0.1,0-0.1,0-0.2l0.1-0.7c0.1-0.5,0.5-0.9,1-0.9h1.5c0.2,0,0.4,0.1,0.5,0.1l3.2,1.8
						c0.4,0.2,0.6,0.7,0.5,1.2l-0.2,0.8l-1.5,5.5h0.8c0.3,0,0.6,0.1,0.8,0.4c0.2,0.2,0.3,0.6,0.2,0.9l-0.4,2.2
						c-0.1,0.5-0.5,0.9-1.1,0.9H108.1z"/>
					<path class="st1" d="M107.8,39.9c-0.3,0-0.6-0.2-0.9-0.4c-0.2-0.3-0.3-0.6-0.2-0.9l2.3-8.3h-1c-0.3,0-0.6-0.1-0.8-0.4
						c-0.2-0.2-0.3-0.6-0.2-0.9l0.3-1.6c0-0.1,0-0.1,0-0.2l0.1-0.5l0-0.1c0.1-0.5,0.5-0.9,1-0.9h1.7c0.2,0,0.4,0.1,0.5,0.1l3.3,1.9
						c0.4,0.2,0.6,0.7,0.5,1.2l-0.2,0.9l-1.4,5.3h0.8c0.3,0,0.6,0.1,0.8,0.4c0.2,0.2,0.3,0.6,0.2,0.9l-0.5,2.5
						c-0.1,0.5-0.5,0.9-1.1,0.9H107.8z M112.2,37.6L112.2,37.6l-0.9-0.1c-0.3,0-0.6-0.2-0.8-0.4c-0.2-0.3-0.3-0.6-0.2-0.9l1.8-6.8
						l-0.3-0.2c0,0,0,0.1,0,0.1l-2.3,8.3H112.2z"/>
				</g>
				<g>
					<path class="st1" d="M113.4,29.3c-0.2,0-0.4,0-0.5-0.1l-3.2-1.8c-0.4-0.2-0.6-0.7-0.5-1.2c0.1-0.5,0.5-0.8,1-0.8h3.6
						c0.3,0,0.6,0.2,0.8,0.4c0.2,0.3,0.3,0.6,0.2,0.9l-0.5,1.8c-0.1,0.3-0.3,0.6-0.6,0.7C113.7,29.3,113.5,29.3,113.4,29.3z"/>
					<path class="st1" d="M113.5,29.6c-0.2,0-0.4,0-0.5-0.1l-3.8-2.2c-0.4-0.2-0.6-0.7-0.5-1.2c0.1-0.5,0.5-0.8,1-0.8h4.4
						c0.3,0,0.6,0.2,0.8,0.4c0.2,0.3,0.3,0.6,0.2,0.9l-0.6,2.2c-0.1,0.3-0.3,0.6-0.6,0.7C113.8,29.6,113.6,29.6,113.5,29.6z"/>
				</g>
			</g>
			<g>
				<g>
					<path class="st1" d="M60.3,39.6c-1,0-1.7-0.2-2.2-0.8c-0.5-0.5-0.7-1.2-0.7-2.1v-8.6c0-0.7,0.2-1.3,0.6-1.8
						c0.3-0.3,0.9-0.7,1.8-0.7h4.6c0.6,0,1.1,0.5,1.1,1.1l0,2.2c0,0.3-0.1,0.6-0.3,0.8c-0.2,0.2-0.5,0.3-0.8,0.3h-2.6v0.7
						c0.1,0,0.1,0,0.2,0h2.3c0.6,0,1.1,0.5,1.1,1.1v6.8c0,0.6-0.5,1.1-1.1,1.1H60.3z"/>
					<path class="st1" d="M60.3,39.7c-1,0-1.8-0.3-2.3-0.8c-0.5-0.5-0.7-1.3-0.7-2.3v-8.6c0-0.7,0.2-1.4,0.7-1.9
						c0.3-0.4,0.9-0.8,2-0.8h4.7c0.6,0,1.1,0.5,1.1,1.1l0,2.5c0,0.3-0.1,0.6-0.3,0.8c-0.2,0.2-0.5,0.3-0.8,0.3H62v0.4h2.5
						c0.6,0,1.1,0.5,1.1,1.1v7.1c0,0.6-0.5,1.1-1.1,1.1H60.3z M59.6,37.3c0,0,0.2,0.1,0.7,0.1h3.1v-4.7h-0.2v3.6
						c0,0.6-0.5,1.1-1.1,1.1H61c-0.7,0-1.3-0.6-1.3-1.3v-7c0-0.7,0.6-1.3,1.3-1.3h2.3l0-0.1h-3.5c-0.2,0-0.3,0-0.3,0
						c-0.1,0.1-0.1,0.2-0.1,0.3v8.6C59.5,37.2,59.6,37.3,59.6,37.3C59.6,37.3,59.6,37.3,59.6,37.3z"/>
				</g>
				<g>
					<path class="st1" d="M67.7,39.6c-0.5,0-0.9-0.1-1.2-0.2c-0.4-0.2-0.7-0.4-0.9-0.7c-0.2-0.3-0.4-0.6-0.5-0.9
						c-0.1-0.3-0.1-0.6-0.1-0.9v-7.9c0-0.4,0.2-0.8,0.6-1l4.8-2.2c0.1-0.1,0.3-0.1,0.5-0.1c0,0,0.1,0,0.1,0c0.7,0.1,1.3,0.3,1.7,0.7
						c0.4,0.5,0.7,1.1,0.7,1.8v8.6c0,0.3,0,0.6-0.1,0.9c-0.1,0.4-0.3,0.7-0.5,0.9c-0.2,0.3-0.5,0.5-0.9,0.7
						c-0.4,0.2-0.8,0.2-1.2,0.2H67.7z"/>
					<path class="st1" d="M67.7,39.7c-0.5,0-0.9-0.1-1.3-0.2c-0.4-0.2-0.7-0.4-1-0.7c-0.2-0.3-0.4-0.6-0.5-1c-0.1-0.3-0.1-0.6-0.1-1
						v-8c0-0.4,0.2-0.8,0.6-1l4.9-2.3c0.1-0.1,0.3-0.1,0.5-0.1c0,0,0.1,0,0.1,0l0,0c0.9,0.1,1.5,0.5,1.8,0.8c0.5,0.5,0.7,1.2,0.7,2
						v8.6c0,0.3,0,0.7-0.1,1c-0.1,0.4-0.3,0.7-0.5,1c-0.3,0.3-0.6,0.5-1,0.7c-0.4,0.2-0.8,0.2-1.3,0.2H67.7z M70.4,37.4
						c0.2,0,0.4,0,0.4-0.1c0.1,0,0.1-0.1,0.1-0.1c0,0,0-0.1,0.1-0.1c0-0.1,0-0.2,0-0.4v-8.6c0-0.2,0-0.3-0.1-0.4c0,0,0,0,0,0
						L70.4,28c0.2,0.2,0.4,0.6,0.4,0.9v7.2c0,0.3-0.1,0.6-0.2,0.8c-0.1,0.1-0.3,0.3-0.6,0.4H70.4z M67.1,36.8c0,0.1,0,0.3,0,0.4
						c0,0.1,0,0.1,0.1,0.1c0,0,0.1,0.1,0.1,0.1c0,0,0.2,0.1,0.4,0.1h0.5c-0.3-0.1-0.5-0.3-0.6-0.4c-0.2-0.2-0.2-0.5-0.2-0.8v-6.7
						l-0.2,0.1V36.8z"/>
				</g>
				<g>
					<path class="st1" d="M77.2,39.6c-0.2,0-0.5-0.1-0.6-0.2c-0.2,0.1-0.4,0.2-0.6,0.2h-2.2c-0.6,0-1.1-0.5-1.1-1.1V26.7
						c0-0.6,0.5-1.1,1.1-1.1H76c0.2,0,0.4,0.1,0.6,0.2c0.2-0.1,0.4-0.2,0.6-0.2h2.4c0.6,0,1.1,0.5,1.1,1.1v11.8
						c0,0.6-0.5,1.1-1.1,1.1H77.2z"/>
					<path class="st1" d="M77.1,39.7c-0.2,0-0.3,0-0.5-0.1c-0.1,0.1-0.3,0.1-0.5,0.1h-2.5c-0.6,0-1.1-0.5-1.1-1.1V26.5
						c0-0.6,0.5-1.1,1.1-1.1h2.5c0.2,0,0.3,0,0.5,0.1c0.1-0.1,0.3-0.1,0.5-0.1h2.7c0.6,0,1.1,0.5,1.1,1.1v12.2
						c0,0.6-0.5,1.1-1.1,1.1H77.1z M78.6,37.4v-9.7h-0.3v3.7c0,0.5-0.4,1-0.9,1.1c0,0-0.1,0-0.1,0c-0.5,0-0.9-0.3-1-0.8l-1-3.9h-0.4
						v9.7h0.1v-3.9c0-0.5,0.4-1,0.9-1.1c0,0,0.1,0,0.1,0c0.5,0,0.9,0.3,1,0.8l1.1,4.1H78.6z"/>
				</g>
				<g>
					<path class="st1" d="M81,39.6c-0.3,0-0.6-0.2-0.9-0.4c-0.2-0.3-0.3-0.6-0.2-0.9l2.3-8.3h-1.1c-0.3,0-0.6-0.1-0.8-0.4
						c-0.2-0.2-0.3-0.6-0.2-0.9l0.4-2.2c0.1-0.5,0.5-0.9,1.1-0.9h5.1c0.3,0,0.6,0.2,0.8,0.4c0.2,0.3,0.3,0.6,0.2,0.9l-2.2,8.3h0.8
						c0.3,0,0.6,0.1,0.8,0.4c0.2,0.2,0.3,0.6,0.2,0.9L87,38.7c-0.1,0.5-0.5,0.9-1.1,0.9H81z"/>
					<path class="st1" d="M80.7,39.7c-0.3,0-0.6-0.2-0.9-0.4c-0.2-0.3-0.3-0.6-0.2-0.9l2.3-8.3h-1c-0.3,0-0.6-0.1-0.8-0.4
						c-0.2-0.2-0.3-0.6-0.2-0.9l0.5-2.5c0.1-0.5,0.5-0.9,1.1-0.9h5.5c0.3,0,0.6,0.2,0.8,0.4c0.2,0.3,0.3,0.6,0.2,0.9l-2.2,8.3h0.8
						c0.3,0,0.6,0.1,0.8,0.4c0.2,0.2,0.3,0.6,0.2,0.9l-0.5,2.5c-0.1,0.5-0.5,0.9-1.1,0.9H80.7z M85.1,37.4L85.1,37.4l-0.9-0.1
						c-0.3,0-0.6-0.2-0.8-0.4c-0.2-0.3-0.3-0.6-0.2-0.9l2.2-8.3h-2.9l0,0.1h1.2c0.3,0,0.6,0.2,0.9,0.4c0.2,0.3,0.3,0.6,0.2,0.9
						l-2.3,8.3H85.1z"/>
				</g>
				<g>
					<path class="st1" d="M91.9,39.6c-0.5,0-0.9-0.3-1-0.8c-0.1,0.4-0.5,0.8-1,0.8h-2.4c-0.3,0-0.6-0.1-0.8-0.4
						c-0.2-0.2-0.3-0.6-0.2-0.9l2.1-11.8c0.1-0.5,0.5-0.9,1.1-0.9h2.5c0.5,0,1,0.4,1.1,0.9l2.1,11.8c0.1,0.3,0,0.6-0.2,0.9
						c-0.2,0.2-0.5,0.4-0.8,0.4H91.9z"/>
					<path class="st1" d="M91.8,39.7c-0.4,0-0.7-0.2-0.9-0.5c-0.2,0.3-0.5,0.5-0.9,0.5h-2.7c-0.3,0-0.6-0.1-0.8-0.4
						c-0.2-0.2-0.3-0.6-0.2-0.9l2.2-12.2c0.1-0.5,0.5-0.9,1.1-0.9h2.8c0.5,0,1,0.4,1.1,0.9l2.2,12.2c0.1,0.3,0,0.6-0.2,0.9
						c-0.2,0.2-0.5,0.4-0.8,0.4H91.8z M93,37.4l-0.7-4l0.2,1.6c0,0.3-0.1,0.6-0.3,0.8c-0.1,0.1-0.1,0.1-0.2,0.2
						c0.4,0.1,0.6,0.5,0.7,0.9l0.1,0.6H93z M89,37.4l0.1-0.6c0.1-0.4,0.3-0.7,0.7-0.9c-0.1,0-0.1-0.1-0.2-0.2
						c-0.2-0.2-0.3-0.5-0.3-0.8l0.2-1.7l-0.7,4.1H89z M90.1,30.3c0.2-0.3,0.5-0.4,0.8-0.4c0,0,0,0,0,0c0.3,0,0.6,0.2,0.8,0.4
						l-0.5-2.5h-0.7L90.1,30.3z"/>
				</g>
				<g>
					<path class="st1" d="M95.6,39.6c-0.6,0-1.1-0.5-1.1-1.1V26.7c0-0.6,0.5-1.1,1.1-1.1H98c0.6,0,1.1,0.5,1.1,1.1v8.6h1.3
						c0.3,0,0.6,0.1,0.8,0.4c0.2,0.2,0.3,0.6,0.2,0.9l-0.4,2.2c-0.1,0.5-0.5,0.9-1.1,0.9H95.6z"/>
					<path class="st1" d="M95.5,39.7c-0.6,0-1.1-0.5-1.1-1.1V26.5c0-0.6,0.5-1.1,1.1-1.1h2.7c0.6,0,1.1,0.5,1.1,1.1v8.6h1.3
						c0.3,0,0.6,0.1,0.8,0.4c0.2,0.2,0.3,0.6,0.2,0.9l-0.5,2.5c-0.1,0.5-0.5,0.9-1.1,0.9H95.5z M99.1,37.4L99.1,37.4L98,37.4
						c-0.6,0-1.1-0.5-1.1-1.1v-8.6h-0.3v9.7H99.1z"/>
				</g>
				<g>
					<path class="st1" d="M101.8,39.6c-0.6,0-1.1-0.5-1.1-1.1V26.7c0-0.6,0.5-1.1,1.1-1.1h4.6c0.5,0,1,0.4,1.1,0.9l0.4,2.2
						c0.1,0.3,0,0.6-0.2,0.9c-0.2,0.2-0.5,0.4-0.8,0.4h-1.5v0.7h0.9c0.6,0,1.1,0.5,1.1,1.1v2c0,0.6-0.5,1.1-1.1,1.1h-0.9v0.4h1.4
						c0.3,0,0.6,0.1,0.8,0.4c0.2,0.2,0.3,0.6,0.2,0.9l-0.4,2.2c-0.1,0.5-0.5,0.9-1.1,0.9H101.8z"/>
					<path class="st1" d="M101.7,39.7c-0.6,0-1.1-0.5-1.1-1.1V26.5c0-0.6,0.5-1.1,1.1-1.1h4.9c0.5,0,1,0.4,1.1,0.9l0.5,2.5
						c0.1,0.3,0,0.6-0.2,0.9c-0.2,0.2-0.5,0.4-0.8,0.4h-1.5v0.4h0.9c0.6,0,1.1,0.5,1.1,1.1v2.4c0,0.6-0.5,1.1-1.1,1.1h-0.9v0.1h1.4
						c0.3,0,0.6,0.1,0.8,0.4c0.2,0.2,0.3,0.6,0.2,0.9l-0.5,2.5c-0.1,0.5-0.5,0.9-1.1,0.9H101.7z M105.4,37.4L105.4,37.4l-1.2-0.1
						c-0.6,0-1.1-0.5-1.1-1.1v-2.6c0-0.5,0.3-0.9,0.8-1c-0.4-0.1-0.8-0.5-0.8-1v-2.8c0-0.6,0.5-1.1,1.1-1.1h1.3l0-0.1h-2.6v9.7
						H105.4z"/>
				</g>
				<g>
					<path class="st1" d="M107.9,39.6c-0.3,0-0.6-0.2-0.9-0.4c-0.2-0.3-0.3-0.6-0.2-0.9l2.3-8.3h-1.1c-0.3,0-0.6-0.1-0.8-0.4
						c-0.2-0.2-0.3-0.6-0.2-0.9l0.2-1.2c0-0.1,0-0.1,0-0.2l0.1-0.7c0.1-0.5,0.5-0.9,1-0.9h1.5c0.2,0,0.4,0.1,0.5,0.1l3.2,1.8
						c0.4,0.2,0.6,0.7,0.5,1.2l-0.2,0.8l-1.5,5.5h0.8c0.3,0,0.6,0.1,0.8,0.4c0.2,0.2,0.3,0.6,0.2,0.9l-0.4,2.2
						c-0.1,0.5-0.5,0.9-1.1,0.9H107.9z"/>
					<path class="st1" d="M107.7,39.7c-0.3,0-0.6-0.2-0.9-0.4c-0.2-0.3-0.3-0.6-0.2-0.9l2.3-8.3h-1c-0.3,0-0.6-0.1-0.8-0.4
						c-0.2-0.2-0.3-0.6-0.2-0.9l0.3-1.6c0-0.1,0-0.1,0-0.2l0.1-0.5l0-0.1c0.1-0.5,0.5-0.9,1-0.9h1.7c0.2,0,0.4,0.1,0.5,0.1l3.3,1.9
						c0.4,0.2,0.6,0.7,0.5,1.2l-0.2,0.9l-1.4,5.3h0.8c0.3,0,0.6,0.1,0.8,0.4c0.2,0.2,0.3,0.6,0.2,0.9l-0.5,2.5
						c-0.1,0.5-0.5,0.9-1.1,0.9H107.7z M112,37.4L112,37.4l-0.9-0.1c-0.3,0-0.6-0.2-0.8-0.4c-0.2-0.3-0.3-0.6-0.2-0.9l1.8-6.8
						l-0.3-0.2c0,0,0,0.1,0,0.1l-2.3,8.3H112z"/>
				</g>
				<g>
					<path class="st1" d="M113.3,29.2c-0.2,0-0.4,0-0.5-0.1l-3.2-1.8c-0.4-0.2-0.6-0.7-0.5-1.2c0.1-0.5,0.5-0.8,1-0.8h3.6
						c0.3,0,0.6,0.2,0.8,0.4c0.2,0.3,0.3,0.6,0.2,0.9l-0.5,1.8c-0.1,0.3-0.3,0.6-0.6,0.7C113.6,29.2,113.4,29.2,113.3,29.2z"/>
					<path class="st1" d="M113.4,29.4c-0.2,0-0.4,0-0.5-0.1L109,27c-0.4-0.2-0.6-0.7-0.5-1.2c0.1-0.5,0.5-0.8,1-0.8h4.4
						c0.3,0,0.6,0.2,0.8,0.4c0.2,0.3,0.3,0.6,0.2,0.9l-0.6,2.2c-0.1,0.3-0.3,0.6-0.6,0.7C113.7,29.4,113.5,29.4,113.4,29.4z"/>
				</g>
			</g>
			<g>
				<g>
					<path class="st1" d="M60.2,39.4c-1,0-1.7-0.2-2.2-0.8c-0.5-0.5-0.7-1.2-0.7-2.1v-8.6c0-0.7,0.2-1.3,0.6-1.8
						c0.3-0.3,0.9-0.7,1.8-0.7h4.6c0.6,0,1.1,0.5,1.1,1.1l0,2.2c0,0.3-0.1,0.6-0.3,0.8c-0.2,0.2-0.5,0.3-0.8,0.3h-2.6v0.7
						c0.1,0,0.1,0,0.2,0h2.3c0.6,0,1.1,0.5,1.1,1.1v6.8c0,0.6-0.5,1.1-1.1,1.1H60.2z"/>
					<path class="st1" d="M60.2,39.5c-1,0-1.8-0.3-2.3-0.8c-0.5-0.5-0.7-1.3-0.7-2.3v-8.6c0-0.7,0.2-1.4,0.7-1.9
						c0.3-0.4,0.9-0.8,2-0.8h4.7c0.6,0,1.1,0.5,1.1,1.1l0,2.5c0,0.3-0.1,0.6-0.3,0.8c-0.2,0.2-0.5,0.3-0.8,0.3h-2.6v0.4h2.5
						c0.6,0,1.1,0.5,1.1,1.1v7.1c0,0.6-0.5,1.1-1.1,1.1H60.2z M59.5,37.2c0,0,0.2,0.1,0.7,0.1h3.1v-4.7h-0.2v3.6
						c0,0.6-0.5,1.1-1.1,1.1h-1.1c-0.7,0-1.3-0.6-1.3-1.3v-7c0-0.7,0.6-1.3,1.3-1.3h2.3l0-0.1h-3.5c-0.2,0-0.3,0-0.3,0
						c-0.1,0.1-0.1,0.2-0.1,0.3v8.6C59.4,37,59.5,37.1,59.5,37.2C59.5,37.2,59.5,37.2,59.5,37.2z"/>
				</g>
				<g>
					<path class="st1" d="M67.6,39.4c-0.5,0-0.9-0.1-1.2-0.2c-0.4-0.2-0.7-0.4-0.9-0.7c-0.2-0.3-0.4-0.6-0.5-0.9
						c-0.1-0.3-0.1-0.6-0.1-0.9v-7.9c0-0.4,0.2-0.8,0.6-1l4.8-2.2c0.1-0.1,0.3-0.1,0.5-0.1c0,0,0.1,0,0.1,0c0.7,0.1,1.3,0.3,1.7,0.7
						c0.4,0.5,0.7,1.1,0.7,1.8v8.6c0,0.3,0,0.6-0.1,0.9c-0.1,0.4-0.3,0.7-0.5,0.9c-0.2,0.3-0.5,0.5-0.9,0.7
						c-0.4,0.2-0.8,0.2-1.2,0.2H67.6z"/>
					<path class="st1" d="M67.6,39.5c-0.5,0-0.9-0.1-1.3-0.2c-0.4-0.2-0.7-0.4-1-0.7c-0.2-0.3-0.4-0.6-0.5-1c-0.1-0.3-0.1-0.6-0.1-1
						v-8c0-0.4,0.2-0.8,0.6-1l4.9-2.3c0.1-0.1,0.3-0.1,0.5-0.1c0,0,0.1,0,0.1,0l0,0c0.9,0.1,1.5,0.5,1.8,0.8c0.5,0.5,0.7,1.2,0.7,2
						v8.6c0,0.3,0,0.7-0.1,1c-0.1,0.4-0.3,0.7-0.5,1c-0.3,0.3-0.6,0.5-1,0.7c-0.4,0.2-0.8,0.2-1.3,0.2H67.6z M70.3,37.3
						c0.2,0,0.4,0,0.4-0.1c0.1,0,0.1-0.1,0.1-0.1c0,0,0-0.1,0.1-0.1c0-0.1,0-0.2,0-0.4V28c0-0.2,0-0.3-0.1-0.4c0,0,0,0,0,0l-0.5,0.2
						c0.2,0.2,0.4,0.6,0.4,0.9V36c0,0.3-0.1,0.6-0.2,0.8c-0.1,0.1-0.3,0.3-0.6,0.4H70.3z M66.9,36.6c0,0.1,0,0.3,0,0.4
						c0,0.1,0,0.1,0.1,0.1c0,0,0.1,0.1,0.1,0.1c0,0,0.2,0.1,0.4,0.1H68c-0.3-0.1-0.5-0.3-0.6-0.4c-0.2-0.2-0.2-0.5-0.2-0.8v-6.7
						l-0.2,0.1V36.6z"/>
				</g>
				<g>
					<path class="st1" d="M77.1,39.4c-0.2,0-0.5-0.1-0.6-0.2c-0.2,0.1-0.4,0.2-0.6,0.2h-2.2c-0.6,0-1.1-0.5-1.1-1.1V26.5
						c0-0.6,0.5-1.1,1.1-1.1h2.3c0.2,0,0.4,0.1,0.6,0.2c0.2-0.1,0.4-0.2,0.6-0.2h2.4c0.6,0,1.1,0.5,1.1,1.1v11.8
						c0,0.6-0.5,1.1-1.1,1.1H77.1z"/>
					<path class="st1" d="M77,39.5c-0.2,0-0.3,0-0.5-0.1c-0.1,0.1-0.3,0.1-0.5,0.1h-2.5c-0.6,0-1.1-0.5-1.1-1.1V26.3
						c0-0.6,0.5-1.1,1.1-1.1H76c0.2,0,0.3,0,0.5,0.1c0.1-0.1,0.3-0.1,0.5-0.1h2.7c0.6,0,1.1,0.5,1.1,1.1v12.2c0,0.6-0.5,1.1-1.1,1.1
						H77z M78.5,37.3v-9.7h-0.3v3.7c0,0.5-0.4,1-0.9,1.1c0,0-0.1,0-0.1,0c-0.5,0-0.9-0.3-1-0.8l-1-3.9h-0.4v9.7h0.1v-3.9
						c0-0.5,0.4-1,0.9-1.1c0,0,0.1,0,0.1,0c0.5,0,0.9,0.3,1,0.8l1.1,4.1H78.5z"/>
				</g>
				<g>
					<path class="st1" d="M80.8,39.4c-0.3,0-0.6-0.2-0.9-0.4c-0.2-0.3-0.3-0.6-0.2-0.9l2.3-8.3H81c-0.3,0-0.6-0.1-0.8-0.4
						c-0.2-0.2-0.3-0.6-0.2-0.9l0.4-2.2c0.1-0.5,0.5-0.9,1.1-0.9h5.1c0.3,0,0.6,0.2,0.8,0.4c0.2,0.3,0.3,0.6,0.2,0.9L85.4,35h0.8
						c0.3,0,0.6,0.1,0.8,0.4c0.2,0.2,0.3,0.6,0.2,0.9l-0.4,2.2c-0.1,0.5-0.5,0.9-1.1,0.9H80.8z"/>
					<path class="st1" d="M80.6,39.5c-0.3,0-0.6-0.2-0.9-0.4c-0.2-0.3-0.3-0.6-0.2-0.9l2.3-8.3h-1c-0.3,0-0.6-0.1-0.8-0.4
						c-0.2-0.2-0.3-0.6-0.2-0.9l0.5-2.5c0.1-0.5,0.5-0.9,1.1-0.9h5.5c0.3,0,0.6,0.2,0.8,0.4c0.2,0.3,0.3,0.6,0.2,0.9l-2.2,8.3h0.8
						c0.3,0,0.6,0.1,0.8,0.4c0.2,0.2,0.3,0.6,0.2,0.9L87,38.7c-0.1,0.5-0.5,0.9-1.1,0.9H80.6z M84.9,37.3L84.9,37.3L84,37.2
						c-0.3,0-0.6-0.2-0.8-0.4c-0.2-0.3-0.3-0.6-0.2-0.9l2.2-8.3h-2.9l0,0.1h1.2c0.3,0,0.6,0.2,0.9,0.4c0.2,0.3,0.3,0.6,0.2,0.9
						l-2.3,8.3H84.9z"/>
				</g>
				<g>
					<path class="st1" d="M91.8,39.4c-0.5,0-0.9-0.3-1-0.8c-0.1,0.4-0.5,0.8-1,0.8h-2.4c-0.3,0-0.6-0.1-0.8-0.4
						c-0.2-0.2-0.3-0.6-0.2-0.9l2.1-11.8c0.1-0.5,0.5-0.9,1.1-0.9h2.5c0.5,0,1,0.4,1.1,0.9l2.1,11.8c0.1,0.3,0,0.6-0.2,0.9
						c-0.2,0.2-0.5,0.4-0.8,0.4H91.8z"/>
					<path class="st1" d="M91.7,39.5c-0.4,0-0.7-0.2-0.9-0.5c-0.2,0.3-0.5,0.5-0.9,0.5h-2.7c-0.3,0-0.6-0.1-0.8-0.4
						c-0.2-0.2-0.3-0.6-0.2-0.9l2.2-12.2c0.1-0.5,0.5-0.9,1.1-0.9h2.8c0.5,0,1,0.4,1.1,0.9l2.2,12.2c0.1,0.3,0,0.6-0.2,0.9
						c-0.2,0.2-0.5,0.4-0.8,0.4H91.7z M92.9,37.3l-0.7-4l0.2,1.6c0,0.3-0.1,0.6-0.3,0.8c-0.1,0.1-0.1,0.1-0.2,0.2
						c0.4,0.1,0.6,0.5,0.7,0.9l0.1,0.6H92.9z M88.8,37.3l0.1-0.6c0.1-0.4,0.3-0.7,0.7-0.9c-0.1,0-0.1-0.1-0.2-0.2
						c-0.2-0.2-0.3-0.5-0.3-0.8l0.2-1.7l-0.7,4.1H88.8z M90,30.1c0.2-0.3,0.5-0.4,0.8-0.4c0,0,0,0,0,0c0.3,0,0.6,0.2,0.8,0.4
						l-0.5-2.5h-0.7L90,30.1z"/>
				</g>
				<g>
					<path class="st1" d="M95.5,39.4c-0.6,0-1.1-0.5-1.1-1.1V26.5c0-0.6,0.5-1.1,1.1-1.1h2.4c0.6,0,1.1,0.5,1.1,1.1V35h1.3
						c0.3,0,0.6,0.1,0.8,0.4c0.2,0.2,0.3,0.6,0.2,0.9l-0.4,2.2c-0.1,0.5-0.5,0.9-1.1,0.9H95.5z"/>
					<path class="st1" d="M95.3,39.5c-0.6,0-1.1-0.5-1.1-1.1V26.3c0-0.6,0.5-1.1,1.1-1.1h2.7c0.6,0,1.1,0.5,1.1,1.1v8.6h1.3
						c0.3,0,0.6,0.1,0.8,0.4c0.2,0.2,0.3,0.6,0.2,0.9l-0.5,2.5c-0.1,0.5-0.5,0.9-1.1,0.9H95.3z M99,37.3L99,37.3l-1.1-0.1
						c-0.6,0-1.1-0.5-1.1-1.1v-8.6h-0.3v9.7H99z"/>
				</g>
				<g>
					<path class="st1" d="M101.7,39.4c-0.6,0-1.1-0.5-1.1-1.1V26.5c0-0.6,0.5-1.1,1.1-1.1h4.6c0.5,0,1,0.4,1.1,0.9l0.4,2.2
						c0.1,0.3,0,0.6-0.2,0.9c-0.2,0.2-0.5,0.4-0.8,0.4h-1.5v0.7h0.9c0.6,0,1.1,0.5,1.1,1.1v2c0,0.6-0.5,1.1-1.1,1.1h-0.9V35h1.4
						c0.3,0,0.6,0.1,0.8,0.4c0.2,0.2,0.3,0.6,0.2,0.9l-0.4,2.2c-0.1,0.5-0.5,0.9-1.1,0.9H101.7z"/>
					<path class="st1" d="M101.5,39.5c-0.6,0-1.1-0.5-1.1-1.1V26.3c0-0.6,0.5-1.1,1.1-1.1h4.9c0.5,0,1,0.4,1.1,0.9l0.5,2.5
						c0.1,0.3,0,0.6-0.2,0.9c-0.2,0.2-0.5,0.4-0.8,0.4h-1.5v0.4h0.9c0.6,0,1.1,0.5,1.1,1.1v2.4c0,0.6-0.5,1.1-1.1,1.1h-0.9v0.1h1.4
						c0.3,0,0.6,0.1,0.8,0.4c0.2,0.2,0.3,0.6,0.2,0.9l-0.5,2.5c-0.1,0.5-0.5,0.9-1.1,0.9H101.5z M105.3,37.3L105.3,37.3l-1.2-0.1
						c-0.6,0-1.1-0.5-1.1-1.1v-2.6c0-0.5,0.3-0.9,0.8-1c-0.4-0.1-0.8-0.5-0.8-1v-2.8c0-0.6,0.5-1.1,1.1-1.1h1.3l0-0.1h-2.6v9.7
						H105.3z"/>
				</g>
				<g>
					<path class="st1" d="M107.8,39.4c-0.3,0-0.6-0.2-0.9-0.4c-0.2-0.3-0.3-0.6-0.2-0.9l2.3-8.3H108c-0.3,0-0.6-0.1-0.8-0.4
						c-0.2-0.2-0.3-0.6-0.2-0.9l0.2-1.2c0-0.1,0-0.1,0-0.2l0.1-0.7c0.1-0.5,0.5-0.9,1-0.9h1.5c0.2,0,0.4,0.1,0.5,0.1l3.2,1.8
						c0.4,0.2,0.6,0.7,0.5,1.2l-0.2,0.8l-1.5,5.5h0.8c0.3,0,0.6,0.1,0.8,0.4c0.2,0.2,0.3,0.6,0.2,0.9l-0.4,2.2
						c-0.1,0.5-0.5,0.9-1.1,0.9H107.8z"/>
					<path class="st1" d="M107.6,39.5c-0.3,0-0.6-0.2-0.9-0.4c-0.2-0.3-0.3-0.6-0.2-0.9l2.3-8.3h-1c-0.3,0-0.6-0.1-0.8-0.4
						c-0.2-0.2-0.3-0.6-0.2-0.9l0.3-1.6c0-0.1,0-0.1,0-0.2l0.1-0.5l0-0.1c0.1-0.5,0.5-0.9,1-0.9h1.7c0.2,0,0.4,0.1,0.5,0.1l3.3,1.9
						c0.4,0.2,0.6,0.7,0.5,1.2l-0.2,0.9l-1.4,5.3h0.8c0.3,0,0.6,0.1,0.8,0.4c0.2,0.2,0.3,0.6,0.2,0.9l-0.5,2.5
						c-0.1,0.5-0.5,0.9-1.1,0.9H107.6z M111.9,37.3L111.9,37.3l-0.9-0.1c-0.3,0-0.6-0.2-0.8-0.4c-0.2-0.3-0.3-0.6-0.2-0.9l1.8-6.8
						l-0.3-0.2c0,0,0,0.1,0,0.1l-2.3,8.3H111.9z"/>
				</g>
				<g>
					<path class="st1" d="M113.2,29c-0.2,0-0.4,0-0.5-0.1l-3.2-1.8c-0.4-0.2-0.6-0.7-0.5-1.2c0.1-0.5,0.5-0.8,1-0.8h3.6
						c0.3,0,0.6,0.2,0.8,0.4c0.2,0.3,0.3,0.6,0.2,0.9l-0.5,1.8c-0.1,0.3-0.3,0.6-0.6,0.7C113.5,29,113.3,29,113.2,29z"/>
					<path class="st1" d="M113.3,29.2c-0.2,0-0.4,0-0.5-0.1l-3.8-2.2c-0.4-0.2-0.6-0.7-0.5-1.2c0.1-0.5,0.5-0.8,1-0.8h4.4
						c0.3,0,0.6,0.2,0.8,0.4c0.2,0.3,0.3,0.6,0.2,0.9l-0.6,2.2c-0.1,0.3-0.3,0.6-0.6,0.7C113.6,29.2,113.4,29.2,113.3,29.2z"/>
				</g>
			</g>
			<g>
				<g>
					<path class="st1" d="M60,39.2c-1,0-1.7-0.2-2.2-0.8c-0.5-0.5-0.7-1.2-0.7-2.1v-8.6c0-0.7,0.2-1.3,0.6-1.8
						c0.3-0.3,0.9-0.7,1.8-0.7h4.6c0.6,0,1.1,0.5,1.1,1.1l0,2.2c0,0.3-0.1,0.6-0.3,0.8c-0.2,0.2-0.5,0.3-0.8,0.3h-2.6v0.7
						c0.1,0,0.1,0,0.2,0h2.3c0.6,0,1.1,0.5,1.1,1.1v6.8c0,0.6-0.5,1.1-1.1,1.1H60z"/>
					<path class="st1" d="M60,39.4c-1,0-1.8-0.3-2.3-0.8c-0.5-0.5-0.7-1.3-0.7-2.3v-8.6c0-0.7,0.2-1.4,0.7-1.9
						c0.3-0.4,0.9-0.8,2-0.8h4.7c0.6,0,1.1,0.5,1.1,1.1l0,2.5c0,0.3-0.1,0.6-0.3,0.8c-0.2,0.2-0.5,0.3-0.8,0.3h-2.6v0.4h2.5
						c0.6,0,1.1,0.5,1.1,1.1v7.1c0,0.6-0.5,1.1-1.1,1.1H60z M59.4,37c0,0,0.2,0.1,0.7,0.1h3.1v-4.7h-0.2V36c0,0.6-0.5,1.1-1.1,1.1
						h-1.1c-0.7,0-1.3-0.6-1.3-1.3v-7c0-0.7,0.6-1.3,1.3-1.3h2.3l0-0.1h-3.5c-0.2,0-0.3,0-0.3,0c-0.1,0.1-0.1,0.2-0.1,0.3v8.6
						C59.3,36.8,59.4,37,59.4,37C59.4,37,59.4,37,59.4,37z"/>
				</g>
				<g>
					<path class="st1" d="M67.5,39.2c-0.5,0-0.9-0.1-1.2-0.2c-0.4-0.2-0.7-0.4-0.9-0.7c-0.2-0.3-0.4-0.6-0.5-0.9
						c-0.1-0.3-0.1-0.6-0.1-0.9v-7.9c0-0.4,0.2-0.8,0.6-1l4.8-2.2c0.1-0.1,0.3-0.1,0.5-0.1c0,0,0.1,0,0.1,0c0.7,0.1,1.3,0.3,1.7,0.7
						c0.4,0.5,0.7,1.1,0.7,1.8v8.6c0,0.3,0,0.6-0.1,0.9c-0.1,0.4-0.3,0.7-0.5,0.9c-0.2,0.3-0.5,0.5-0.9,0.7
						c-0.4,0.2-0.8,0.2-1.2,0.2H67.5z"/>
					<path class="st1" d="M67.5,39.4c-0.5,0-0.9-0.1-1.3-0.2c-0.4-0.2-0.7-0.4-1-0.7c-0.2-0.3-0.4-0.6-0.5-1c-0.1-0.3-0.1-0.6-0.1-1
						v-8c0-0.4,0.2-0.8,0.6-1l4.9-2.3c0.1-0.1,0.3-0.1,0.5-0.1c0,0,0.1,0,0.1,0l0,0c0.9,0.1,1.5,0.5,1.8,0.8c0.5,0.5,0.7,1.2,0.7,2
						v8.6c0,0.3,0,0.7-0.1,1c-0.1,0.4-0.3,0.7-0.5,1c-0.3,0.3-0.6,0.5-1,0.7c-0.4,0.2-0.8,0.2-1.3,0.2H67.5z M70.2,37.1
						c0.2,0,0.4,0,0.4-0.1c0.1,0,0.1-0.1,0.1-0.1c0,0,0-0.1,0.1-0.1c0-0.1,0-0.2,0-0.4v-8.6c0-0.2,0-0.3-0.1-0.4c0,0,0,0,0,0
						l-0.5,0.2c0.2,0.2,0.4,0.6,0.4,0.9v7.2c0,0.3-0.1,0.6-0.2,0.8c-0.1,0.1-0.3,0.3-0.6,0.4H70.2z M66.8,36.5c0,0.1,0,0.3,0,0.4
						c0,0.1,0,0.1,0.1,0.1c0,0,0.1,0.1,0.1,0.1c0,0,0.2,0.1,0.4,0.1h0.5c-0.3-0.1-0.5-0.3-0.6-0.4c-0.2-0.2-0.2-0.5-0.2-0.8v-6.7
						l-0.2,0.1V36.5z"/>
				</g>
				<g>
					<path class="st1" d="M77,39.2c-0.2,0-0.5-0.1-0.6-0.2c-0.2,0.1-0.4,0.2-0.6,0.2h-2.2c-0.6,0-1.1-0.5-1.1-1.1V26.3
						c0-0.6,0.5-1.1,1.1-1.1h2.3c0.2,0,0.4,0.1,0.6,0.2c0.2-0.1,0.4-0.2,0.6-0.2h2.4c0.6,0,1.1,0.5,1.1,1.1v11.8
						c0,0.6-0.5,1.1-1.1,1.1H77z"/>
					<path class="st1" d="M76.9,39.4c-0.2,0-0.3,0-0.5-0.1c-0.1,0.1-0.3,0.1-0.5,0.1h-2.5c-0.6,0-1.1-0.5-1.1-1.1V26.2
						c0-0.6,0.5-1.1,1.1-1.1h2.5c0.2,0,0.3,0,0.5,0.1c0.1-0.1,0.3-0.1,0.5-0.1h2.7c0.6,0,1.1,0.5,1.1,1.1v12.2
						c0,0.6-0.5,1.1-1.1,1.1H76.9z M78.4,37.1v-9.7h-0.3v3.7c0,0.5-0.4,1-0.9,1.1c0,0-0.1,0-0.1,0c-0.5,0-0.9-0.3-1-0.8l-1-3.9h-0.4
						v9.7h0.1v-3.9c0-0.5,0.4-1,0.9-1.1c0,0,0.1,0,0.1,0c0.5,0,0.9,0.3,1,0.8l1.1,4.1H78.4z"/>
				</g>
				<g>
					<path class="st1" d="M80.7,39.2c-0.3,0-0.6-0.2-0.9-0.4c-0.2-0.3-0.3-0.6-0.2-0.9l2.3-8.3h-1.1c-0.3,0-0.6-0.1-0.8-0.4
						c-0.2-0.2-0.3-0.6-0.2-0.9l0.4-2.2c0.1-0.5,0.5-0.9,1.1-0.9h5.1c0.3,0,0.6,0.2,0.8,0.4c0.2,0.3,0.3,0.6,0.2,0.9l-2.2,8.3h0.8
						c0.3,0,0.6,0.1,0.8,0.4c0.2,0.2,0.3,0.6,0.2,0.9l-0.4,2.2c-0.1,0.5-0.5,0.9-1.1,0.9H80.7z"/>
					<path class="st1" d="M80.5,39.4c-0.3,0-0.6-0.2-0.9-0.4c-0.2-0.3-0.3-0.6-0.2-0.9l2.3-8.3h-1c-0.3,0-0.6-0.1-0.8-0.4
						c-0.2-0.2-0.3-0.6-0.2-0.9l0.5-2.5c0.1-0.5,0.5-0.9,1.1-0.9h5.5c0.3,0,0.6,0.2,0.8,0.4c0.2,0.3,0.3,0.6,0.2,0.9l-2.2,8.3h0.8
						c0.3,0,0.6,0.1,0.8,0.4c0.2,0.2,0.3,0.6,0.2,0.9l-0.5,2.5c-0.1,0.5-0.5,0.9-1.1,0.9H80.5z M84.8,37.1L84.8,37.1L83.9,37
						c-0.3,0-0.6-0.2-0.8-0.4c-0.2-0.3-0.3-0.6-0.2-0.9l2.2-8.3h-2.9l0,0.1h1.2c0.3,0,0.6,0.2,0.9,0.4c0.2,0.3,0.3,0.6,0.2,0.9
						l-2.3,8.3H84.8z"/>
				</g>
				<g>
					<path class="st1" d="M91.7,39.2c-0.5,0-0.9-0.3-1-0.8c-0.1,0.4-0.5,0.8-1,0.8h-2.4c-0.3,0-0.6-0.1-0.8-0.4
						c-0.2-0.2-0.3-0.6-0.2-0.9l2.1-11.8c0.1-0.5,0.5-0.9,1.1-0.9h2.5c0.5,0,1,0.4,1.1,0.9L95.1,38c0.1,0.3,0,0.6-0.2,0.9
						c-0.2,0.2-0.5,0.4-0.8,0.4H91.7z"/>
					<path class="st1" d="M91.6,39.4c-0.4,0-0.7-0.2-0.9-0.5c-0.2,0.3-0.5,0.5-0.9,0.5h-2.7c-0.3,0-0.6-0.1-0.8-0.4
						c-0.2-0.2-0.3-0.6-0.2-0.9L88.2,26c0.1-0.5,0.5-0.9,1.1-0.9h2.8c0.5,0,1,0.4,1.1,0.9l2.2,12.2c0.1,0.3,0,0.6-0.2,0.9
						c-0.2,0.2-0.5,0.4-0.8,0.4H91.6z M92.8,37.1l-0.7-4l0.2,1.6c0,0.3-0.1,0.6-0.3,0.8c-0.1,0.1-0.1,0.1-0.2,0.2
						c0.4,0.1,0.6,0.5,0.7,0.9l0.1,0.6H92.8z M88.7,37.1l0.1-0.6c0.1-0.4,0.3-0.7,0.7-0.9c-0.1,0-0.1-0.1-0.2-0.2
						c-0.2-0.2-0.3-0.5-0.3-0.8l0.2-1.7l-0.7,4.1H88.7z M89.8,30c0.2-0.3,0.5-0.4,0.8-0.4c0,0,0,0,0,0c0.3,0,0.6,0.2,0.8,0.4
						L91,27.4h-0.7L89.8,30z"/>
				</g>
				<g>
					<path class="st1" d="M95.4,39.2c-0.6,0-1.1-0.5-1.1-1.1V26.3c0-0.6,0.5-1.1,1.1-1.1h2.4c0.6,0,1.1,0.5,1.1,1.1v8.6h1.3
						c0.3,0,0.6,0.1,0.8,0.4c0.2,0.2,0.3,0.6,0.2,0.9l-0.4,2.2c-0.1,0.5-0.5,0.9-1.1,0.9H95.4z"/>
					<path class="st1" d="M95.2,39.4c-0.6,0-1.1-0.5-1.1-1.1V26.2c0-0.6,0.5-1.1,1.1-1.1H98c0.6,0,1.1,0.5,1.1,1.1v8.6h1.3
						c0.3,0,0.6,0.1,0.8,0.4c0.2,0.2,0.3,0.6,0.2,0.9l-0.5,2.5c-0.1,0.5-0.5,0.9-1.1,0.9H95.2z M98.9,37.1L98.9,37.1L97.8,37
						c-0.6,0-1.1-0.5-1.1-1.1v-8.6h-0.3v9.7H98.9z"/>
				</g>
				<g>
					<path class="st1" d="M101.6,39.2c-0.6,0-1.1-0.5-1.1-1.1V26.3c0-0.6,0.5-1.1,1.1-1.1h4.6c0.5,0,1,0.4,1.1,0.9l0.4,2.2
						c0.1,0.3,0,0.6-0.2,0.9c-0.2,0.2-0.5,0.4-0.8,0.4h-1.5v0.7h0.9c0.6,0,1.1,0.5,1.1,1.1v2c0,0.6-0.5,1.1-1.1,1.1h-0.9v0.4h1.4
						c0.3,0,0.6,0.1,0.8,0.4c0.2,0.2,0.3,0.6,0.2,0.9l-0.4,2.2c-0.1,0.5-0.5,0.9-1.1,0.9H101.6z"/>
					<path class="st1" d="M101.4,39.4c-0.6,0-1.1-0.5-1.1-1.1V26.2c0-0.6,0.5-1.1,1.1-1.1h4.9c0.5,0,1,0.4,1.1,0.9l0.5,2.5
						c0.1,0.3,0,0.6-0.2,0.9c-0.2,0.2-0.5,0.4-0.8,0.4h-1.5v0.4h0.9c0.6,0,1.1,0.5,1.1,1.1v2.4c0,0.6-0.5,1.1-1.1,1.1h-0.9v0.1h1.4
						c0.3,0,0.6,0.1,0.8,0.4c0.2,0.2,0.3,0.6,0.2,0.9l-0.5,2.5c-0.1,0.5-0.5,0.9-1.1,0.9H101.4z M105.2,37.1L105.2,37.1L104,37
						c-0.6,0-1.1-0.5-1.1-1.1v-2.6c0-0.5,0.3-0.9,0.8-1c-0.4-0.1-0.8-0.5-0.8-1v-2.8c0-0.6,0.5-1.1,1.1-1.1h1.3l0-0.1h-2.6v9.7
						H105.2z"/>
				</g>
				<g>
					<path class="st1" d="M107.7,39.2c-0.3,0-0.6-0.2-0.9-0.4c-0.2-0.3-0.3-0.6-0.2-0.9l2.3-8.3h-1.1c-0.3,0-0.6-0.1-0.8-0.4
						c-0.2-0.2-0.3-0.6-0.2-0.9l0.2-1.2c0-0.1,0-0.1,0-0.2l0.1-0.7c0.1-0.5,0.5-0.9,1-0.9h1.5c0.2,0,0.4,0.1,0.5,0.1l3.2,1.8
						c0.4,0.2,0.6,0.7,0.5,1.2l-0.2,0.8l-1.5,5.5h0.8c0.3,0,0.6,0.1,0.8,0.4c0.2,0.2,0.3,0.6,0.2,0.9l-0.4,2.2
						c-0.1,0.5-0.5,0.9-1.1,0.9H107.7z"/>
					<path class="st1" d="M107.5,39.4c-0.3,0-0.6-0.2-0.9-0.4c-0.2-0.3-0.3-0.6-0.2-0.9l2.3-8.3h-1c-0.3,0-0.6-0.1-0.8-0.4
						c-0.2-0.2-0.3-0.6-0.2-0.9l0.3-1.6c0-0.1,0-0.1,0-0.2l0.1-0.5l0-0.1c0.1-0.5,0.5-0.9,1-0.9h1.7c0.2,0,0.4,0.1,0.5,0.1l3.3,1.9
						c0.4,0.2,0.6,0.7,0.5,1.2l-0.2,0.9l-1.4,5.3h0.8c0.3,0,0.6,0.1,0.8,0.4c0.2,0.2,0.3,0.6,0.2,0.9l-0.5,2.5
						c-0.1,0.5-0.5,0.9-1.1,0.9H107.5z M111.8,37.1L111.8,37.1l-0.9-0.1c-0.3,0-0.6-0.2-0.8-0.4c-0.2-0.3-0.3-0.6-0.2-0.9l1.8-6.8
						l-0.3-0.2c0,0,0,0.1,0,0.1l-2.3,8.3H111.8z"/>
				</g>
				<g>
					<path class="st1" d="M113.1,28.8c-0.2,0-0.4,0-0.5-0.1l-3.2-1.8c-0.4-0.2-0.6-0.7-0.5-1.2c0.1-0.5,0.5-0.8,1-0.8h3.6
						c0.3,0,0.6,0.2,0.8,0.4c0.2,0.3,0.3,0.6,0.2,0.9l-0.5,1.8c-0.1,0.3-0.3,0.6-0.6,0.7C113.3,28.8,113.2,28.8,113.1,28.8z"/>
					<path class="st1" d="M113.2,29.1c-0.2,0-0.4,0-0.5-0.1l-3.8-2.2c-0.4-0.2-0.6-0.7-0.5-1.2c0.1-0.5,0.5-0.8,1-0.8h4.4
						c0.3,0,0.6,0.2,0.8,0.4c0.2,0.3,0.3,0.6,0.2,0.9l-0.6,2.2c-0.1,0.3-0.3,0.6-0.6,0.7C113.4,29.1,113.3,29.1,113.2,29.1z"/>
				</g>
			</g>
			<g>
				<g>
					<path class="st1" d="M59.9,39c-1,0-1.7-0.2-2.2-0.8c-0.5-0.5-0.7-1.2-0.7-2.1v-8.6c0-0.7,0.2-1.3,0.6-1.8
						c0.3-0.3,0.9-0.7,1.8-0.7h4.6c0.6,0,1.1,0.5,1.1,1.1l0,2.2c0,0.3-0.1,0.6-0.3,0.8c-0.2,0.2-0.5,0.3-0.8,0.3h-2.6v0.7
						c0.1,0,0.1,0,0.2,0h2.3c0.6,0,1.1,0.5,1.1,1.1V38c0,0.6-0.5,1.1-1.1,1.1H59.9z"/>
					<path class="st1" d="M59.9,39.2c-1,0-1.8-0.3-2.3-0.8c-0.5-0.5-0.7-1.3-0.7-2.3v-8.6c0-0.7,0.2-1.4,0.7-1.9
						c0.3-0.4,0.9-0.8,2-0.8h4.7c0.6,0,1.1,0.5,1.1,1.1l0,2.5c0,0.3-0.1,0.6-0.3,0.8c-0.2,0.2-0.5,0.3-0.8,0.3h-2.6v0.4h2.5
						c0.6,0,1.1,0.5,1.1,1.1v7.1c0,0.6-0.5,1.1-1.1,1.1H59.9z M59.3,36.8c0,0,0.2,0.1,0.7,0.1H63v-4.7h-0.2v3.6
						c0,0.6-0.5,1.1-1.1,1.1h-1.1c-0.7,0-1.3-0.6-1.3-1.3v-7c0-0.7,0.6-1.3,1.3-1.3H63l0-0.1h-3.5c-0.2,0-0.3,0-0.3,0
						c-0.1,0.1-0.1,0.2-0.1,0.3v8.6C59.2,36.7,59.3,36.8,59.3,36.8C59.3,36.8,59.3,36.8,59.3,36.8z"/>
				</g>
				<g>
					<path class="st1" d="M67.3,39c-0.5,0-0.9-0.1-1.2-0.2c-0.4-0.2-0.7-0.4-0.9-0.7c-0.2-0.3-0.4-0.6-0.5-0.9
						c-0.1-0.3-0.1-0.6-0.1-0.9v-7.9c0-0.4,0.2-0.8,0.6-1l4.8-2.2c0.1-0.1,0.3-0.1,0.5-0.1c0,0,0.1,0,0.1,0c0.7,0.1,1.3,0.3,1.7,0.7
						c0.4,0.5,0.7,1.1,0.7,1.8v8.6c0,0.3,0,0.6-0.1,0.9c-0.1,0.4-0.3,0.7-0.5,0.9c-0.2,0.3-0.5,0.5-0.9,0.7C71,39,70.5,39,70.1,39
						H67.3z"/>
					<path class="st1" d="M67.3,39.2c-0.5,0-0.9-0.1-1.3-0.2c-0.4-0.2-0.7-0.4-1-0.7c-0.2-0.3-0.4-0.6-0.5-1c-0.1-0.3-0.1-0.6-0.1-1
						v-8c0-0.4,0.2-0.8,0.6-1l4.9-2.3c0.1-0.1,0.3-0.1,0.5-0.1c0,0,0.1,0,0.1,0l0,0c0.9,0.1,1.5,0.5,1.8,0.8c0.5,0.5,0.7,1.2,0.7,2
						v8.6c0,0.3,0,0.7-0.1,1c-0.1,0.4-0.3,0.7-0.5,1c-0.3,0.3-0.6,0.5-1,0.7c-0.4,0.2-0.8,0.2-1.3,0.2H67.3z M70.1,36.9
						c0.2,0,0.4,0,0.4-0.1c0.1,0,0.1-0.1,0.1-0.1c0,0,0-0.1,0.1-0.1c0-0.1,0-0.2,0-0.4v-8.6c0-0.2,0-0.3-0.1-0.4c0,0,0,0,0,0
						l-0.5,0.2c0.2,0.2,0.4,0.6,0.4,0.9v7.2c0,0.3-0.1,0.6-0.2,0.8c-0.1,0.1-0.3,0.3-0.6,0.4H70.1z M66.7,36.3c0,0.1,0,0.3,0,0.4
						c0,0.1,0,0.1,0.1,0.1c0,0,0.1,0.1,0.1,0.1c0,0,0.2,0.1,0.4,0.1h0.5c-0.3-0.1-0.5-0.3-0.6-0.4C67,36.3,67,36,67,35.7V29
						l-0.2,0.1V36.3z"/>
				</g>
				<g>
					<path class="st1" d="M76.9,39c-0.2,0-0.5-0.1-0.6-0.2C76.1,39,75.8,39,75.6,39h-2.2c-0.6,0-1.1-0.5-1.1-1.1V26.1
						c0-0.6,0.5-1.1,1.1-1.1h2.3c0.2,0,0.4,0.1,0.6,0.2c0.2-0.1,0.4-0.2,0.6-0.2h2.4c0.6,0,1.1,0.5,1.1,1.1V38
						c0,0.6-0.5,1.1-1.1,1.1H76.9z"/>
					<path class="st1" d="M76.8,39.2c-0.2,0-0.3,0-0.5-0.1c-0.1,0.1-0.3,0.1-0.5,0.1h-2.5c-0.6,0-1.1-0.5-1.1-1.1V26
						c0-0.6,0.5-1.1,1.1-1.1h2.5c0.2,0,0.3,0,0.5,0.1c0.1-0.1,0.3-0.1,0.5-0.1h2.7c0.6,0,1.1,0.5,1.1,1.1v12.2
						c0,0.6-0.5,1.1-1.1,1.1H76.8z M78.2,36.9v-9.7h-0.3v3.7c0,0.5-0.4,1-0.9,1.1c0,0-0.1,0-0.1,0c-0.5,0-0.9-0.3-1-0.8l-1-3.9h-0.4
						v9.7h0.1V33c0-0.5,0.4-1,0.9-1.1c0,0,0.1,0,0.1,0c0.5,0,0.9,0.3,1,0.8l1.1,4.1H78.2z"/>
				</g>
				<g>
					<path class="st1" d="M80.6,39c-0.3,0-0.6-0.2-0.9-0.4c-0.2-0.3-0.3-0.6-0.2-0.9l2.3-8.3h-1.1c-0.3,0-0.6-0.1-0.8-0.4
						c-0.2-0.2-0.3-0.6-0.2-0.9l0.4-2.2c0.1-0.5,0.5-0.9,1.1-0.9h5.1c0.3,0,0.6,0.2,0.8,0.4c0.2,0.3,0.3,0.6,0.2,0.9l-2.2,8.3H86
						c0.3,0,0.6,0.1,0.8,0.4c0.2,0.2,0.3,0.6,0.2,0.9l-0.4,2.2c-0.1,0.5-0.5,0.9-1.1,0.9H80.6z"/>
					<path class="st1" d="M80.4,39.2c-0.3,0-0.6-0.2-0.9-0.4c-0.2-0.3-0.3-0.6-0.2-0.9l2.3-8.3h-1c-0.3,0-0.6-0.1-0.8-0.4
						c-0.2-0.2-0.3-0.6-0.2-0.9l0.5-2.5c0.1-0.5,0.5-0.9,1.1-0.9h5.5c0.3,0,0.6,0.2,0.8,0.4c0.2,0.3,0.3,0.6,0.2,0.9l-2.2,8.3h0.8
						c0.3,0,0.6,0.1,0.8,0.4c0.2,0.2,0.3,0.6,0.2,0.9l-0.5,2.5c-0.1,0.5-0.5,0.9-1.1,0.9H80.4z M84.7,36.9L84.7,36.9l-0.9-0.1
						c-0.3,0-0.6-0.2-0.8-0.4c-0.2-0.3-0.3-0.6-0.2-0.9l2.2-8.3h-2.9l0,0.1h1.2c0.3,0,0.6,0.2,0.9,0.4c0.2,0.3,0.3,0.6,0.2,0.9
						L82,36.9H84.7z"/>
				</g>
				<g>
					<path class="st1" d="M91.6,39c-0.5,0-0.9-0.3-1-0.8c-0.1,0.4-0.5,0.8-1,0.8h-2.4c-0.3,0-0.6-0.1-0.8-0.4
						c-0.2-0.2-0.3-0.6-0.2-0.9L88.2,26c0.1-0.5,0.5-0.9,1.1-0.9h2.5c0.5,0,1,0.4,1.1,0.9L95,37.8c0.1,0.3,0,0.6-0.2,0.9
						C94.6,38.9,94.3,39,94,39H91.6z"/>
					<path class="st1" d="M91.4,39.2c-0.4,0-0.7-0.2-0.9-0.5c-0.2,0.3-0.5,0.5-0.9,0.5H87c-0.3,0-0.6-0.1-0.8-0.4
						c-0.2-0.2-0.3-0.6-0.2-0.9l2.2-12.2c0.1-0.5,0.5-0.9,1.1-0.9H92c0.5,0,1,0.4,1.1,0.9l2.2,12.2c0.1,0.3,0,0.6-0.2,0.9
						c-0.2,0.2-0.5,0.4-0.8,0.4H91.4z M92.7,36.9l-0.7-4l0.2,1.6c0,0.3-0.1,0.6-0.3,0.8c-0.1,0.1-0.1,0.1-0.2,0.2
						c0.4,0.1,0.6,0.5,0.7,0.9l0.1,0.6H92.7z M88.6,36.9l0.1-0.6c0.1-0.4,0.3-0.7,0.7-0.9c-0.1,0-0.1-0.1-0.2-0.2
						c-0.2-0.2-0.3-0.5-0.3-0.8l0.2-1.7l-0.7,4.1H88.6z M89.7,29.8c0.2-0.3,0.5-0.4,0.8-0.4c0,0,0,0,0,0c0.3,0,0.6,0.2,0.8,0.4
						l-0.5-2.5h-0.7L89.7,29.8z"/>
				</g>
				<g>
					<path class="st1" d="M95.3,39c-0.6,0-1.1-0.5-1.1-1.1V26.1c0-0.6,0.5-1.1,1.1-1.1h2.4c0.6,0,1.1,0.5,1.1,1.1v8.6h1.3
						c0.3,0,0.6,0.1,0.8,0.4c0.2,0.2,0.3,0.6,0.2,0.9l-0.4,2.2c-0.1,0.5-0.5,0.9-1.1,0.9H95.3z"/>
					<path class="st1" d="M95.1,39.2c-0.6,0-1.1-0.5-1.1-1.1V26c0-0.6,0.5-1.1,1.1-1.1h2.7c0.6,0,1.1,0.5,1.1,1.1v8.6h1.3
						c0.3,0,0.6,0.1,0.8,0.4c0.2,0.2,0.3,0.6,0.2,0.9l-0.5,2.5c-0.1,0.5-0.5,0.9-1.1,0.9H95.1z M98.8,36.9L98.8,36.9l-1.1-0.1
						c-0.6,0-1.1-0.5-1.1-1.1v-8.6h-0.3v9.7H98.8z"/>
				</g>
				<g>
					<path class="st1" d="M101.5,39c-0.6,0-1.1-0.5-1.1-1.1V26.1c0-0.6,0.5-1.1,1.1-1.1h4.6c0.5,0,1,0.4,1.1,0.9l0.4,2.2
						c0.1,0.3,0,0.6-0.2,0.9c-0.2,0.2-0.5,0.4-0.8,0.4H105v0.7h0.9c0.6,0,1.1,0.5,1.1,1.1v2c0,0.6-0.5,1.1-1.1,1.1H105v0.4h1.4
						c0.3,0,0.6,0.1,0.8,0.4c0.2,0.2,0.3,0.6,0.2,0.9l-0.4,2.2c-0.1,0.5-0.5,0.9-1.1,0.9H101.5z"/>
					<path class="st1" d="M101.3,39.2c-0.6,0-1.1-0.5-1.1-1.1V26c0-0.6,0.5-1.1,1.1-1.1h4.9c0.5,0,1,0.4,1.1,0.9l0.5,2.5
						c0.1,0.3,0,0.6-0.2,0.9c-0.2,0.2-0.5,0.4-0.8,0.4h-1.5v0.4h0.9c0.6,0,1.1,0.5,1.1,1.1v2.4c0,0.6-0.5,1.1-1.1,1.1h-0.9v0.1h1.4
						c0.3,0,0.6,0.1,0.8,0.4c0.2,0.2,0.3,0.6,0.2,0.9l-0.5,2.5c-0.1,0.5-0.5,0.9-1.1,0.9H101.3z M105.1,36.9L105.1,36.9l-1.2-0.1
						c-0.6,0-1.1-0.5-1.1-1.1v-2.6c0-0.5,0.3-0.9,0.8-1c-0.4-0.1-0.8-0.5-0.8-1v-2.8c0-0.6,0.5-1.1,1.1-1.1h1.3l0-0.1h-2.6v9.7
						H105.1z"/>
				</g>
				<g>
					<path class="st1" d="M107.6,39c-0.3,0-0.6-0.2-0.9-0.4c-0.2-0.3-0.3-0.6-0.2-0.9l2.3-8.3h-1.1c-0.3,0-0.6-0.1-0.8-0.4
						c-0.2-0.2-0.3-0.6-0.2-0.9l0.2-1.2c0-0.1,0-0.1,0-0.2l0.1-0.7c0.1-0.5,0.5-0.9,1-0.9h1.5c0.2,0,0.4,0.1,0.5,0.1l3.2,1.8
						c0.4,0.2,0.6,0.7,0.5,1.2l-0.2,0.8l-1.5,5.5h0.8c0.3,0,0.6,0.1,0.8,0.4c0.2,0.2,0.3,0.6,0.2,0.9l-0.4,2.2
						c-0.1,0.5-0.5,0.9-1.1,0.9H107.6z"/>
					<path class="st1" d="M107.4,39.2c-0.3,0-0.6-0.2-0.9-0.4c-0.2-0.3-0.3-0.6-0.2-0.9l2.3-8.3h-1c-0.3,0-0.6-0.1-0.8-0.4
						c-0.2-0.2-0.3-0.6-0.2-0.9l0.3-1.6c0-0.1,0-0.1,0-0.2l0.1-0.5l0-0.1c0.1-0.5,0.5-0.9,1-0.9h1.7c0.2,0,0.4,0.1,0.5,0.1l3.3,1.9
						c0.4,0.2,0.6,0.7,0.5,1.2l-0.2,0.9l-1.4,5.3h0.8c0.3,0,0.6,0.1,0.8,0.4c0.2,0.2,0.3,0.6,0.2,0.9l-0.5,2.5
						c-0.1,0.5-0.5,0.9-1.1,0.9H107.4z M111.7,36.9L111.7,36.9l-0.9-0.1c-0.3,0-0.6-0.2-0.8-0.4c-0.2-0.3-0.3-0.6-0.2-0.9l1.8-6.8
						l-0.3-0.2c0,0,0,0.1,0,0.1l-2.3,8.3H111.7z"/>
				</g>
				<g>
					<path class="st1" d="M113,28.7c-0.2,0-0.4,0-0.5-0.1l-3.2-1.8c-0.4-0.2-0.6-0.7-0.5-1.2c0.1-0.5,0.5-0.8,1-0.8h3.6
						c0.3,0,0.6,0.2,0.8,0.4c0.2,0.3,0.3,0.6,0.2,0.9l-0.5,1.8c-0.1,0.3-0.3,0.6-0.6,0.7C113.2,28.6,113.1,28.7,113,28.7z"/>
					<path class="st1" d="M113.1,28.9c-0.2,0-0.4,0-0.5-0.1l-3.8-2.2c-0.4-0.2-0.6-0.7-0.5-1.2c0.1-0.5,0.5-0.8,1-0.8h4.4
						c0.3,0,0.6,0.2,0.8,0.4c0.2,0.3,0.3,0.6,0.2,0.9l-0.6,2.2c-0.1,0.3-0.3,0.6-0.6,0.7C113.3,28.9,113.2,28.9,113.1,28.9z"/>
				</g>
			</g>
			<g>
				<g>
					<path class="st1" d="M59.8,38.9c-1,0-1.7-0.2-2.2-0.8c-0.5-0.5-0.7-1.2-0.7-2.1v-8.6c0-0.7,0.2-1.3,0.6-1.8
						c0.3-0.3,0.9-0.7,1.8-0.7H64c0.6,0,1.1,0.5,1.1,1.1l0,2.2c0,0.3-0.1,0.6-0.3,0.8c-0.2,0.2-0.5,0.3-0.8,0.3h-2.6v0.7
						c0.1,0,0.1,0,0.2,0h2.3c0.6,0,1.1,0.5,1.1,1.1v6.8c0,0.6-0.5,1.1-1.1,1.1H59.8z"/>
					<path class="st1" d="M59.8,39c-1,0-1.8-0.3-2.3-0.8C57,37.7,56.7,37,56.7,36v-8.6c0-0.7,0.2-1.4,0.7-1.9c0.3-0.4,0.9-0.8,2-0.8
						h4.7c0.6,0,1.1,0.5,1.1,1.1l0,2.5c0,0.3-0.1,0.6-0.3,0.8c-0.2,0.2-0.5,0.3-0.8,0.3h-2.6v0.4h2.5c0.6,0,1.1,0.5,1.1,1.1V38
						c0,0.6-0.5,1.1-1.1,1.1H59.8z M59.1,36.6c0,0,0.2,0.1,0.7,0.1h3.1v-4.7h-0.2v3.6c0,0.6-0.5,1.1-1.1,1.1h-1.1
						c-0.7,0-1.3-0.6-1.3-1.3v-7c0-0.7,0.6-1.3,1.3-1.3h2.3l0-0.1h-3.5c-0.2,0-0.3,0-0.3,0c-0.1,0.1-0.1,0.2-0.1,0.3V36
						C59,36.5,59.1,36.6,59.1,36.6C59.1,36.6,59.1,36.6,59.1,36.6z"/>
				</g>
				<g>
					<path class="st1" d="M67.2,38.9c-0.5,0-0.9-0.1-1.2-0.2c-0.4-0.2-0.7-0.4-0.9-0.7c-0.2-0.3-0.4-0.6-0.5-0.9
						c-0.1-0.3-0.1-0.6-0.1-0.9v-7.9c0-0.4,0.2-0.8,0.6-1l4.8-2.2c0.1-0.1,0.3-0.1,0.5-0.1c0,0,0.1,0,0.1,0c0.7,0.1,1.3,0.3,1.7,0.7
						c0.4,0.5,0.7,1.1,0.7,1.8v8.6c0,0.3,0,0.6-0.1,0.9c-0.1,0.4-0.3,0.7-0.5,0.9c-0.2,0.3-0.5,0.5-0.9,0.7
						c-0.4,0.2-0.8,0.2-1.2,0.2H67.2z"/>
					<path class="st1" d="M67.2,39c-0.5,0-0.9-0.1-1.3-0.2c-0.4-0.2-0.7-0.4-1-0.7c-0.2-0.3-0.4-0.6-0.5-1c-0.1-0.3-0.1-0.6-0.1-1
						v-8c0-0.4,0.2-0.8,0.6-1l4.9-2.3c0.1-0.1,0.3-0.1,0.5-0.1c0,0,0.1,0,0.1,0l0,0c0.9,0.1,1.5,0.5,1.8,0.8c0.5,0.5,0.7,1.2,0.7,2
						v8.6c0,0.3,0,0.7-0.1,1c-0.1,0.4-0.3,0.7-0.5,1c-0.3,0.3-0.6,0.5-1,0.7C70.9,39,70.5,39,70,39H67.2z M70,36.7
						c0.2,0,0.4,0,0.4-0.1c0.1,0,0.1-0.1,0.1-0.1c0,0,0-0.1,0.1-0.1c0-0.1,0-0.2,0-0.4v-8.6c0-0.2,0-0.3-0.1-0.4c0,0,0,0,0,0
						l-0.5,0.2c0.2,0.2,0.4,0.6,0.4,0.9v7.2c0,0.3-0.1,0.6-0.2,0.8c-0.1,0.1-0.3,0.3-0.6,0.4H70z M66.6,36.1c0,0.1,0,0.3,0,0.4
						c0,0.1,0,0.1,0.1,0.1c0,0,0.1,0.1,0.1,0.1c0,0,0.2,0.1,0.4,0.1h0.5c-0.3-0.1-0.5-0.3-0.6-0.4c-0.2-0.2-0.2-0.5-0.2-0.8v-6.7
						l-0.2,0.1V36.1z"/>
				</g>
				<g>
					<path class="st1" d="M76.8,38.9c-0.2,0-0.5-0.1-0.6-0.2c-0.2,0.1-0.4,0.2-0.6,0.2h-2.2c-0.6,0-1.1-0.5-1.1-1.1V26
						c0-0.6,0.5-1.1,1.1-1.1h2.3c0.2,0,0.4,0.1,0.6,0.2c0.2-0.1,0.4-0.2,0.6-0.2h2.4c0.6,0,1.1,0.5,1.1,1.1v11.8
						c0,0.6-0.5,1.1-1.1,1.1H76.8z"/>
					<path class="st1" d="M76.6,39c-0.2,0-0.3,0-0.5-0.1C76,39,75.8,39,75.6,39h-2.5c-0.6,0-1.1-0.5-1.1-1.1V25.8
						c0-0.6,0.5-1.1,1.1-1.1h2.5c0.2,0,0.3,0,0.5,0.1c0.1-0.1,0.3-0.1,0.5-0.1h2.7c0.6,0,1.1,0.5,1.1,1.1V38c0,0.6-0.5,1.1-1.1,1.1
						H76.6z M78.1,36.7V27h-0.3v3.7c0,0.5-0.4,1-0.9,1.1c0,0-0.1,0-0.1,0c-0.5,0-0.9-0.3-1-0.8l-1-3.9h-0.4v9.7h0.1v-3.9
						c0-0.5,0.4-1,0.9-1.1c0,0,0.1,0,0.1,0c0.5,0,0.9,0.3,1,0.8l1.1,4.1H78.1z"/>
				</g>
				<g>
					<path class="st1" d="M80.5,38.9c-0.3,0-0.6-0.2-0.9-0.4c-0.2-0.3-0.3-0.6-0.2-0.9l2.3-8.3h-1.1c-0.3,0-0.6-0.1-0.8-0.4
						c-0.2-0.2-0.3-0.6-0.2-0.9l0.4-2.2c0.1-0.5,0.5-0.9,1.1-0.9h5.1c0.3,0,0.6,0.2,0.8,0.4c0.2,0.3,0.3,0.6,0.2,0.9l-2.2,8.3h0.8
						c0.3,0,0.6,0.1,0.8,0.4c0.2,0.2,0.3,0.6,0.2,0.9L86.5,38c-0.1,0.5-0.5,0.9-1.1,0.9H80.5z"/>
					<path class="st1" d="M80.3,39c-0.3,0-0.6-0.2-0.9-0.4c-0.2-0.3-0.3-0.6-0.2-0.9l2.3-8.3h-1c-0.3,0-0.6-0.1-0.8-0.4
						c-0.2-0.2-0.3-0.6-0.2-0.9l0.5-2.5c0.1-0.5,0.5-0.9,1.1-0.9h5.5c0.3,0,0.6,0.2,0.8,0.4c0.2,0.3,0.3,0.6,0.2,0.9l-2.2,8.3h0.8
						c0.3,0,0.6,0.1,0.8,0.4c0.2,0.2,0.3,0.6,0.2,0.9l-0.5,2.5c-0.1,0.5-0.5,0.9-1.1,0.9H80.3z M84.6,36.7L84.6,36.7l-0.9-0.1
						c-0.3,0-0.6-0.2-0.8-0.4c-0.2-0.3-0.3-0.6-0.2-0.9l2.2-8.3H82l0,0.1h1.2c0.3,0,0.6,0.2,0.9,0.4c0.2,0.3,0.3,0.6,0.2,0.9
						l-2.3,8.3H84.6z"/>
				</g>
				<g>
					<path class="st1" d="M91.5,38.9c-0.5,0-0.9-0.3-1-0.8c-0.1,0.4-0.5,0.8-1,0.8H87c-0.3,0-0.6-0.1-0.8-0.4
						c-0.2-0.2-0.3-0.6-0.2-0.9l2.1-11.8c0.1-0.5,0.5-0.9,1.1-0.9h2.5c0.5,0,1,0.4,1.1,0.9l2.1,11.8c0.1,0.3,0,0.6-0.2,0.9
						c-0.2,0.2-0.5,0.4-0.8,0.4H91.5z"/>
					<path class="st1" d="M91.3,39c-0.4,0-0.7-0.2-0.9-0.5c-0.2,0.3-0.5,0.5-0.9,0.5h-2.7c-0.3,0-0.6-0.1-0.8-0.4
						c-0.2-0.2-0.3-0.6-0.2-0.9L88,25.6c0.1-0.5,0.5-0.9,1.1-0.9h2.8c0.5,0,1,0.4,1.1,0.9l2.2,12.2c0.1,0.3,0,0.6-0.2,0.9
						C94.7,38.9,94.4,39,94,39H91.3z M92.6,36.7l-0.7-4l0.2,1.6c0,0.3-0.1,0.6-0.3,0.8c-0.1,0.1-0.1,0.1-0.2,0.2
						c0.4,0.1,0.6,0.5,0.7,0.9l0.1,0.6H92.6z M88.5,36.7l0.1-0.6c0.1-0.4,0.3-0.7,0.7-0.9c-0.1,0-0.1-0.1-0.2-0.2
						c-0.2-0.2-0.3-0.5-0.3-0.8l0.2-1.7l-0.7,4.1H88.5z M89.6,29.6c0.2-0.3,0.5-0.4,0.8-0.4c0,0,0,0,0,0c0.3,0,0.6,0.2,0.8,0.4
						L90.8,27h-0.7L89.6,29.6z"/>
				</g>
				<g>
					<path class="st1" d="M95.2,38.9c-0.6,0-1.1-0.5-1.1-1.1V26c0-0.6,0.5-1.1,1.1-1.1h2.4c0.6,0,1.1,0.5,1.1,1.1v8.6h1.3
						c0.3,0,0.6,0.1,0.8,0.4c0.2,0.2,0.3,0.6,0.2,0.9l-0.4,2.2c-0.1,0.5-0.5,0.9-1.1,0.9H95.2z"/>
					<path class="st1" d="M95,39c-0.6,0-1.1-0.5-1.1-1.1V25.8c0-0.6,0.5-1.1,1.1-1.1h2.7c0.6,0,1.1,0.5,1.1,1.1v8.6h1.3
						c0.3,0,0.6,0.1,0.8,0.4c0.2,0.2,0.3,0.6,0.2,0.9l-0.5,2.5c-0.1,0.5-0.5,0.9-1.1,0.9H95z M98.7,36.7L98.7,36.7l-1.1-0.1
						c-0.6,0-1.1-0.5-1.1-1.1V27h-0.3v9.7H98.7z"/>
				</g>
				<g>
					<path class="st1" d="M101.4,38.9c-0.6,0-1.1-0.5-1.1-1.1V26c0-0.6,0.5-1.1,1.1-1.1h4.6c0.5,0,1,0.4,1.1,0.9l0.4,2.2
						c0.1,0.3,0,0.6-0.2,0.9c-0.2,0.2-0.5,0.4-0.8,0.4h-1.5v0.7h0.9c0.6,0,1.1,0.5,1.1,1.1v2c0,0.6-0.5,1.1-1.1,1.1h-0.9v0.4h1.4
						c0.3,0,0.6,0.1,0.8,0.4c0.2,0.2,0.3,0.6,0.2,0.9l-0.4,2.2c-0.1,0.5-0.5,0.9-1.1,0.9H101.4z"/>
					<path class="st1" d="M101.2,39c-0.6,0-1.1-0.5-1.1-1.1V25.8c0-0.6,0.5-1.1,1.1-1.1h4.9c0.5,0,1,0.4,1.1,0.9l0.5,2.5
						c0.1,0.3,0,0.6-0.2,0.9c-0.2,0.2-0.5,0.4-0.8,0.4H105v0.4h0.9c0.6,0,1.1,0.5,1.1,1.1v2.4c0,0.6-0.5,1.1-1.1,1.1H105v0.1h1.4
						c0.3,0,0.6,0.1,0.8,0.4c0.2,0.2,0.3,0.6,0.2,0.9l-0.5,2.5c-0.1,0.5-0.5,0.9-1.1,0.9H101.2z M105,36.7L105,36.7l-1.2-0.1
						c-0.6,0-1.1-0.5-1.1-1.1V33c0-0.5,0.3-0.9,0.8-1c-0.4-0.1-0.8-0.5-0.8-1v-2.8c0-0.6,0.5-1.1,1.1-1.1h1.3l0-0.1h-2.6v9.7H105z"
						/>
				</g>
				<g>
					<path class="st1" d="M107.5,38.9c-0.3,0-0.6-0.2-0.9-0.4c-0.2-0.3-0.3-0.6-0.2-0.9l2.3-8.3h-1.1c-0.3,0-0.6-0.1-0.8-0.4
						c-0.2-0.2-0.3-0.6-0.2-0.9l0.2-1.2c0-0.1,0-0.1,0-0.2l0.1-0.7c0.1-0.5,0.5-0.9,1-0.9h1.5c0.2,0,0.4,0.1,0.5,0.1l3.2,1.8
						c0.4,0.2,0.6,0.7,0.5,1.2l-0.2,0.8l-1.5,5.5h0.8c0.3,0,0.6,0.1,0.8,0.4c0.2,0.2,0.3,0.6,0.2,0.9l-0.4,2.2
						c-0.1,0.5-0.5,0.9-1.1,0.9H107.5z"/>
					<path class="st1" d="M107.3,39c-0.3,0-0.6-0.2-0.9-0.4c-0.2-0.3-0.3-0.6-0.2-0.9l2.3-8.3h-1c-0.3,0-0.6-0.1-0.8-0.4
						c-0.2-0.2-0.3-0.6-0.2-0.9l0.3-1.6c0-0.1,0-0.1,0-0.2l0.1-0.5l0-0.1c0.1-0.5,0.5-0.9,1-0.9h1.7c0.2,0,0.4,0.1,0.5,0.1l3.3,1.9
						c0.4,0.2,0.6,0.7,0.5,1.2l-0.2,0.9l-1.4,5.3h0.8c0.3,0,0.6,0.1,0.8,0.4c0.2,0.2,0.3,0.6,0.2,0.9l-0.5,2.5
						c-0.1,0.5-0.5,0.9-1.1,0.9H107.3z M111.6,36.7L111.6,36.7l-0.9-0.1c-0.3,0-0.6-0.2-0.8-0.4c-0.2-0.3-0.3-0.6-0.2-0.9l1.8-6.8
						l-0.3-0.2c0,0,0,0.1,0,0.1l-2.3,8.3H111.6z"/>
				</g>
				<g>
					<path class="st1" d="M112.8,28.5c-0.2,0-0.4,0-0.5-0.1l-3.2-1.8c-0.4-0.2-0.6-0.7-0.5-1.2c0.1-0.5,0.5-0.8,1-0.8h3.6
						c0.3,0,0.6,0.2,0.8,0.4c0.2,0.3,0.3,0.6,0.2,0.9l-0.5,1.8c-0.1,0.3-0.3,0.6-0.6,0.7C113.1,28.5,113,28.5,112.8,28.5z"/>
					<path class="st1" d="M112.9,28.7c-0.2,0-0.4,0-0.5-0.1l-3.8-2.2c-0.4-0.2-0.6-0.7-0.5-1.2c0.1-0.5,0.5-0.8,1-0.8h4.4
						c0.3,0,0.6,0.2,0.8,0.4c0.2,0.3,0.3,0.6,0.2,0.9l-0.6,2.2c-0.1,0.3-0.3,0.6-0.6,0.7C113.2,28.7,113.1,28.7,112.9,28.7z"/>
				</g>
			</g>
		</g>
		<g>
			<g>
				<path d="M58,27.4c0-0.4,0.1-0.8,0.4-1c0.2-0.3,0.6-0.4,1.1-0.4H64l0,2.2h-3.4c-0.1,0-0.2,0.1-0.2,0.2v7c0,0.2,0.1,0.2,0.2,0.2
					h1.1V31h2.3v6.8h-4.1c-0.7,0-1.2-0.1-1.4-0.4C58.1,37.1,58,36.6,58,36V27.4z"/>
				<path d="M64,26l0,2.2h-3.4c-0.1,0-0.2,0.1-0.2,0.2v7c0,0.2,0.1,0.2,0.2,0.2h1.1V31h2.3v6.8h-4.1c-0.7,0-1.2-0.1-1.4-0.4
					C58.1,37.1,58,36.6,58,36v-8.6c0-0.4,0.1-0.8,0.4-1c0.2-0.3,0.6-0.4,1.1-0.4H64 M64.1,25.8H64h-4.6c-0.5,0-0.9,0.1-1.2,0.4
					c-0.3,0.3-0.4,0.7-0.4,1.1V36c0,0.7,0.2,1.2,0.5,1.5c0.3,0.3,0.8,0.5,1.6,0.5h4.1h0.2v-0.2V31v-0.2h-0.2h-2.3h-0.2V31v4.5h-0.9
					c0,0,0,0,0,0c0,0,0,0,0-0.1v-7c0,0,0-0.1,0-0.1c0,0,0,0,0,0H64h0.2l0-0.2l0-2.2L64.1,25.8L64.1,25.8z"/>
			</g>
			<g>
				<path d="M71.3,26.4c-0.2-0.2-0.5-0.4-1-0.4l-4.8,2.2v7.9c0,0.2,0,0.4,0.1,0.6c0.1,0.2,0.1,0.4,0.3,0.5c0.1,0.2,0.3,0.3,0.5,0.4
					c0.2,0.1,0.5,0.1,0.8,0.1H70c0.3,0,0.6,0,0.8-0.1c0.2-0.1,0.4-0.2,0.5-0.4c0.1-0.2,0.2-0.3,0.3-0.5c0.1-0.2,0.1-0.4,0.1-0.6
					v-8.6C71.7,27,71.5,26.7,71.3,26.4z M69.3,35.5c0,0.1,0,0.1,0,0.2c0,0-0.1,0.1-0.2,0.1h-0.9c-0.1,0-0.2,0-0.2-0.1
					c0,0,0-0.1,0-0.2v-7.2c0-0.2,0.1-0.2,0.2-0.2h0.9c0.1,0,0.2,0.1,0.2,0.2V35.5z"/>
				<path d="M70.3,26c0.4,0,0.8,0.2,1,0.4c0.3,0.3,0.4,0.7,0.4,1.1v8.6c0,0.2,0,0.4-0.1,0.6c-0.1,0.2-0.1,0.4-0.3,0.5
					c-0.1,0.2-0.3,0.3-0.5,0.4c-0.2,0.1-0.5,0.1-0.8,0.1h-2.7c-0.3,0-0.6,0-0.8-0.1c-0.2-0.1-0.4-0.2-0.5-0.4
					c-0.1-0.2-0.2-0.3-0.3-0.5c-0.1-0.2-0.1-0.4-0.1-0.6v-7.9L70.3,26 M68.1,35.7H69c0.1,0,0.2,0,0.2-0.1c0,0,0-0.1,0-0.2v-7.2
					c0-0.2-0.1-0.2-0.2-0.2h-0.9c-0.1,0-0.2,0.1-0.2,0.2v7.2c0,0.1,0,0.1,0,0.2C68,35.7,68,35.7,68.1,35.7 M70.3,25.8L70.3,25.8
					l-4.8,2.3l-0.1,0v0.1v7.9c0,0.2,0,0.5,0.1,0.7c0.1,0.2,0.2,0.4,0.3,0.6c0.1,0.2,0.3,0.3,0.6,0.4c0.2,0.1,0.5,0.2,0.9,0.2H70
					c0.3,0,0.6-0.1,0.9-0.2c0.2-0.1,0.4-0.2,0.6-0.4c0.1-0.2,0.2-0.4,0.3-0.6c0.1-0.2,0.1-0.4,0.1-0.7v-8.6c0-0.5-0.1-0.9-0.4-1.2
					C71.2,26,70.8,25.9,70.3,25.8L70.3,25.8L70.3,25.8z M68.1,35.6C68.1,35.6,68.1,35.5,68.1,35.6l0-7.3c0,0,0-0.1,0-0.1
					c0,0,0,0,0,0h0.9c0,0,0,0,0,0c0,0,0,0,0,0.1v7.2c0,0,0,0.1,0,0.1c0,0,0,0-0.1,0L68.1,35.6C68.1,35.6,68.1,35.6,68.1,35.6
					L68.1,35.6z"/>
			</g>
			<g>
				<path d="M73.3,26h2.3l1.2,4.8V26h2.4v11.8h-2.4l-1.3-4.9v4.9h-2.2V26z"/>
				<path d="M79.2,26v11.8h-2.4l-1.3-4.9v4.9h-2.2V26h2.3l1.2,4.8V26H79.2 M79.4,25.8h-0.2h-2.4h-0.2V26v3.5l-0.9-3.5l0-0.1h-0.1
					h-2.3h-0.2V26v11.8V38h0.2h2.2h0.2v-0.2v-3.7l1,3.7l0,0.1h0.1h2.4h0.2v-0.2V26V25.8L79.4,25.8z"/>
			</g>
			<g>
				<path d="M83.7,35.6h2.2l-0.4,2.2h-5l2.7-9.6h-2.5l0.4-2.2h5.1L83.7,35.6z"/>
				<path d="M86.2,26l-2.5,9.6h2.2l-0.4,2.2h-5l2.7-9.6h-2.5l0.4-2.2H86.2 M86.4,25.8h-0.2h-5.1H81l0,0.1l-0.4,2.2l0,0.2h0.2H83
					l-2.6,9.4L80.3,38h0.2h5h0.1l0-0.1l0.4-2.2l0-0.2h-0.2h-2l2.5-9.4L86.4,25.8L86.4,25.8z"/>
			</g>
			<g>
				<path d="M89.6,36.3l-0.2,1.5H87L89.2,26h2.5l2.1,11.8h-2.4l-0.2-1.5H89.6z M89.9,34.5H91l-0.5-4.2L89.9,34.5z"/>
				<path d="M91.7,26l2.1,11.8h-2.4l-0.2-1.5h-1.6l-0.2,1.5H87L89.2,26H91.7 M89.9,34.5H91l-0.5-4.2L89.9,34.5 M91.8,25.8h-0.1h-2.5
					h-0.1l0,0.1l-2.1,11.8l0,0.2H87h2.4h0.1l0-0.1l0.2-1.3h1.3l0.2,1.3l0,0.1h0.1h2.4H94l0-0.2l-2.1-11.8L91.8,25.8L91.8,25.8z
					 M90.1,34.3l0.4-2.8l0.4,2.8H90.1L90.1,34.3z"/>
			</g>
			<g>
				<path d="M95.2,26h2.4v9.6h2.4l-0.4,2.2h-4.4V26z"/>
				<path d="M97.6,26v9.6h2.4l-0.4,2.2h-4.4V26H97.6 M97.8,25.8h-0.2h-2.4H95V26v11.8V38h0.2h4.4h0.1l0-0.1l0.4-2.2l0-0.2H100h-2.2
					V26V25.8L97.8,25.8z"/>
			</g>
			<g>
				<path d="M101.4,26h4.6l0.4,2.2h-2.6V31h2v2h-2v2.6h2.5l-0.4,2.2h-4.5V26z"/>
				<path d="M106,26l0.4,2.2h-2.6V31h2v2h-2v2.6h2.5l-0.4,2.2h-4.5V26H106 M106.1,25.8H106h-4.6h-0.2V26v11.8V38h0.2h4.5h0.1l0-0.1
					l0.4-2.2l0-0.2h-0.2H104v-2.3h1.8h0.2V33v-2v-0.2h-0.2H104v-2.5h2.4h0.2l0-0.2l-0.4-2.2L106.1,25.8L106.1,25.8z"/>
			</g>
			<g>
				<polygon points="112.9,35.6 112.5,37.8 107.5,37.8 110.1,28.2 107.7,28.2 107.9,27 107.9,27 108,26.5 108.1,26.2 108.1,26.1 
					109.6,26.1 109.8,26.3 112.7,28 112.6,28.6 112.5,28.8 110.7,35.6 				"/>
				<path d="M109.6,26.1l0.2,0.1l2.9,1.7l-0.2,0.6l0,0.2l-1.8,6.8h2.2l-0.4,2.2h-5l2.7-9.6h-2.5l0.2-1.2l0,0l0.1-0.4l0.1-0.4l0,0
					H109.6 M109.6,26L109.6,26h-1.5h-0.1l0,0.1l0,0l-0.1,0.4l0,0.2l0,0l0,0.2l-0.2,1.2l0,0.2h0.2h2.3l-2.6,9.4l-0.1,0.2h0.2h5h0.1
					l0-0.1l0.4-2.2l0-0.2h-0.2h-2l1.8-6.7l0-0.2l0.2-0.6l0-0.1l-0.1-0.1l-2.9-1.7L109.6,26L109.6,26L109.6,26z"/>
			</g>
			<g>
				<polygon points="113.3,25.6 112.8,27.4 109.9,25.7 109.7,25.6 				"/>
				<path d="M113.3,25.6l-0.5,1.8l-2.9-1.7l-0.2-0.1H113.3 M113.5,25.4h-0.2h-3.6h-0.6l0.5,0.3l0.2,0.1l2.9,1.7l0.2,0.1l0.1-0.2
					l0.5-1.8L113.5,25.4L113.5,25.4z"/>
			</g>
		</g>
		<g>
			<g>
				<path class="st0" d="M64.1,30.8V38h-4.3c-0.7,0-1.2-0.2-1.5-0.5c-0.3-0.3-0.5-0.8-0.5-1.5v-8.6c0-0.5,0.1-0.9,0.4-1.2
					c0.3-0.3,0.7-0.4,1.2-0.4h4.7l0,0.2l0,2.2l0,0.2h-3.6c0,0,0,0,0,0c0,0,0,0,0,0.1v7c0,0,0,0.1,0,0.1c0,0,0,0,0,0h0.9v-4.7H64.1z"
					/>
			</g>
			<g>
				<path class="st0" d="M71.4,26.3c-0.2-0.3-0.6-0.4-1.1-0.5l0,0l0,0l-4.8,2.2l-0.1,0v8c0,0.2,0,0.5,0.1,0.7
					c0.1,0.2,0.2,0.4,0.3,0.6c0.1,0.2,0.3,0.3,0.6,0.4c0.2,0.1,0.5,0.2,0.9,0.2H70c0.3,0,0.6-0.1,0.9-0.2c0.2-0.1,0.4-0.2,0.6-0.4
					c0.1-0.2,0.2-0.4,0.3-0.6c0.1-0.2,0.1-0.4,0.1-0.7v-8.6C71.8,27,71.7,26.6,71.4,26.3z M68.1,35.5v-7.2c0,0,0-0.1,0-0.1
					c0,0,0,0,0,0h0.9c0,0,0,0,0,0c0,0,0,0,0,0.1v7.2c0,0,0,0.1,0,0.1c0,0,0,0-0.1,0L68.1,35.5C68.1,35.6,68.1,35.6,68.1,35.5
					C68.1,35.6,68.1,35.5,68.1,35.5z"/>
			</g>
			<g>
				<polygon class="st0" points="79.4,25.8 79.4,38 76.6,38 76.6,37.9 75.6,34.1 75.6,38 73.1,38 73.1,25.8 75.7,25.8 75.7,25.9 
					76.6,29.5 76.6,25.8 				"/>
			</g>
			<g>
				<polygon class="st0" points="86.4,26 83.9,35.4 86.1,35.4 86.1,35.6 85.6,37.8 85.6,38 80.3,38 80.3,37.8 83,28.3 80.5,28.3 
					80.5,28.1 80.9,25.9 81,25.8 86.4,25.8 				"/>
			</g>
			<g>
				<path class="st0" d="M94,37.8l-2.1-11.8l0-0.1h-2.8l0,0.1l-2.1,11.8l0,0.2h2.7l0-0.1l0.2-1.3h1.3l0.2,1.3l0,0.1H94L94,37.8z
					 M90.1,34.3l0.4-2.8l0.4,2.8H90.1z"/>
			</g>
			<g>
				<polygon class="st0" points="100.2,35.4 100.1,35.6 99.7,37.8 99.7,38 95,38 95,25.8 97.8,25.8 97.8,35.4 				"/>
			</g>
			<g>
				<polygon class="st0" points="106.5,35.4 106.4,35.6 106,37.8 106,38 101.2,38 101.2,25.8 106.1,25.8 106.1,25.9 106.5,28.1 
					106.6,28.3 104,28.3 104,30.8 105.9,30.8 105.9,33.2 104,33.2 104,35.4 				"/>
			</g>
			<g>
				<polygon class="st0" points="113.1,35.4 113,35.6 112.6,37.8 112.6,38 107.3,38 107.3,37.8 109.9,28.3 107.5,28.3 107.5,28.1 
					107.8,26.9 107.8,26.7 107.8,26.7 107.8,26.5 107.9,26.1 107.9,26.1 107.9,26 109.6,26 109.6,26 109.9,26.1 112.8,27.8 
					112.9,27.9 112.9,28 112.7,28.6 112.7,28.8 110.9,35.4 				"/>
			</g>
			<g>
				<polygon class="st0" points="113.5,25.4 113.5,25.6 113,27.5 112.9,27.7 112.8,27.6 109.8,25.9 109.6,25.7 109.1,25.4 				"/>
			</g>
		</g>
	</g>
	<g>
		<rect x="86.3" y="20.2" class="st1" width="1.7" height="1.7"/>
		<rect x="88.6" y="20.2" class="st1" width="1.7" height="1.7"/>
		<rect x="86.3" y="22.4" class="st1" width="1.7" height="1.7"/>
		<rect x="88.6" y="22.4" class="st1" width="1.7" height="1.7"/>
	</g>
	<g>
		<g>
			<path class="st1" d="M109.6,23.2c0.4-0.6,0-1.1-0.2-1.1c-0.2-0.1-0.2-0.2-0.2-0.2c0.1-0.5-0.3-0.6-0.5-0.6c-0.1,0-0.1,0-0.1,0
				c-1.1-0.4-1.6-0.5-1.6-0.5l1-1.6c0,0,0.1-0.2,0.3-0.2c0.2,0,0.1,0.5,0.3,0.5h0c0.2,0,0-0.7,0-0.7c0,0,0.1,0,0.1,0
				c0.3,0,0.7-0.2,0.3-0.4c-0.5-0.2-0.5-0.4-0.5-0.4c0.4,0,0.4-0.5,0.1-0.7c-0.3-0.2-0.3-0.3-0.3-0.3c0.1-0.8-0.1-1.2-0.1-1.2
				c-1.3-3.7-4.5-6.4-4.6-6.6c-0.1-0.2,0.1-0.3,0.1-0.3c0.4,0,0.3-1,0.3-1s0.1-0.9-1-1.4c-0.3-0.1-0.5-0.2-0.7-0.2
				c-0.7,0-1.1,0.6-1.3,0.9c-0.2,0.3-0.3,0.3-0.3,0.3c0,0,0,0,0,0s0,0,0,0c0,0-0.5,0-0.7,0.4c-0.2,0.4,0.3,0.6,0.4,0.6
				c0.2,0.1,0.1,0.3,0,0.3c-0.2,0-0.1,0.3,0.1,0.3c0.2,0,0.1,0.2,0.1,0.3c-0.1,0.6,0.2,1,0.2,1c-0.1,0-0.3,0.3-0.5,0.8
				c-0.2,0.5-0.6,0.7-0.6,0.7c-1.3,0.6-2.7,2.5-2.7,2.5l-1.6-0.1l-0.9-0.7v-1.5c0.1,0.1,0.5,0.4,0.7,0.4c0,0,0,0,0,0
				c0-0.2-0.4-0.5-0.8-0.7c0,0-0.1,0-0.2,0c-0.4,0-1,0.3-1.3,0.5c-0.4,0.3,0,0.4,0,0.4s0.6-0.2,0.8-0.2c0.2,0,0.2,0.3,0.2,0.3
				s0.1,1.4,0.1,1.9c0,0.4,0.1,0.4,0.2,0.4c0,0,0.1,0,0.1,0l0.3,1.9l0.4,0c0,0,0-0.2,0.1-0.3c0.1-0.1,0.5-0.2,0.5-0.2
				s0.1-0.1,0.2-0.1c0.1,0,0.2,0.1,0.2,0.3c0.1,0.5,0.5,0.5,0.5,0.5c0.2-0.1-0.2-0.4,0.1-0.7c0.1-0.2,0.5-0.8,0.5-0.8
				s0.5,0.1,1.3,0.1c0.3,0,0.6,0,1-0.1c0.7-0.1,1.1-0.3,1.1-0.3l1.5-1c0,0,0.5,1,1.2,1.4c0.8,0.4,0.6,0.5,0.6,0.6
				c0,0.1-0.6,0.4-0.6,0.7c-0.1,0.3-0.7,1.1-1.1,1.7c-0.8,1.1-0.2,2.4-0.2,2.4l7.3,4.1l0.1-0.4c0.5-0.3,0.2-1.1,0.2-1.4
				C109.5,23.2,109.6,23.2,109.6,23.2z M95.5,15.7l0-0.1c0.1,0,0.1,0,0.2,0C95.6,15.6,95.6,15.7,95.5,15.7z M106.2,20.3l0.7-0.8
				c0.1-0.1,0.1-0.1,0.2-0.1c0,0,0.1,0,0.1,0c-0.2,0.5-0.4,0.8-0.5,0.9L106.2,20.3z"/>
		</g>
		<g>
			<path class="st0" d="M107.2,19.1c-0.1,0-0.1,0-0.2,0c-0.1,0-0.2,0.1-0.3,0.2l-1,1.1l1.1,0.1c0,0,0.3-0.3,0.6-1.1
				C107.5,19.2,107.4,19.1,107.2,19.1z M95.4,16.2c0,0,0.3-0.3,0.6-0.5c0.3-0.2,0.6-0.4,0.7-0.4c0,0-1.4,0.1-1.4,0.1L95.4,16.2z
				 M107.2,19.1c-0.1,0-0.1,0-0.2,0c-0.1,0-0.2,0.1-0.3,0.2l-1,1.1l1.1,0.1c0,0,0.3-0.3,0.6-1.1C107.5,19.2,107.4,19.1,107.2,19.1z
				 M95.2,15.4l0.1,0.8c0,0,0.3-0.3,0.6-0.5c0.3-0.2,0.6-0.4,0.7-0.4C96.6,15.2,95.2,15.4,95.2,15.4z M107.2,19.1
				c-0.1,0-0.1,0-0.2,0c-0.1,0-0.2,0.1-0.3,0.2l-1,1.1l1.1,0.1c0,0,0.3-0.3,0.6-1.1C107.5,19.2,107.4,19.1,107.2,19.1z M95.4,16.2
				c0,0,0.3-0.3,0.6-0.5c0.3-0.2,0.6-0.4,0.7-0.4c0,0-1.4,0.1-1.4,0.1L95.4,16.2z"/>
			<path class="st0" d="M110,23.6c0-0.1,0-0.1,0-0.1c0,0,0,0,0,0c0.2-0.3,0.3-0.7,0.2-1.1c-0.1-0.3-0.3-0.6-0.5-0.7
				c0-0.3-0.1-0.5-0.2-0.6c-0.2-0.2-0.4-0.3-0.7-0.3c0,0,0,0,0,0c-0.4-0.2-0.7-0.3-1-0.4l0.5-0.7c0.1,0.2,0.2,0.2,0.4,0.2h0
				c0.2,0,0.3-0.1,0.4-0.2c0-0.1,0.1-0.2,0.1-0.5c0.2-0.1,0.4-0.2,0.5-0.5c0-0.1,0.1-0.5-0.4-0.7c0-0.1,0-0.1,0.1-0.2
				c0.1-0.4-0.1-0.8-0.5-0.9c0,0,0,0,0,0c0-0.7-0.1-1.1-0.2-1.3c-1.1-3.1-3.5-5.5-4.4-6.4l-0.1-0.1c0,0,0.1-0.1,0.1-0.1
				c0.3-0.3,0.2-0.9,0.2-1.2c0-0.3,0-1.2-1.2-1.8c-0.3-0.1-0.6-0.2-0.9-0.2c-1,0-1.5,0.8-1.6,1.1c0,0-0.1,0.1-0.1,0.1
				c-0.4,0-0.8,0.2-1,0.7c-0.1,0.2-0.1,0.7,0.3,1c0,0,0,0.1,0,0.1c0,0.2,0.1,0.4,0.2,0.6c-0.1,0.4,0,0.7,0.1,0.9
				c-0.1,0.2-0.2,0.4-0.4,0.7c-0.1,0.3-0.3,0.4-0.4,0.4c0,0,0,0,0,0c-1.1,0.6-2.3,2-2.7,2.5L95.7,14l-0.6-0.5V13c0.1,0,0.1,0,0.2,0
				c0.3,0,0.5-0.2,0.5-0.4c0.1-0.6-1-1.1-1-1.1c-0.1,0-0.2-0.1-0.4-0.1c-0.5,0-1.2,0.4-1.6,0.6c-0.4,0.2-0.4,0.5-0.4,0.7
				c0,0.3,0.3,0.5,0.5,0.6c0,0,0.1,0,0.1,0c0.1,0,0.1,0,0.2,0c0.1-0.1,0.3-0.1,0.4-0.1c0,0.4,0.1,1.3,0.1,1.7c0,0.4,0.1,0.6,0.3,0.7
				l0.3,1.6c0,0.2,0.2,0.4,0.4,0.4l0.4,0c0,0,0,0,0,0c0.1,0,0.2,0,0.3-0.1c0.1-0.1,0.1-0.2,0.1-0.3c0,0,0,0,0,0c0,0,0.1,0,0.2-0.1
				c0.2,0.5,0.6,0.7,0.8,0.7c0,0,0,0,0,0c0.1,0,0.2,0,0.3-0.1c0.3-0.3,0.2-0.6,0.1-0.7c0,0,0,0,0,0c0.1-0.1,0.2-0.3,0.3-0.5
				c0.2,0,0.6,0.1,1.1,0.1c0.3,0,0.7,0,1-0.1c0.8-0.1,1.2-0.3,1.3-0.3c0,0,0,0,0,0l1.1-0.7c0.2,0.4,0.6,0.9,1.1,1.2
				c0.1,0,0.2,0.1,0.2,0.1c-0.2,0.2-0.4,0.4-0.5,0.7c0,0.2-0.5,0.8-0.7,1.2c-0.1,0.1-0.2,0.2-0.2,0.4c-0.9,1.3-0.3,2.8-0.2,2.8
				c0,0.1,0.1,0.2,0.2,0.2l7.3,4.1c0.1,0,0.1,0.1,0.2,0.1c0.1,0,0.1,0,0.2,0c0.1-0.1,0.2-0.2,0.3-0.3l0.1-0.3
				c0.5-0.4,0.3-1.2,0.3-1.5C110,23.7,110,23.6,110,23.6z M103.8,16.5c0-0.1,0.2-0.2-0.6-0.6c-0.8-0.4-1.2-1.4-1.2-1.4l-1.5,1
				c0,0-0.4,0.2-1.1,0.3c-0.4,0-0.7,0.1-1,0.1c-0.9,0-1.3-0.1-1.3-0.1s-0.3,0.6-0.5,0.8c-0.3,0.3,0.1,0.5-0.1,0.7c0,0-0.4,0-0.5-0.5
				c0-0.2-0.1-0.3-0.2-0.3c-0.1,0-0.2,0.1-0.2,0.1s-0.4,0.1-0.5,0.2c-0.1,0.1-0.1,0.3-0.1,0.3l-0.4,0l-0.3-1.9c0,0,0,0-0.1,0
				c-0.1,0-0.2-0.1-0.2-0.4c0-0.5-0.1-1.9-0.1-1.9s0-0.3-0.2-0.3c-0.2,0-0.8,0.2-0.8,0.2s-0.5-0.2,0-0.4c0.4-0.2,1-0.5,1.3-0.5
				c0.1,0,0.1,0,0.2,0c0.3,0.1,0.8,0.5,0.8,0.7c0,0,0,0,0,0c-0.1,0-0.6-0.3-0.7-0.4v1.5l0.9,0.7l1.6,0.1c0,0,1.4-1.9,2.7-2.5
				c0,0,0.4-0.2,0.6-0.7c0.2-0.5,0.4-0.8,0.5-0.8c0,0-0.4-0.4-0.2-1c0-0.1,0.1-0.3-0.1-0.3c-0.2,0-0.3-0.3-0.1-0.3
				c0.2,0,0.2-0.3,0-0.3c-0.2-0.1-0.6-0.2-0.4-0.6c0.1-0.4,0.6-0.4,0.7-0.4c0,0,0,0,0,0s0,0,0,0c0,0,0.2,0,0.3-0.3
				c0.2-0.3,0.6-0.9,1.3-0.9c0.2,0,0.4,0.1,0.7,0.2c1.1,0.5,1,1.4,1,1.4s0.1,0.9-0.3,1c0,0-0.2,0.2-0.1,0.3c0.1,0.2,3.3,2.9,4.6,6.6
				c0,0,0.2,0.4,0.1,1.2c0,0,0,0.1,0.3,0.3c0.3,0.2,0.3,0.7-0.1,0.7c0,0,0,0.2,0.5,0.4c0.4,0.2-0.1,0.4-0.3,0.4c-0.1,0-0.1,0-0.1,0
				c0,0,0.2,0.7,0,0.7h0c-0.2,0-0.1-0.5-0.3-0.5c-0.2,0-0.3,0.2-0.3,0.2l-1,1.6c0,0,0.6,0.1,1.6,0.5c0,0,0,0,0.1,0
				c0.2,0,0.6,0.1,0.5,0.6c0,0,0,0.1,0.2,0.2c0.2,0.1,0.6,0.6,0.2,1.1c0,0-0.1,0.1-0.1,0.4c0,0.3,0.3,1.1-0.2,1.4l-0.1,0.4l-7.3-4.1
				c0,0-0.6-1.3,0.2-2.4c0.4-0.6,1-1.4,1.1-1.7C103.3,16.9,103.8,16.6,103.8,16.5z"/>
		</g>
	</g>
	<polygon class="st1" points="114.6,28.7 114.5,29.1 112.6,28.3 109.7,27 108.1,26.2 107.6,26 107.3,25.9 88.1,17.3 69.7,25.8 
		64.6,28.2 59.5,30.6 64.6,27.5 67.4,25.8 88.3,13.3 109.6,25.8 109.9,25.9 112.8,27.7 	"/>
	<g>
		<path class="st1" d="M59.7,46.2L59.6,46l0.9-4.2l0.2-0.1h1.2c0.3,0,0.5,0,0.7,0.1c0.3,0.1,0.5,0.2,0.6,0.5
			c0.1,0.2,0.2,0.5,0.1,0.8c-0.1,0.3-0.2,0.5-0.4,0.8c-0.2,0.2-0.5,0.4-0.8,0.5c0.2,0.2,0.5,0.7,0.8,1.7l-0.1,0.2H62l-0.1-0.1
			c-0.2-0.7-0.4-1.2-0.5-1.5c-0.1-0.1-0.2-0.2-0.3-0.2h-0.3L60.3,46l-0.2,0.1H59.7z M60.8,43.7h0.6c0.2,0,0.4,0,0.5-0.1
			c0.2-0.1,0.4-0.3,0.5-0.6c0.1-0.3,0-0.5-0.2-0.6c-0.1-0.1-0.2-0.1-0.4-0.1h-0.6L60.8,43.7z"/>
		<path class="st1" d="M64.6,46.2c-0.4,0-0.7-0.1-1-0.4c-0.2-0.3-0.3-0.7-0.2-1.1c0.1-0.4,0.3-0.8,0.6-1c0.3-0.3,0.7-0.4,1.1-0.4
			c0.4,0,0.8,0.1,1,0.4c0.2,0.3,0.3,0.7,0.2,1.1c-0.1,0.4-0.3,0.8-0.6,1C65.4,46.1,65,46.2,64.6,46.2z M64.7,45.6
			c0.4,0,0.7-0.3,0.8-0.8c0-0.2,0-0.3,0-0.4c0-0.1,0-0.2-0.1-0.3c-0.1-0.1-0.2-0.1-0.4-0.1c-0.4,0-0.7,0.3-0.8,0.8
			C64.1,45.3,64.3,45.6,64.7,45.6z"/>
		<path class="st1" d="M68,46.2c-0.4,0-0.7-0.1-1-0.4c-0.2-0.3-0.3-0.7-0.2-1.1c0.1-0.4,0.3-0.8,0.6-1c0.3-0.3,0.7-0.4,1.1-0.4
			c0.4,0,0.8,0.1,1,0.4c0.2,0.3,0.3,0.7,0.2,1.1c-0.1,0.4-0.3,0.8-0.6,1C68.8,46.1,68.4,46.2,68,46.2z M68.1,45.6
			c0.4,0,0.7-0.3,0.8-0.8c0-0.2,0-0.3,0-0.4c0-0.1,0-0.2-0.1-0.3c-0.1-0.1-0.2-0.1-0.4-0.1c-0.4,0-0.7,0.3-0.8,0.8
			C67.5,45.3,67.7,45.6,68.1,45.6z"/>
		<path class="st1" d="M70.5,44l-0.1-0.1l0.1-0.4l0.2-0.1h0.3l0.1-0.6c0.1-0.3,0.1-0.6,0.2-0.7c0.1-0.2,0.2-0.4,0.4-0.5
			c0.2-0.1,0.5-0.2,0.8-0.2c0.1,0,0.3,0,0.5,0l0.1,0.1l-0.1,0.4L72.7,42c-0.1,0-0.3,0-0.4,0c-0.2,0-0.3,0.1-0.4,0.2
			c0,0.1-0.1,0.3-0.1,0.5l-0.1,0.6h1.7l0.1,0.1L72.9,46l-0.2,0.1h-0.5L72.1,46l0.4-2h-1.1l-0.4,2l-0.2,0.1h-0.5L70.3,46l0.4-2H70.5z
			 M72.9,42.3c0-0.1,0.1-0.2,0.2-0.3c0.1-0.1,0.2-0.1,0.3-0.1c0.1,0,0.2,0,0.3,0.1c0.1,0.1,0.1,0.2,0.1,0.3c0,0.1-0.1,0.2-0.2,0.3
			c-0.1,0.1-0.2,0.1-0.3,0.1c-0.1,0-0.2,0-0.3-0.1C72.9,42.5,72.9,42.4,72.9,42.3z"/>
		<path class="st1" d="M74.3,43.5l0.2-0.1h0.4l0.1,0.1l0,0.2c0.3-0.3,0.6-0.4,0.9-0.4c0.3,0,0.5,0.1,0.6,0.3
			c0.1,0.2,0.2,0.4,0.2,0.7c0,0.1,0,0.3-0.1,0.5L76.2,46l-0.2,0.1h-0.5L75.5,46l0.3-1.3c0-0.2,0.1-0.3,0.1-0.4
			c0-0.3-0.1-0.4-0.3-0.4c-0.2,0-0.4,0.1-0.6,0.3L74.5,46l-0.2,0.1h-0.5L73.8,46L74.3,43.5z"/>
		<path class="st1" d="M77.4,45.8c-0.2-0.3-0.3-0.7-0.2-1.1c0.1-0.4,0.3-0.8,0.6-1c0.3-0.3,0.6-0.4,1-0.4c0.4,0,0.6,0.1,0.8,0.4
			l0.1-0.2l0.2-0.1h0.4l0.1,0.1l-0.6,2.8c-0.1,0.4-0.3,0.8-0.6,1.1c-0.3,0.3-0.7,0.4-1.1,0.4c-0.4,0-0.7-0.1-0.9-0.2l-0.1-0.2
			l0.1-0.4l0.2-0.1c0.2,0.1,0.5,0.1,0.8,0.1c0.3,0,0.5-0.1,0.6-0.2c0.2-0.2,0.3-0.4,0.3-0.6l0.1-0.4c-0.2,0.2-0.4,0.3-0.7,0.3
			C77.9,46.2,77.6,46.1,77.4,45.8z M78,44.8c-0.1,0.5,0,0.8,0.5,0.8c0.2,0,0.4-0.1,0.6-0.3l0.2-1.1c-0.1-0.2-0.3-0.3-0.5-0.3
			C78.4,43.9,78.1,44.2,78,44.8z"/>
		<path class="st1" d="M83.3,46.2c-0.4,0-0.7-0.1-1-0.4c-0.3-0.3-0.4-0.6-0.3-1c0-0.2,0.1-0.4,0.2-0.5c0.1-0.2,0.2-0.3,0.4-0.4
			c0.1-0.1,0.3-0.2,0.4-0.3c0.1-0.1,0.2-0.1,0.3-0.2c0-0.1-0.1-0.1-0.1-0.1c0,0,0-0.1-0.1-0.1c0-0.1,0-0.1-0.1-0.2
			c0-0.1,0-0.1,0-0.2c0-0.1,0-0.2,0-0.2c0.1-0.3,0.2-0.5,0.4-0.7c0.2-0.2,0.5-0.3,0.9-0.3c0.2,0,0.3,0,0.4,0l0.1,0.1l-0.1,0.4
			l-0.2,0.1c-0.1,0-0.2,0-0.3,0c-0.3,0-0.4,0.1-0.5,0.3c0,0.1,0.1,0.3,0.2,0.7l0.6,1.3c0.2-0.2,0.4-0.5,0.6-0.8h-0.3L85,43.6
			l0.1-0.4l0.2-0.1h1.3l0.1,0.1l-0.1,0.4l-0.2,0.1h-0.3c-0.3,0.6-0.7,1-1.1,1.4l0.4,0.8l-0.1,0.2h-0.6l-0.1-0.1l-0.1-0.3
			C84.2,46.1,83.8,46.2,83.3,46.2z M83.4,45.6c0.3,0,0.6-0.1,0.8-0.4l-0.5-1.1l-0.1,0c0,0-0.1,0-0.1,0c0,0,0,0-0.1,0
			c0,0-0.1,0-0.1,0.1c0,0-0.1,0-0.1,0.1c0,0-0.1,0.1-0.1,0.1c0,0,0,0.1-0.1,0.1c0,0-0.1,0.1-0.1,0.1c0,0,0,0.1-0.1,0.1
			c0,0.1,0,0.1,0,0.2c0,0.2,0,0.4,0.1,0.5C83.1,45.5,83.2,45.6,83.4,45.6z"/>
		<path class="st1" d="M89.1,41.8l0.2-0.1h2.3l0.1,0.1l-0.2,0.4l-0.2,0.1h-1.6l-0.2,1.2H91l0.1,0.1L91,44l-0.2,0.1h-1.5l-0.3,1.4
			h1.6l0.1,0.1L90.7,46l-0.2,0.1h-2.3L88.2,46L89.1,41.8z"/>
		<path class="st1" d="M91.3,46l1.2-1.3l-0.5-1.2l0.1-0.2h0.6l0.1,0.1l0.3,0.6l0.5-0.6l0.2-0.1h0.6l0.1,0.2l-1,1.2L94,46l-0.1,0.2
			h-0.6l-0.1-0.1l-0.3-0.8l-0.7,0.8l-0.2,0.1h-0.6L91.3,46z"/>
		<path class="st1" d="M94.9,43.5l0.2-0.1h0.2l0.4-0.8l0.2-0.1h0.3l0.1,0.1L96,43.3h0.5l0.1,0.1l-0.2,0.4L96.3,44h-0.4l-0.2,0.8
			c-0.1,0.3-0.1,0.5-0.1,0.5c0,0.2,0.1,0.2,0.3,0.2c0.1,0,0.2,0,0.4-0.1l0.1,0.1L96.3,46l-0.1,0.2c-0.2,0-0.3,0.1-0.4,0.1
			c-0.3,0-0.5-0.1-0.7-0.2c-0.2-0.1-0.3-0.3-0.3-0.4c0-0.2,0-0.4,0.1-0.7l0.2-0.9H95l-0.1-0.1L94.9,43.5z"/>
		<path class="st1" d="M98.2,46.2c-0.5,0-0.8-0.1-1.1-0.4c-0.2-0.3-0.3-0.6-0.2-1.1c0.1-0.4,0.3-0.8,0.6-1.1
			c0.3-0.3,0.7-0.4,1.1-0.4c0.4,0,0.8,0.1,1,0.4c0.2,0.3,0.2,0.7,0.1,1.1l-0.2,0.1h-1.9c0,0.2,0,0.4,0.1,0.5
			c0.1,0.1,0.3,0.2,0.5,0.2c0.3,0,0.6,0,0.9-0.1l0.1,0.1l-0.1,0.3l-0.2,0.2C98.8,46.2,98.5,46.2,98.2,46.2z M97.8,44.5H99l0-0.1
			c0-0.2,0-0.3-0.1-0.4c-0.1-0.1-0.2-0.1-0.4-0.1c-0.2,0-0.3,0.1-0.4,0.2C98,44.1,97.9,44.3,97.8,44.5z"/>
		<path class="st1" d="M100.7,43.5l0.2-0.1h0.4l0.1,0.1l0,0.2c0.2-0.3,0.5-0.4,0.8-0.4c0.2,0,0.4,0.1,0.5,0.2l0,0.2l-0.4,0.3h-0.2
			c-0.1-0.1-0.2-0.1-0.3-0.1c-0.1,0-0.2,0-0.4,0.1c-0.1,0.1-0.2,0.2-0.2,0.4l-0.3,1.6l-0.2,0.1h-0.5l-0.1-0.1L100.7,43.5z"/>
		<path class="st1" d="M103.2,43.5l0.2-0.1h0.5l0.1,0.1l-0.5,2.6l-0.2,0.1h-0.5l-0.1-0.1L103.2,43.5z M104,42.6
			c-0.1,0.1-0.2,0.1-0.3,0.1c-0.1,0-0.2,0-0.3-0.1c-0.1-0.1-0.1-0.2-0.1-0.3c0-0.1,0.1-0.2,0.2-0.3c0.1-0.1,0.2-0.1,0.3-0.1
			c0.1,0,0.2,0,0.3,0.1c0.1,0.1,0.1,0.2,0.1,0.3C104.2,42.4,104.1,42.5,104,42.6z"/>
		<path class="st1" d="M105.5,46.2c-0.4,0-0.7-0.1-1-0.4c-0.2-0.3-0.3-0.7-0.2-1.1c0.1-0.4,0.3-0.8,0.6-1c0.3-0.3,0.7-0.4,1.1-0.4
			c0.4,0,0.8,0.1,1,0.4c0.2,0.3,0.3,0.7,0.2,1.1c-0.1,0.4-0.3,0.8-0.6,1C106.3,46.1,105.9,46.2,105.5,46.2z M105.6,45.6
			c0.4,0,0.7-0.3,0.8-0.8c0-0.2,0-0.3,0-0.4c0-0.1,0-0.2-0.1-0.3c-0.1-0.1-0.2-0.1-0.4-0.1c-0.4,0-0.7,0.3-0.8,0.8
			C105,45.3,105.2,45.6,105.6,45.6z"/>
		<path class="st1" d="M108.2,43.5l0.2-0.1h0.4l0.1,0.1l0,0.2c0.2-0.3,0.5-0.4,0.8-0.4c0.2,0,0.4,0.1,0.5,0.2l0,0.2l-0.4,0.3h-0.2
			c-0.1-0.1-0.2-0.1-0.3-0.1c-0.1,0-0.2,0-0.4,0.1c-0.1,0.1-0.2,0.2-0.2,0.4l-0.3,1.6l-0.2,0.1h-0.5l-0.1-0.1L108.2,43.5z"/>
		<path class="st1" d="M111.6,46c-0.2,0.2-0.5,0.2-0.8,0.2c-0.3,0-0.6-0.1-0.8-0.2l-0.1-0.2l0.1-0.4l0.2-0.1
			c0.2,0.1,0.5,0.2,0.7,0.2c0.3,0,0.4-0.1,0.4-0.3c0-0.1,0-0.2,0-0.2c0,0-0.1-0.1-0.3-0.2l-0.2-0.1c0,0-0.1,0-0.1-0.1
			c0,0-0.1,0-0.1-0.1c0,0-0.1-0.1-0.1-0.1c0,0-0.1-0.1-0.1-0.1c0-0.1,0-0.1,0-0.2c0-0.1,0-0.1,0-0.2c0.1-0.3,0.2-0.5,0.4-0.6
			c0.2-0.1,0.5-0.2,0.7-0.2c0.3,0,0.6,0.1,0.8,0.2l0,0.2L112,44l-0.2,0c-0.1-0.1-0.2-0.1-0.4-0.1c-0.2,0-0.3,0.1-0.3,0.2
			c0,0.1,0,0.1,0,0.1c0,0,0.1,0.1,0.1,0.1l0.3,0.1c0.1,0.1,0.2,0.1,0.3,0.2c0.1,0,0.1,0.1,0.2,0.3c0.1,0.1,0.1,0.3,0,0.4
			C112,45.6,111.9,45.8,111.6,46z"/>
	</g>
</g>
</svg>
